<svg xmlns="http://www.w3.org/2000/svg" xmlns:xlink="http://www.w3.org/1999/xlink" role="img" viewBox="0 0 1280 720" xml:space="preserve" style=""><!-- Generator: WPGraphicator version: 1.5.1 --><style type="text/css">.wpgraphicator-group-ufewsel5tqa68vaugarq  {animation-name: wpgraphicator-group-ufewsel5tqa68vaugarq;animation-delay: 0s;animation-duration: 0s;animation-iteration-count: 1;animation-fill-mode: both;}.wpgraphicator-group-ra30xm2027xqh8r10511k11  {animation-name: wpgraphicator-group-ra30xm2027xqh8r10511k11;animation-delay: 0s;animation-duration: 0s;animation-iteration-count: 1;animation-fill-mode: both;}@keyframes wpgraphicator-group-ufewsel5tqa68vaugarq{}@keyframes wpgraphicator-group-ra30xm2027xqh8r10511k11{}</style><g class="wpgraphicator-group-ufewsel5tqa68vaugarq-top" style="transform:translateY(356.69px)"><g class="wpgraphicator-group-ufewsel5tqa68vaugarq-left" style="transform:translateX(964.61px)"><g class="wpgraphicator-group-ufewsel5tqa68vaugarq-angle" style="transform:rotate(0deg)"><g class="wpgraphicator-group-ufewsel5tqa68vaugarq-scaleY" style="transform:scaleY(0.7)"><g class="wpgraphicator-group-ufewsel5tqa68vaugarq-scaleX" style="transform:scaleX(0.7)"><g class="wpgraphicator-group-ufewsel5tqa68vaugarq-skewY" style="transform:skewY(0deg)"><g class="wpgraphicator-group-ufewsel5tqa68vaugarq-skewX" style="transform:skewX(0deg)"><g class="wpgraphicator-group-ufewsel5tqa68vaugarq"><g transform="matrix(1 0 0 1 -152.15 -55.61)" class="wpgraphicator-path-mbuui2b1vynhwm7x1qn4" data-opacity="1" clip-path="url(#WPG_CLIPPATH_ID-xmsu8jf9j11111s011ywgl4)"><clipPath id="WPG_CLIPPATH_ID-xmsu8jf9j11111s011ywgl4"><path d="M 0 0 L 960 0 L 960 540 L 0 540 L 0 0 z" transform="matrix(1 0 0 1 152.15 73.14) translate(-480, -270)" class="wpgraphicator-path-qrtdqik3j2j11njfkcjr7 MIyLwCIT_0" data-top="73.14" data-left="152.15" data-angle="0" data-scalex="1" data-scaley="1" data-skewx="0" data-skewy="0" data-originx="center" data-originy="center"></path></clipPath><path d="M 183.05 285.77 C 255.45 285.77 291.65 241.31 327.85 196.86 C 364.05 152.4 400.25 107.94 472.66 107.94" stroke="none" stroke-opacity="0" stroke-width="0" stroke-dasharray="none" stroke-dashoffset="0" stroke-linecap="square" stroke-linejoin="miter" stroke-miterlimit="10" fill="rgb(0,0,0)" fill-opacity="0" fill-rule="evenodd" opacity="1" transform=" translate(-327.85, -196.86)" class="MIyLwCIT_1"></path></g><g transform="matrix(1 0 0 1 -152.15 -55.61)" class="wpgraphicator-path-wk4xg98g85i08d610p92g" data-opacity="1" clip-path="url(#WPG_CLIPPATH_ID-11qx10j1kq0ka1ob3nhhfv)"><clipPath id="WPG_CLIPPATH_ID-11qx10j1kq0ka1ob3nhhfv"><path d="M 0 0 L 960 0 L 960 540 L 0 540 L 0 0 z" transform="matrix(1 0 0 1 152.15 73.14) translate(-480, -270)" class="wpgraphicator-path-sanl6bp2l10bhk1t7nqh2 MIyLwCIT_2" data-top="73.14" data-left="152.15" data-angle="0" data-scalex="1" data-scaley="1" data-skewx="0" data-skewy="0" data-originx="center" data-originy="center"></path></clipPath><path d="M 183.05 285.77 C 255.45 285.77 291.65 241.31 327.85 196.86 C 364.05 152.4 400.25 107.94 472.66 107.94" stroke="#29caab" stroke-opacity="1" stroke-width="8" stroke-dasharray="none" stroke-dashoffset="0" stroke-linecap="butt" stroke-linejoin="round" stroke-miterlimit="10" fill="none" fill-opacity="0" fill-rule="evenodd" opacity="1" transform=" translate(-327.85, -196.86)" class="MIyLwCIT_3"></path></g><g transform="matrix(1 0 0 1 54.2 -144.52)" class="wpgraphicator-path-4acjq11o10abif0yvwd2mu" data-opacity="1" clip-path="url(#WPG_CLIPPATH_ID-dvh0x6y10m4ae117sl8od10)"><clipPath id="WPG_CLIPPATH_ID-dvh0x6y10m4ae117sl8od10"><path d="M 0 0 L 960 0 L 960 540 L 0 540 L 0 0 z" transform="matrix(1 0 0 1 -54.2 162.05) translate(-480, -270)" class="wpgraphicator-path-c0r304bghub5d4y1012e10 MIyLwCIT_4" data-top="162.05" data-left="-54.2" data-angle="0" data-scalex="1" data-scaley="1" data-skewx="0" data-skewy="0" data-originx="center" data-originy="center"></path></clipPath><path d="M 472.66 107.98 L 595.74 107.91" stroke="none" stroke-opacity="0" stroke-width="0" stroke-dasharray="none" stroke-dashoffset="0" stroke-linecap="square" stroke-linejoin="miter" stroke-miterlimit="10" fill="rgb(0,0,0)" fill-opacity="0" fill-rule="evenodd" opacity="1" transform=" translate(-534.2, -107.95)" class="MIyLwCIT_5"></path></g><g transform="matrix(1 0 0 1 54.2 -144.52)" class="wpgraphicator-path-s9vwb8ehla107c3ks6109b" data-opacity="1" clip-path="url(#WPG_CLIPPATH_ID-sihj8vyyk8qlm12k1key)"><clipPath id="WPG_CLIPPATH_ID-sihj8vyyk8qlm12k1key"><path d="M 0 0 L 960 0 L 960 540 L 0 540 L 0 0 z" transform="matrix(1 0 0 1 -54.2 162.05) translate(-480, -270)" class="wpgraphicator-path-r105j110o2x06d8r9ttgfe MIyLwCIT_6" data-top="162.05" data-left="-54.2" data-angle="0" data-scalex="1" data-scaley="1" data-skewx="0" data-skewy="0" data-originx="center" data-originy="center"></path></clipPath><path d="M 472.66 107.98 L 595.74 107.91" stroke="#29caab" stroke-opacity="1" stroke-width="8" stroke-dasharray="none" stroke-dashoffset="0" stroke-linecap="butt" stroke-linejoin="round" stroke-miterlimit="10" fill="none" fill-opacity="0" fill-rule="evenodd" opacity="1" transform=" translate(-534.2, -107.95)" class="MIyLwCIT_7"></path></g><g transform="matrix(1 0 0 1 214.29 -144.33)" class="wpgraphicator-path-sug6yjmuxw81o3vttcvr" data-opacity="1" clip-path="url(#WPG_CLIPPATH_ID-wdjpo110ng10dwatkqbu112)"><clipPath id="WPG_CLIPPATH_ID-wdjpo110ng10dwatkqbu112"><path d="M 0 0 L 960 0 L 960 540 L 0 540 L 0 0 z" transform="matrix(1 0 0 1 -214.29 161.87) translate(-480, -270)" class="wpgraphicator-path-j1nb30p5aw8t9m86pcux MIyLwCIT_8" data-top="161.87" data-left="-214.29" data-angle="0" data-scalex="1" data-scaley="1" data-skewx="0" data-skewy="0" data-originx="center" data-originy="center"></path></clipPath><path d="M 589.08 107.94 L 799.5 108.32" stroke="none" stroke-opacity="0" stroke-width="0" stroke-dasharray="none" stroke-dashoffset="0" stroke-linecap="square" stroke-linejoin="miter" stroke-miterlimit="10" fill="rgb(0,0,0)" fill-opacity="0" fill-rule="evenodd" opacity="1" transform=" translate(-694.29, -108.13)" class="MIyLwCIT_9"></path></g><g transform="matrix(1 0 0 1 214.29 -144.33)" class="wpgraphicator-path-qrwtccnesjpmk51119py7" data-opacity="1" clip-path="url(#WPG_CLIPPATH_ID-6si1dy11oknujs9k4pwfd)"><clipPath id="WPG_CLIPPATH_ID-6si1dy11oknujs9k4pwfd"><path d="M 0 0 L 960 0 L 960 540 L 0 540 L 0 0 z" transform="matrix(1 0 0 1 -214.29 161.87) translate(-480, -270)" class="wpgraphicator-path-a0gwm1wr8duutyxkce77 MIyLwCIT_10" data-top="161.87" data-left="-214.29" data-angle="0" data-scalex="1" data-scaley="1" data-skewx="0" data-skewy="0" data-originx="center" data-originy="center"></path></clipPath><path d="M 589.08 107.94 L 799.5 108.32" stroke="#29caab" stroke-opacity="1" stroke-width="8" stroke-dasharray="32 24" stroke-dashoffset="0" stroke-linecap="butt" stroke-linejoin="round" stroke-miterlimit="10" fill="none" fill-opacity="0" fill-rule="evenodd" opacity="1" transform=" translate(-694.29, -108.13)" class="MIyLwCIT_11"></path></g><g transform="matrix(1 0 0 1 0 30.7)" class="wpgraphicator-path-54p0evcrpbeu9vvq11x7l" data-opacity="1" clip-path="url(#WPG_CLIPPATH_ID-7rbrix108rcly8yip0gfk)"><clipPath id="WPG_CLIPPATH_ID-7rbrix108rcly8yip0gfk"><path d="M 0 0 L 960 0 L 960 540 L 0 540 L 0 0 z" transform="matrix(1 0 0 1 0 -13.16) translate(-480, -270)" class="wpgraphicator-path-3ma9lvktiwa0oaal10n47 MIyLwCIT_12" data-top="-13.16" data-left="0" data-angle="0" data-scalex="1" data-scaley="1" data-skewx="0" data-skewy="0" data-originx="center" data-originy="center"></path></clipPath><path d="M 0 144.19 L 960 144.19 L 960 422.14 L 0 422.14 z" stroke="none" stroke-opacity="0" stroke-width="0" stroke-dasharray="none" stroke-dashoffset="0" stroke-linecap="square" stroke-linejoin="miter" stroke-miterlimit="10" fill="rgb(0,0,0)" fill-opacity="0" fill-rule="evenodd" opacity="1" transform=" translate(-480, -283.16)" class="MIyLwCIT_13"></path></g><g transform="matrix(1 0 0 1 -236.7 -57.68)" class="wpgraphicator-path-a7f9eawhv5axf12flg73" data-opacity="1" clip-path="url(#WPG_CLIPPATH_ID-kiy6o1110y6bioa1wl78cv)"><clipPath id="WPG_CLIPPATH_ID-kiy6o1110y6bioa1wl78cv"><path d="M 0 0 L 960 0 L 960 540 L 0 540 L 0 0 z" transform="matrix(1 0 0 1 236.7 75.21) translate(-480, -270)" class="wpgraphicator-path-lpfm4p410e1mhxhmcpv3 MIyLwCIT_14" data-top="75.21" data-left="236.7" data-angle="0" data-scalex="1" data-scaley="1" data-skewx="0" data-skewy="0" data-originx="center" data-originy="center"></path></clipPath><path d="M 168.74 82.79 L 192.42 82.79 L 192.42 286.3 L 317.85 286.3 L 317.85 306.79 L 168.74 306.79 L 168.74 82.79 z" stroke="none" stroke-opacity="0" stroke-width="0" stroke-dasharray="none" stroke-dashoffset="0" stroke-linecap="square" stroke-linejoin="miter" stroke-miterlimit="10" fill="#111c28" fill-opacity="1" fill-rule="nonzero" opacity="1" transform=" translate(-243.3, -194.79)" class="MIyLwCIT_15"></path></g><g transform="matrix(1 0 0 1 91.84 -23.18)" class="wpgraphicator-path-dshtg0m351gel9leax4r" data-opacity="1" clip-path="url(#WPG_CLIPPATH_ID-rupgf8qe3uq108c3qjeid)"><clipPath id="WPG_CLIPPATH_ID-rupgf8qe3uq108c3qjeid"><path d="M 0 0 L 960 0 L 960 540 L 0 540 L 0 0 z" transform="matrix(1 0 0 1 -91.84 40.71) translate(-480, -270)" class="wpgraphicator-path-s9i0ku11xn6yoihbqi8fd MIyLwCIT_16" data-top="40.71" data-left="-91.84" data-angle="0" data-scalex="1" data-scaley="1" data-skewx="0" data-skewy="0" data-originx="center" data-originy="center"></path></clipPath><path d="M 335.15 199.19 L 366.33 199.19 L 366.33 306.79 L 335.15 306.79 L 335.15 199.19 z M 350.74 184.19 Q 342.15 184.19 336.74 179.19 Q 331.33 174.19 331.33 166.79 Q 331.33 159.38 336.74 154.38 Q 342.15 149.38 350.74 149.38 Q 359.33 149.38 364.74 154.19 Q 370.15 158.99 370.15 166.19 Q 370.15 173.99 364.74 179.1 Q 359.33 184.19 350.74 184.19 z M 471.74 164.38 Q 496.74 164.38 510.74 180.08 Q 524.74 195.79 524.74 224.79 L 524.74 306.79 L 492.35 306.79 L 492.35 225.79 Q 492.35 208.99 484.44 200.49 Q 476.53 191.99 462.53 191.99 Q 447.74 191.99 438.83 201.1 Q 429.94 210.19 429.94 227.99 L 429.94 306.79 L 397.53 306.79 L 397.53 166.79 L 428.94 166.79 L 428.94 183.79 Q 436.14 174.19 446.94 169.29 Q 457.74 164.38 471.74 164.38 z M 671.14 294.79 Q 661.14 301.58 646.03 305.4 Q 630.94 309.19 613.94 309.19 Q 592.73 309.19 577.94 303.9 Q 563.14 298.58 555.53 289.08 Q 547.94 279.58 547.94 267.38 Q 547.94 256.19 554.14 247.6 Q 560.34 238.99 571.14 234.79 Q 562.94 230.38 558.44 222.79 Q 553.94 215.19 553.94 205.79 Q 553.94 194.38 560.94 184.99 Q 567.94 175.58 582.14 169.99 Q 596.34 164.38 616.94 164.38 Q 630.55 164.38 643.55 167.08 Q 656.55 169.79 666.14 174.38 L 657.14 199.19 Q 638.73 190.58 618.14 190.58 Q 602.55 190.58 594.64 195.29 Q 586.73 199.99 586.73 207.99 Q 586.73 215.38 592.03 219.29 Q 597.34 223.19 608.14 223.19 L 646.34 223.19 L 646.34 248.79 L 606.14 248.79 Q 593.94 248.79 587.33 252.99 Q 580.73 257.19 580.73 265.19 Q 580.73 273.58 589.23 278.29 Q 597.73 282.99 615.34 282.99 Q 627.73 282.99 640.14 279.69 Q 652.55 276.38 661.14 270.38 L 671.14 294.79 z M 748.13 164.38 Q 767.54 164.38 781.93 171.99 Q 796.34 179.58 804.34 194.4 Q 812.34 209.19 812.34 230.19 L 812.34 306.79 L 779.95 306.79 L 779.95 273.19 L 715.95 273.19 L 715.95 306.79 L 683.95 306.79 L 683.95 230.19 Q 683.95 209.19 691.95 194.4 Q 699.95 179.58 714.34 171.99 Q 728.74 164.38 748.13 164.38 z M 779.95 247.19 L 779.95 227.19 Q 779.95 209.79 771.34 200.9 Q 762.74 191.99 747.95 191.99 Q 732.95 191.99 724.45 200.9 Q 715.95 209.79 715.95 227.19 L 715.95 247.19 L 779.95 247.19 z" stroke="none" stroke-opacity="0" stroke-width="0" stroke-dasharray="none" stroke-dashoffset="0" stroke-linecap="square" stroke-linejoin="miter" stroke-miterlimit="10" fill="#111c28" fill-opacity="1" fill-rule="nonzero" opacity="1" transform=" translate(-571.84, -229.29)" class="MIyLwCIT_17"></path></g><g transform="matrix(1 0 0 1 2.29 111.66)" class="wpgraphicator-path-61w52h0ockr4ds4k31156" data-opacity="1" clip-path="url(#WPG_CLIPPATH_ID-93wrxid7su9xltuu1jhk)"><clipPath id="WPG_CLIPPATH_ID-93wrxid7su9xltuu1jhk"><path d="M 0 0 L 960 0 L 960 540 L 0 540 L 0 0 z" transform="matrix(1 0 0 1 -2.29 -94.12) translate(-480, -270)" class="wpgraphicator-path-11whaniajd31iafxou7ek MIyLwCIT_18" data-top="-94.12" data-left="-2.29" data-angle="0" data-scalex="1" data-scaley="1" data-skewx="0" data-skewy="0" data-originx="center" data-originy="center"></path></clipPath><path d="M 187.12 320.23 Q 197.69 320.23 205.73 324.45 Q 213.78 328.65 218.2 336.71 Q 222.64 344.76 222.64 356.07 L 222.64 396.39 L 201.51 396.39 L 201.51 379.86 L 172.4 379.86 L 172.4 396.39 L 151.61 396.39 L 151.61 356.07 Q 151.61 344.76 156.03 336.71 Q 160.45 328.65 168.5 324.45 Q 176.56 320.23 187.12 320.23 z M 201.51 363.54 L 201.51 354.26 Q 201.51 346.04 197.56 341.89 Q 193.62 337.73 187.01 337.73 Q 180.3 337.73 176.34 341.89 Q 172.4 346.04 172.4 354.26 L 172.4 363.54 L 201.51 363.54 z M 279.39 320.23 Q 292.71 320.23 300.07 328.71 Q 307.43 337.2 307.43 352.87 L 307.43 396.39 L 286.31 396.39 L 286.31 353.51 Q 286.31 345.62 282.73 341.68 Q 279.17 337.73 272.76 337.73 Q 266.15 337.73 262.09 341.95 Q 258.04 346.15 258.04 354.57 L 258.04 396.39 L 236.93 396.39 L 236.93 321.73 L 257.4 321.73 L 257.4 330.26 Q 264.98 320.23 279.39 320.23 z M 356.6 320.23 Q 367.16 320.23 375.21 324.45 Q 383.26 328.65 387.68 336.71 Q 392.12 344.76 392.12 356.07 L 392.12 396.39 L 370.99 396.39 L 370.99 379.86 L 341.88 379.86 L 341.88 396.39 L 321.08 396.39 L 321.08 356.07 Q 321.08 344.76 325.51 336.71 Q 329.93 328.65 337.98 324.45 Q 346.04 320.23 356.6 320.23 z M 370.99 363.54 L 370.99 354.26 Q 370.99 346.04 367.04 341.89 Q 363.1 337.73 356.49 337.73 Q 349.77 337.73 345.82 341.89 Q 341.88 346.04 341.88 354.26 L 341.88 363.54 L 370.99 363.54 z M 406.41 321.73 L 427.52 321.73 L 427.52 379.64 L 463.14 379.64 L 463.14 396.39 L 406.41 396.39 L 406.41 321.73 z M 538.45 321.73 L 538.45 372.39 Q 538.45 383.7 533.97 391.75 Q 529.48 399.79 521.22 403.9 Q 512.95 408.01 501.66 408.01 Q 491.73 408.01 483.67 405.5 Q 475.62 403 469.87 398.42 L 477.76 383.17 Q 482.87 386.89 488.73 388.81 Q 494.61 390.73 500.8 390.73 Q 509.33 390.73 513.33 386.57 Q 517.33 382.42 517.33 373.56 L 517.33 370.15 Q 510.19 378.79 497.17 378.79 Q 483.09 378.79 475.51 370.75 Q 467.95 362.68 467.95 347.65 L 467.95 321.73 L 489.06 321.73 L 489.06 346.26 Q 489.06 353.82 492.53 357.62 Q 496 361.4 502.61 361.4 Q 509.33 361.4 513.33 357.46 Q 517.33 353.51 517.33 345.2 L 517.33 321.73 L 538.45 321.73 z M 610.12 345.2 Q 600.74 339.96 591.02 338.26 L 591.02 396.39 L 569.91 396.39 L 569.91 338.26 Q 559.99 339.96 550.82 345.2 L 543.77 329.84 Q 551.57 325.14 561.01 322.68 Q 570.45 320.23 580.48 320.23 Q 590.49 320.23 599.93 322.68 Q 609.37 325.14 617.16 329.84 L 610.12 345.2 z M 652.89 338.04 L 652.89 380.07 L 664.95 380.07 L 664.95 396.39 L 619.62 396.39 L 619.62 380.07 L 631.78 380.07 L 631.78 338.04 L 619.62 338.04 L 619.62 321.73 L 664.95 321.73 L 664.95 338.04 L 652.89 338.04 z M 713.04 397.89 Q 701.31 397.89 691.98 392.93 Q 682.65 387.96 677.31 379.12 Q 671.98 370.26 671.98 359.06 Q 671.98 347.86 677.31 339.01 Q 682.65 330.15 691.98 325.2 Q 701.31 320.23 713.04 320.23 Q 723.28 320.23 731.5 323.86 Q 739.71 327.48 745.15 334.31 L 731.71 346.46 Q 724.45 337.73 714.1 337.73 Q 708.03 337.73 703.28 340.4 Q 698.54 343.06 695.92 347.92 Q 693.31 352.76 693.31 359.06 Q 693.31 365.36 695.92 370.21 Q 698.54 375.06 703.28 377.73 Q 708.03 380.39 714.1 380.39 Q 724.45 380.39 731.71 371.64 L 745.15 383.81 Q 739.71 390.62 731.5 394.26 Q 723.28 397.89 713.04 397.89 z M 779.92 397.89 Q 770.85 397.89 762.32 395.65 Q 753.79 393.4 748.45 389.67 L 755.39 374.09 Q 760.4 377.4 767.01 379.43 Q 773.62 381.45 780.03 381.45 Q 792.18 381.45 792.18 375.37 Q 792.18 372.17 788.71 370.64 Q 785.25 369.09 777.57 367.37 Q 769.15 365.56 763.5 363.48 Q 757.84 361.4 753.78 356.82 Q 749.73 352.23 749.73 344.45 Q 749.73 337.62 753.46 332.14 Q 757.2 326.64 764.6 323.43 Q 772.03 320.23 782.79 320.23 Q 790.15 320.23 797.29 321.89 Q 804.45 323.54 809.89 326.75 L 803.39 342.42 Q 792.71 336.65 782.68 336.65 Q 776.4 336.65 773.51 338.53 Q 770.64 340.39 770.64 343.37 Q 770.64 346.37 774.04 347.87 Q 777.46 349.36 785.04 350.95 Q 793.57 352.76 799.17 354.84 Q 804.76 356.92 808.87 361.46 Q 812.98 366 812.98 373.78 Q 812.98 380.5 809.25 385.93 Q 805.51 391.37 798.04 394.64 Q 790.59 397.89 779.92 397.89 z" stroke="none" stroke-opacity="0" stroke-width="0" stroke-dasharray="none" stroke-dashoffset="0" stroke-linecap="square" stroke-linejoin="miter" stroke-miterlimit="10" fill="#29caab" fill-opacity="1" fill-rule="nonzero" opacity="1" transform=" translate(-482.29, -364.12)" class="MIyLwCIT_19"></path></g><g transform="matrix(1 0 0 1 -129.19 -85.07)" class="wpgraphicator-path-sbb86ednmm3b4abdo9ue" data-opacity="1" clip-path="url(#WPG_CLIPPATH_ID-ox11wjigoywxye7rim5ji)"><clipPath id="WPG_CLIPPATH_ID-ox11wjigoywxye7rim5ji"><path d="M 0 0 L 960 0 L 960 540 L 0 540 L 0 0 z" transform="matrix(1 0 0 1 129.19 102.61) translate(-480, -270)" class="wpgraphicator-path-7sgmr10lnsev3fk11o91010x MIyLwCIT_20" data-top="102.61" data-left="129.19" data-angle="0" data-scalex="1" data-scaley="1" data-skewx="0" data-skewy="0" data-originx="center" data-originy="center"></path></clipPath><path d="M 330.45 167.39 L 330.45 167.39 C 330.45 156.96 339.57 148.51 350.81 148.51 L 350.81 148.51 C 362.06 148.51 371.18 156.96 371.18 167.39 L 371.18 167.39 C 371.18 177.82 362.06 186.27 350.81 186.27 L 350.81 186.27 C 339.57 186.27 330.45 177.82 330.45 167.39 z" stroke="none" stroke-opacity="0" stroke-width="0" stroke-dasharray="none" stroke-dashoffset="0" stroke-linecap="square" stroke-linejoin="miter" stroke-miterlimit="10" fill="#ff0061" fill-opacity="1" fill-rule="evenodd" opacity="1" transform=" translate(-350.81, -167.39)" class="MIyLwCIT_21"></path></g></g></g></g></g></g></g></g></g><g class="wpgraphicator-group-ra30xm2027xqh8r10511k11-top" style="transform:translateY(351.79px)"><g class="wpgraphicator-group-ra30xm2027xqh8r10511k11-left" style="transform:translateX(307.67px)"><g class="wpgraphicator-group-ra30xm2027xqh8r10511k11-angle" style="transform:rotate(0deg)"><g class="wpgraphicator-group-ra30xm2027xqh8r10511k11-scaleY" style="transform:scaleY(1.21)"><g class="wpgraphicator-group-ra30xm2027xqh8r10511k11-scaleX" style="transform:scaleX(1.21)"><g class="wpgraphicator-group-ra30xm2027xqh8r10511k11-skewY" style="transform:skewY(0deg)"><g class="wpgraphicator-group-ra30xm2027xqh8r10511k11-skewX" style="transform:skewX(0deg)"><g class="wpgraphicator-group-ra30xm2027xqh8r10511k11"><g transform="matrix(1 0 0 1 0 -2.47)" class="wpgraphicator-path-13y5exsx13hswqgbfg0g" data-opacity="1" clip-path="url(#WPG_CLIPPATH_ID-bbchqe5wkodfh1rjvh6o)"><clipPath id="WPG_CLIPPATH_ID-bbchqe5wkodfh1rjvh6o"><path d="M 0 0 L 960 0 L 960 540 L 0 540 L 0 0 z" transform="matrix(1 0 0 1 -31.77 2.47) translate(-480, -270)" class="wpgraphicator-path-5kvn761bgt9ms09n2upu MIyLwCIT_22" data-top="2.47" data-left="-31.77" data-angle="0" data-scalex="1" data-scaley="1" data-skewx="0" data-skewy="0" data-originx="center" data-originy="center"></path></clipPath><path d="M 236.1 164.24 L 236.1 164.24 C 323.99 100.99 479.78 80.04 610.52 113.89 C 741.26 147.73 811.7 227.25 779.82 305 C 747.93 382.75 622.32 437.77 477.93 437.23 L 480 267.53 z" stroke="none" stroke-opacity="0" stroke-width="0" stroke-dasharray="none" stroke-dashoffset="0" stroke-linecap="square" stroke-linejoin="miter" stroke-miterlimit="10" fill="rgb(0,0,0)" fill-opacity="0" fill-rule="evenodd" opacity="1" transform=" translate(-511.77, -267.53)" class="MIyLwCIT_23"></path></g><g transform="matrix(1 0 0 1 0 -2.47)" class="wpgraphicator-path-vyjlhcqu41kss3sj7a61" data-opacity="1" clip-path="url(#WPG_CLIPPATH_ID-ghej0e11xrip8hcyng8tl)"><clipPath id="WPG_CLIPPATH_ID-ghej0e11xrip8hcyng8tl"><path d="M 0 0 L 960 0 L 960 540 L 0 540 L 0 0 z" transform="matrix(1 0 0 1 -31.77 2.47) translate(-480, -270)" class="wpgraphicator-path-p11pauwg4f28adi5l63it MIyLwCIT_24" data-top="2.47" data-left="-31.77" data-angle="0" data-scalex="1" data-scaley="1" data-skewx="0" data-skewy="0" data-originx="center" data-originy="center"></path></clipPath><path d="M 236.1 164.24 L 236.1 164.24 C 323.99 100.99 479.78 80.04 610.52 113.89 C 741.26 147.73 811.7 227.25 779.82 305 C 747.93 382.75 622.32 437.77 477.93 437.23" stroke="none" stroke-opacity="0" stroke-width="0" stroke-dasharray="none" stroke-dashoffset="0" stroke-linecap="square" stroke-linejoin="miter" stroke-miterlimit="10" fill="rgb(0,0,0)" fill-opacity="0" fill-rule="evenodd" opacity="1" transform=" translate(-511.77, -267.53)" class="MIyLwCIT_25"></path></g><g transform="matrix(1 0 0 1 0 -2.47)" class="wpgraphicator-path-090s8c1cdogbbw7nbba9" data-opacity="1" clip-path="url(#WPG_CLIPPATH_ID-lgnkcfjwgio8jeck6lgy)"><clipPath id="WPG_CLIPPATH_ID-lgnkcfjwgio8jeck6lgy"><path d="M 0 0 L 960 0 L 960 540 L 0 540 L 0 0 z" transform="matrix(1 0 0 1 -31.77 2.47) translate(-480, -270)" class="wpgraphicator-path-107g127sgv8xf10vvyqew MIyLwCIT_26" data-top="2.47" data-left="-31.77" data-angle="0" data-scalex="1" data-scaley="1" data-skewx="0" data-skewy="0" data-originx="center" data-originy="center"></path></clipPath><path d="M 236.1 164.24 L 236.1 164.24 C 323.99 100.99 479.78 80.04 610.52 113.89 C 741.26 147.73 811.7 227.25 779.82 305 C 747.93 382.75 622.32 437.77 477.93 437.23" stroke="#29caab" stroke-opacity="1" stroke-width="4" stroke-dasharray="none" stroke-dashoffset="0" stroke-linecap="butt" stroke-linejoin="round" stroke-miterlimit="10" fill="none" fill-opacity="0" fill-rule="evenodd" opacity="1" transform=" translate(-511.77, -267.53)" class="MIyLwCIT_27"></path></g><g transform="matrix(1 0 0 1 -29.39 166.94)" class="wpgraphicator-path-q6iimcfbm2j4wyfh5v4b" data-opacity="1" clip-path="url(#WPG_CLIPPATH_ID-l0rkhwid5sbl7yj4e9de)"><clipPath id="WPG_CLIPPATH_ID-l0rkhwid5sbl7yj4e9de"><path d="M 0 0 L 960 0 L 960 540 L 0 540 L 0 0 z" transform="matrix(1 0 0 1 -2.38 -166.94) translate(-480, -270)" class="wpgraphicator-path-399txb11ogobu5ncb11n3w MIyLwCIT_28" data-top="-166.94" data-left="-2.38" data-angle="0" data-scalex="1" data-scaley="1" data-skewx="0" data-skewy="0" data-originx="center" data-originy="center"></path></clipPath><path d="M 468.57 436.94 L 468.57 436.94 C 468.57 429.64 474.75 423.71 482.38 423.71 L 482.38 423.71 C 486.04 423.71 489.56 425.11 492.15 427.59 C 494.74 430.07 496.19 433.43 496.19 436.94 L 496.19 436.94 C 496.19 444.25 490.01 450.17 482.38 450.17 L 482.38 450.17 C 474.75 450.17 468.57 444.25 468.57 436.94 z" stroke="none" stroke-opacity="0" stroke-width="0" stroke-dasharray="none" stroke-dashoffset="0" stroke-linecap="square" stroke-linejoin="miter" stroke-miterlimit="10" fill="#ff0061" fill-opacity="1" fill-rule="evenodd" opacity="1" transform=" translate(-482.38, -436.94)" class="MIyLwCIT_29"></path></g><g transform="matrix(1 0 0 1 17.94 -0.23)" class="wpgraphicator-path-toy11egapu0r10hkujm1b5" data-opacity="1" clip-path="url(#WPG_CLIPPATH_ID-wy6l50i1hrxsw3e3r0cf)"><clipPath id="WPG_CLIPPATH_ID-wy6l50i1hrxsw3e3r0cf"><path d="M 0 0 L 960 0 L 960 540 L 0 540 L 0 0 z" transform="matrix(1 0 0 1 -49.7 0.23) translate(-480, -270)" class="wpgraphicator-path-ku115brucwcwf3iwv5elh MIyLwCIT_30" data-top="0.23" data-left="-49.7" data-angle="0" data-scalex="1" data-scaley="1" data-skewx="0" data-skewy="0" data-originx="center" data-originy="center"></path></clipPath><path d="M 289.45 89.83 L 769.96 89.83 L 769.96 449.7 L 289.45 449.7 z" stroke="none" stroke-opacity="0" stroke-width="0" stroke-dasharray="none" stroke-dashoffset="0" stroke-linecap="square" stroke-linejoin="miter" stroke-miterlimit="10" fill="rgb(0,0,0)" fill-opacity="0" fill-rule="evenodd" opacity="1" transform=" translate(-529.7, -269.77)" class="MIyLwCIT_31"></path></g><g transform="matrix(1 0 0 1 -183.2 -92.88)" class="wpgraphicator-path-mhahlvcing114bw85dnpo" data-opacity="1" clip-path="url(#WPG_CLIPPATH_ID-8c90m0bq145frcg6qnsg)"><clipPath id="WPG_CLIPPATH_ID-8c90m0bq145frcg6qnsg"><path d="M 0 0 L 960 0 L 960 540 L 0 540 L 0 0 z" transform="matrix(1 0 0 1 151.43 92.88) translate(-480, -270)" class="wpgraphicator-path-bw0t4e2u2l4buh0godtu MIyLwCIT_32" data-top="92.88" data-left="151.43" data-angle="0" data-scalex="1" data-scaley="1" data-skewx="0" data-skewy="0" data-originx="center" data-originy="center"></path></clipPath><path d="M 308.03 189.61 L 299.61 164.4 L 303.31 164.4 L 311.05 187.67 L 309.19 187.67 L 317.2 164.4 L 320.51 164.4 L 328.37 187.67 L 326.56 187.67 L 334.42 164.4 L 337.84 164.4 L 329.4 189.61 L 325.64 189.61 L 318.3 168.05 L 319.26 168.05 L 311.87 189.61 L 308.03 189.61 z M 348.77 189.83 Q 345.73 189.83 343.4 188.58 Q 341.07 187.31 339.79 185.11 Q 338.52 182.9 338.52 180.06 Q 338.52 177.22 339.76 175.03 Q 341.01 172.83 343.18 171.59 Q 345.37 170.34 348.1 170.34 Q 350.87 170.34 352.99 171.58 Q 355.12 172.8 356.32 175.01 Q 357.52 177.22 357.52 180.17 Q 357.52 180.39 357.51 180.69 Q 357.49 180.97 357.46 181.22 L 341.23 181.22 L 341.23 178.73 L 355.65 178.73 L 354.26 179.59 Q 354.29 177.76 353.49 176.33 Q 352.71 174.89 351.32 174.08 Q 349.93 173.26 348.1 173.26 Q 346.29 173.26 344.88 174.08 Q 343.49 174.89 342.69 176.34 Q 341.9 177.8 341.9 179.67 L 341.9 180.25 Q 341.9 182.15 342.77 183.65 Q 343.66 185.14 345.24 185.97 Q 346.84 186.8 348.88 186.8 Q 350.59 186.8 351.96 186.23 Q 353.35 185.65 354.4 184.5 L 356.3 186.73 Q 355.01 188.23 353.07 189.03 Q 351.15 189.83 348.77 189.83 z" stroke="none" stroke-opacity="0" stroke-width="0" stroke-dasharray="none" stroke-dashoffset="0" stroke-linecap="square" stroke-linejoin="miter" stroke-miterlimit="10" fill="#111c28" fill-opacity="1" fill-rule="nonzero" opacity="1" transform=" translate(-328.57, -177.12)" class="MIyLwCIT_33"></path></g><g transform="matrix(1 0 0 1 -55.42 -90.58)" class="wpgraphicator-path-gdcowafwspvd9hukynb6" data-opacity="1" clip-path="url(#WPG_CLIPPATH_ID-ra107koui64yy26wy992q)"><clipPath id="WPG_CLIPPATH_ID-ra107koui64yy26wy992q"><path d="M 0 0 L 960 0 L 960 540 L 0 540 L 0 0 z" transform="matrix(1 0 0 1 23.65 90.58) translate(-480, -270)" class="wpgraphicator-path-a9ocnh58fadaioyfxuhg MIyLwCIT_34" data-top="90.58" data-left="23.65" data-angle="0" data-scalex="1" data-scaley="1" data-skewx="0" data-skewy="0" data-originx="center" data-originy="center"></path></clipPath><path d="M 385.88 189.97 Q 382.9 189.97 380.65 188.65 Q 378.41 187.33 377.15 184.62 Q 375.9 181.9 375.9 177.76 Q 375.9 173.59 377.08 170.9 Q 378.27 168.22 380.5 166.9 Q 382.75 165.58 385.88 165.58 Q 389.22 165.58 391.88 167.11 Q 394.55 168.62 396.11 171.36 Q 397.68 174.08 397.68 177.76 Q 397.68 181.51 396.11 184.25 Q 394.55 186.97 391.88 188.47 Q 389.22 189.97 385.88 189.97 z M 371.9 198.14 L 371.9 165.94 L 378.44 165.94 L 378.44 170.78 L 378.32 177.81 L 378.75 184.81 L 378.75 198.14 L 371.9 198.14 z M 384.69 184.33 Q 386.41 184.33 387.75 183.55 Q 389.1 182.75 389.91 181.28 Q 390.72 179.8 390.72 177.76 Q 390.72 175.7 389.91 174.25 Q 389.1 172.8 387.75 172.01 Q 386.41 171.22 384.69 171.22 Q 382.97 171.22 381.61 172.01 Q 380.25 172.8 379.46 174.25 Q 378.66 175.7 378.66 177.76 Q 378.66 179.8 379.46 181.28 Q 380.25 182.75 381.61 183.55 Q 382.97 184.33 384.69 184.33 z M 416.37 189.61 L 416.37 184.98 L 415.94 183.98 L 415.94 175.7 Q 415.94 173.5 414.59 172.28 Q 413.25 171.05 410.48 171.05 Q 408.59 171.05 406.77 171.64 Q 404.94 172.23 403.66 173.23 L 401.2 168.45 Q 403.12 167.08 405.86 166.33 Q 408.59 165.58 411.41 165.58 Q 416.81 165.58 419.8 168.14 Q 422.8 170.69 422.8 176.09 L 422.8 189.61 L 416.37 189.61 z M 409.16 189.97 Q 406.39 189.97 404.41 189.01 Q 402.42 188.06 401.36 186.44 Q 400.31 184.81 400.31 182.8 Q 400.31 180.67 401.34 179.09 Q 402.39 177.51 404.62 176.61 Q 406.87 175.7 410.48 175.7 L 416.77 175.7 L 416.77 179.7 L 411.23 179.7 Q 408.81 179.7 407.91 180.5 Q 407 181.3 407 182.48 Q 407 183.8 408.03 184.58 Q 409.08 185.34 410.87 185.34 Q 412.59 185.34 413.95 184.53 Q 415.31 183.72 415.94 182.12 L 416.98 185.3 Q 416.25 187.58 414.27 188.78 Q 412.28 189.97 409.16 189.97 z M 429.01 189.61 L 429.01 165.94 L 435.55 165.94 L 435.55 172.62 L 434.63 170.69 Q 435.69 168.19 438.02 166.89 Q 440.35 165.58 443.69 165.58 L 443.69 171.92 Q 443.26 171.87 442.9 171.86 Q 442.55 171.83 442.16 171.83 Q 439.35 171.83 437.6 173.44 Q 435.87 175.05 435.87 178.44 L 435.87 189.61 L 429.01 189.61 z M 458.3 189.97 Q 454.13 189.97 451.79 187.83 Q 449.46 185.69 449.46 181.47 L 449.46 160.7 L 456.33 160.7 L 456.33 181.37 Q 456.33 182.87 457.12 183.69 Q 457.91 184.5 459.27 184.5 Q 460.9 184.5 462.05 183.62 L 463.9 188.47 Q 462.83 189.22 461.37 189.59 Q 459.9 189.97 458.3 189.97 z M 445.82 171.75 L 445.82 166.47 L 462.22 166.47 L 462.22 171.75 L 445.82 171.75 z M 482.16 165.58 Q 484.97 165.58 487.19 166.7 Q 489.41 167.83 490.69 170.14 Q 491.97 172.45 491.97 176.06 L 491.97 189.61 L 485.1 189.61 L 485.1 177.11 Q 485.1 174.25 483.85 172.89 Q 482.6 171.53 480.3 171.53 Q 478.68 171.53 477.38 172.22 Q 476.08 172.89 475.35 174.3 Q 474.63 175.7 474.63 177.9 L 474.63 189.61 L 467.77 189.61 L 467.77 165.94 L 474.32 165.94 L 474.32 172.5 L 473.08 170.51 Q 474.36 168.14 476.74 166.86 Q 479.11 165.58 482.16 165.58 z M 510.1 189.97 Q 506.05 189.97 502.99 188.39 Q 499.93 186.8 498.26 184.05 Q 496.59 181.3 496.59 177.76 Q 496.59 174.2 498.23 171.45 Q 499.88 168.7 502.74 167.14 Q 505.6 165.58 509.21 165.58 Q 512.69 165.58 515.48 167.06 Q 518.27 168.53 519.9 171.28 Q 521.54 174.03 521.54 177.86 Q 521.54 178.25 521.49 178.76 Q 521.44 179.26 521.4 179.7 L 502.18 179.7 L 502.18 175.7 L 517.79 175.7 L 515.15 176.89 Q 515.15 175.05 514.4 173.69 Q 513.66 172.31 512.34 171.55 Q 511.02 170.78 509.26 170.78 Q 507.49 170.78 506.15 171.55 Q 504.82 172.31 504.07 173.7 Q 503.32 175.09 503.32 176.98 L 503.32 178.03 Q 503.32 179.97 504.18 181.45 Q 505.04 182.92 506.6 183.7 Q 508.16 184.47 510.27 184.47 Q 512.16 184.47 513.59 183.89 Q 515.02 183.31 516.21 182.17 L 519.87 186.14 Q 518.24 187.98 515.77 188.98 Q 513.3 189.97 510.1 189.97 z M 526.12 189.61 L 526.12 165.94 L 532.66 165.94 L 532.66 172.62 L 531.74 170.69 Q 532.8 168.19 535.13 166.89 Q 537.46 165.58 540.8 165.58 L 540.8 171.92 Q 540.37 171.87 540.01 171.86 Q 539.66 171.83 539.27 171.83 Q 536.46 171.83 534.71 173.44 Q 532.97 175.05 532.97 178.44 L 532.97 189.61 L 526.12 189.61 z" stroke="none" stroke-opacity="0" stroke-width="0" stroke-dasharray="none" stroke-dashoffset="0" stroke-linecap="square" stroke-linejoin="miter" stroke-miterlimit="10" fill="#111c28" fill-opacity="1" fill-rule="nonzero" opacity="1" transform=" translate(-456.35, -179.42)" class="MIyLwCIT_35"></path></g><g transform="matrix(1 0 0 1 117.44 -90.42)" class="wpgraphicator-path-quqr11e7iaglwtm10i236v" data-opacity="1" clip-path="url(#WPG_CLIPPATH_ID-fom92sdri7ur7u11p1exh)"><clipPath id="WPG_CLIPPATH_ID-fom92sdri7ur7u11p1exh"><path d="M 0 0 L 960 0 L 960 540 L 0 540 L 0 0 z" transform="matrix(1 0 0 1 -149.21 90.42) translate(-480, -270)" class="wpgraphicator-path-1171jeoiws1uk4345d87t MIyLwCIT_36" data-top="90.42" data-left="-149.21" data-angle="0" data-scalex="1" data-scaley="1" data-skewx="0" data-skewy="0" data-originx="center" data-originy="center"></path></clipPath><path d="M 558.9 189.61 L 551.81 170.53 L 555.08 170.53 L 561.39 187.81 L 559.84 187.81 L 566.39 170.53 L 569.31 170.53 L 575.72 187.81 L 574.2 187.81 L 580.64 170.53 L 583.73 170.53 L 576.61 189.61 L 573.29 189.61 L 567.29 173.84 L 568.29 173.84 L 562.22 189.61 L 558.9 189.61 z M 587.24 189.61 L 587.24 170.53 L 590.69 170.53 L 590.69 189.61 L 587.24 189.61 z M 588.96 166.86 Q 587.96 166.86 587.28 166.22 Q 586.61 165.56 586.61 164.62 Q 586.61 163.65 587.28 163.01 Q 587.96 162.36 588.96 162.36 Q 589.97 162.36 590.63 163 Q 591.3 163.62 591.3 164.55 Q 591.3 165.53 590.64 166.2 Q 590 166.86 588.96 166.86 z M 603.83 189.83 Q 600.95 189.83 599.36 188.28 Q 597.78 186.73 597.78 183.84 L 597.78 166.36 L 601.23 166.36 L 601.23 183.7 Q 601.23 185.25 602 186.08 Q 602.78 186.9 604.22 186.9 Q 605.84 186.9 606.92 186.01 L 608 188.5 Q 607.22 189.17 606.11 189.5 Q 605.01 189.83 603.83 189.83 z M 594.55 173.37 L 594.55 170.53 L 606.7 170.53 L 606.7 173.37 L 594.55 173.37 z M 622.37 170.34 Q 624.7 170.34 626.48 171.25 Q 628.28 172.15 629.28 174 Q 630.29 175.83 630.29 178.62 L 630.29 189.61 L 626.82 189.61 L 626.82 179.03 Q 626.82 176.25 625.48 174.86 Q 624.14 173.45 621.68 173.45 Q 619.84 173.45 618.47 174.17 Q 617.11 174.89 616.37 176.3 Q 615.64 177.69 615.64 179.78 L 615.64 189.61 L 612.18 189.61 L 612.18 162.89 L 615.64 162.89 L 615.64 175.67 L 614.95 174.31 Q 615.89 172.44 617.82 171.39 Q 619.78 170.34 622.37 170.34 z M 647.21 196.81 Q 645.84 196.81 644.54 196.36 Q 643.24 195.9 642.31 195.05 L 643.79 192.45 Q 644.51 193.14 645.37 193.5 Q 646.23 193.86 647.21 193.86 Q 648.46 193.86 649.29 193.2 Q 650.12 192.56 650.84 190.9 L 652.02 188.28 L 652.38 187.84 L 659.88 170.53 L 663.26 170.53 L 654.01 191.51 Q 653.18 193.53 652.15 194.69 Q 651.13 195.84 649.9 196.33 Q 648.68 196.81 647.21 196.81 z M 651.74 190.22 L 643.02 170.53 L 646.63 170.53 L 654.04 187.51 L 651.74 190.22 z M 674.14 189.83 Q 671.25 189.83 669.02 188.58 Q 666.8 187.31 665.5 185.09 Q 664.2 182.87 664.2 180.06 Q 664.2 177.22 665.5 175.03 Q 666.8 172.83 669.02 171.59 Q 671.25 170.34 674.14 170.34 Q 676.98 170.34 679.23 171.59 Q 681.48 172.83 682.75 175.01 Q 684.03 177.19 684.03 180.06 Q 684.03 182.9 682.75 185.11 Q 681.48 187.31 679.23 188.58 Q 676.98 189.83 674.14 189.83 z M 674.14 186.8 Q 675.97 186.8 677.42 185.97 Q 678.89 185.14 679.72 183.61 Q 680.55 182.08 680.55 180.06 Q 680.55 178.01 679.72 176.53 Q 678.89 175.03 677.42 174.2 Q 675.97 173.37 674.14 173.37 Q 672.3 173.37 670.86 174.2 Q 669.42 175.03 668.55 176.53 Q 667.69 178.01 667.69 180.06 Q 667.69 182.08 668.55 183.61 Q 669.42 185.14 670.86 185.97 Q 672.3 186.8 674.14 186.8 z M 696.84 189.83 Q 694.41 189.83 692.55 188.94 Q 690.69 188.03 689.66 186.17 Q 688.64 184.31 688.64 181.51 L 688.64 170.53 L 692.09 170.53 L 692.09 181.11 Q 692.09 183.92 693.44 185.33 Q 694.8 186.73 697.25 186.73 Q 699.05 186.73 700.38 186 Q 701.7 185.25 702.42 183.83 Q 703.16 182.4 703.16 180.39 L 703.16 170.53 L 706.61 170.53 L 706.61 189.61 L 703.33 189.61 L 703.33 184.47 L 703.88 185.83 Q 702.94 187.73 701.06 188.78 Q 699.19 189.83 696.84 189.83 z" stroke="none" stroke-opacity="0" stroke-width="0" stroke-dasharray="none" stroke-dashoffset="0" stroke-linecap="square" stroke-linejoin="miter" stroke-miterlimit="10" fill="#111c28" fill-opacity="1" fill-rule="nonzero" opacity="1" transform=" translate(-629.21, -179.58)" class="MIyLwCIT_37"></path></g><g transform="matrix(1 0 0 1 2.99 -45.3)" class="wpgraphicator-path-11b6oct07tgvnmtpqs11jt" data-opacity="1" clip-path="url(#WPG_CLIPPATH_ID-6jeh900y3q64or0j8oe10)"><clipPath id="WPG_CLIPPATH_ID-6jeh900y3q64or0j8oe10"><path d="M 0 0 L 960 0 L 960 540 L 0 540 L 0 0 z" transform="matrix(1 0 0 1 -34.75 45.3) translate(-480, -270)" class="wpgraphicator-path-1t1b3bn6aowpa10311pc0u MIyLwCIT_38" data-top="45.3" data-left="-34.75" data-angle="0" data-scalex="1" data-scaley="1" data-skewx="0" data-skewy="0" data-originx="center" data-originy="center"></path></clipPath><path d="M 313.58 234.73 L 313.58 230.7 L 313.39 229.95 L 313.39 223.07 Q 313.39 220.87 312.11 219.67 Q 310.84 218.46 308.28 218.46 Q 306.59 218.46 304.97 219.02 Q 303.34 219.57 302.23 220.51 L 300.8 217.92 Q 302.26 216.73 304.33 216.1 Q 306.4 215.46 308.67 215.46 Q 312.59 215.46 314.72 217.38 Q 316.84 219.29 316.84 223.21 L 316.84 234.73 L 313.58 234.73 z M 307.31 234.95 Q 305.19 234.95 303.58 234.23 Q 301.98 233.51 301.11 232.23 Q 300.25 230.95 300.25 229.32 Q 300.25 227.77 300.98 226.52 Q 301.73 225.26 303.4 224.51 Q 305.08 223.74 307.92 223.74 L 313.97 223.74 L 313.97 226.23 L 308.06 226.23 Q 305.47 226.23 304.56 227.1 Q 303.67 227.96 303.67 229.18 Q 303.67 230.59 304.78 231.43 Q 305.9 232.27 307.89 232.27 Q 309.83 232.27 311.28 231.42 Q 312.75 230.56 313.39 228.9 L 314.08 231.27 Q 313.39 232.96 311.65 233.96 Q 309.94 234.95 307.31 234.95 z M 333.45 215.46 Q 335.78 215.46 337.56 216.37 Q 339.35 217.27 340.35 219.12 Q 341.37 220.95 341.37 223.74 L 341.37 234.73 L 337.9 234.73 L 337.9 224.15 Q 337.9 221.37 336.56 219.98 Q 335.21 218.57 332.76 218.57 Q 330.92 218.57 329.54 219.29 Q 328.18 220.01 327.45 221.42 Q 326.71 222.81 326.71 224.9 L 326.71 234.73 L 323.26 234.73 L 323.26 215.65 L 326.57 215.65 L 326.57 220.79 L 326.03 219.43 Q 326.96 217.56 328.9 216.51 Q 330.85 215.46 333.45 215.46 z M 355.65 234.95 Q 352.89 234.95 350.7 233.73 Q 348.53 232.49 347.26 230.31 Q 346.01 228.1 346.01 225.18 Q 346.01 222.27 347.26 220.1 Q 348.53 217.92 350.7 216.7 Q 352.89 215.46 355.65 215.46 Q 358.07 215.46 360.01 216.56 Q 361.95 217.63 363.12 219.79 Q 364.29 221.95 364.29 225.18 Q 364.29 228.43 363.15 230.59 Q 362.03 232.74 360.07 233.85 Q 358.14 234.95 355.65 234.95 z M 355.95 231.92 Q 357.75 231.92 359.2 231.09 Q 360.65 230.26 361.5 228.73 Q 362.35 227.2 362.35 225.18 Q 362.35 223.13 361.5 221.65 Q 360.65 220.15 359.2 219.32 Q 357.75 218.49 355.95 218.49 Q 354.1 218.49 352.67 219.32 Q 351.23 220.15 350.35 221.65 Q 349.5 223.13 349.5 225.18 Q 349.5 227.2 350.35 228.73 Q 351.23 230.26 352.67 231.09 Q 354.1 231.92 355.95 231.92 z M 362.46 234.73 L 362.46 229.59 L 362.68 225.15 L 362.31 220.73 L 362.31 208.01 L 365.78 208.01 L 365.78 234.73 L 362.46 234.73 z M 382.84 241.93 Q 381.47 241.93 380.17 241.48 Q 378.87 241.02 377.93 240.17 L 379.42 237.57 Q 380.14 238.26 381 238.62 Q 381.86 238.98 382.84 238.98 Q 384.09 238.98 384.92 238.32 Q 385.75 237.68 386.47 236.02 L 387.65 233.4 L 388.01 232.96 L 395.51 215.65 L 398.89 215.65 L 389.64 236.63 Q 388.81 238.65 387.78 239.81 Q 386.76 240.96 385.53 241.45 Q 384.31 241.93 382.84 241.93 z M 387.37 235.34 L 378.65 215.65 L 382.26 215.65 L 389.67 232.63 L 387.37 235.34 z M 409.77 234.95 Q 406.88 234.95 404.64 233.7 Q 402.42 232.43 401.13 230.21 Q 399.83 227.99 399.83 225.18 Q 399.83 222.34 401.13 220.15 Q 402.42 217.95 404.64 216.71 Q 406.88 215.46 409.77 215.46 Q 412.61 215.46 414.86 216.71 Q 417.11 217.95 418.38 220.13 Q 419.66 222.31 419.66 225.18 Q 419.66 228.02 418.38 230.23 Q 417.11 232.43 414.86 233.7 Q 412.61 234.95 409.77 234.95 z M 409.77 231.92 Q 411.6 231.92 413.05 231.09 Q 414.52 230.26 415.35 228.73 Q 416.17 227.2 416.17 225.18 Q 416.17 223.13 415.35 221.65 Q 414.52 220.15 413.05 219.32 Q 411.6 218.49 409.77 218.49 Q 407.92 218.49 406.49 219.32 Q 405.05 220.15 404.17 221.65 Q 403.32 223.13 403.32 225.18 Q 403.32 227.2 404.17 228.73 Q 405.05 230.26 406.49 231.09 Q 407.92 231.92 409.77 231.92 z M 432.47 234.95 Q 430.03 234.95 428.18 234.06 Q 426.32 233.15 425.28 231.29 Q 424.27 229.43 424.27 226.63 L 424.27 215.65 L 427.72 215.65 L 427.72 226.23 Q 427.72 229.04 429.07 230.45 Q 430.43 231.85 432.88 231.85 Q 434.68 231.85 436 231.12 Q 437.33 230.37 438.05 228.95 Q 438.78 227.52 438.78 225.51 L 438.78 215.65 L 442.24 215.65 L 442.24 234.73 L 438.96 234.73 L 438.96 229.59 L 439.5 230.95 Q 438.57 232.85 436.69 233.9 Q 434.82 234.95 432.47 234.95 z M 448.83 234.73 L 448.83 215.65 L 452.14 215.65 L 452.14 220.84 L 451.81 219.54 Q 452.61 217.56 454.47 216.51 Q 456.34 215.46 459.08 215.46 L 459.08 218.82 Q 458.86 218.77 458.66 218.77 Q 458.47 218.77 458.3 218.77 Q 455.52 218.77 453.89 220.43 Q 452.28 222.09 452.28 225.23 L 452.28 234.73 L 448.83 234.73 z M 497.13 215.46 Q 499.44 215.46 501.19 216.37 Q 502.96 217.27 503.94 219.12 Q 504.94 220.95 504.94 223.74 L 504.94 234.73 L 501.49 234.73 L 501.49 224.15 Q 501.49 221.37 500.19 219.98 Q 498.9 218.57 496.55 218.57 Q 494.84 218.57 493.54 219.29 Q 492.24 220.01 491.54 221.42 Q 490.84 222.81 490.84 224.9 L 490.84 234.73 L 487.38 234.73 L 487.38 224.15 Q 487.38 221.37 486.1 219.98 Q 484.82 218.57 482.44 218.57 Q 480.76 218.57 479.46 219.29 Q 478.16 220.01 477.44 221.42 Q 476.73 222.81 476.73 224.9 L 476.73 234.73 L 473.27 234.73 L 473.27 215.65 L 476.59 215.65 L 476.59 220.73 L 476.04 219.43 Q 476.94 217.56 478.8 216.51 Q 480.68 215.46 483.16 215.46 Q 485.9 215.46 487.88 216.82 Q 489.87 218.17 490.48 220.9 L 489.07 220.32 Q 489.93 218.13 492.09 216.81 Q 494.26 215.46 497.13 215.46 z M 519.81 234.95 Q 516.76 234.95 514.43 233.7 Q 512.11 232.43 510.82 230.23 Q 509.56 228.02 509.56 225.18 Q 509.56 222.34 510.79 220.15 Q 512.04 217.95 514.22 216.71 Q 516.4 215.46 519.14 215.46 Q 521.9 215.46 524.03 216.7 Q 526.15 217.92 527.36 220.13 Q 528.56 222.34 528.56 225.29 Q 528.56 225.51 528.54 225.81 Q 528.53 226.09 528.5 226.34 L 512.26 226.34 L 512.26 223.85 L 526.68 223.85 L 525.29 224.71 Q 525.32 222.88 524.53 221.45 Q 523.75 220.01 522.36 219.2 Q 520.97 218.38 519.14 218.38 Q 517.32 218.38 515.92 219.2 Q 514.53 220.01 513.73 221.46 Q 512.93 222.92 512.93 224.79 L 512.93 225.37 Q 512.93 227.27 513.81 228.77 Q 514.7 230.26 516.28 231.09 Q 517.87 231.92 519.92 231.92 Q 521.62 231.92 523 231.35 Q 524.39 230.77 525.43 229.62 L 527.34 231.85 Q 526.04 233.35 524.11 234.15 Q 522.18 234.95 519.81 234.95 z M 541.23 234.95 Q 538.47 234.95 536.28 233.73 Q 534.11 232.49 532.84 230.31 Q 531.59 228.1 531.59 225.18 Q 531.59 222.27 532.84 220.1 Q 534.11 217.92 536.28 216.7 Q 538.47 215.46 541.23 215.46 Q 543.65 215.46 545.59 216.56 Q 547.53 217.63 548.7 219.79 Q 549.87 221.95 549.87 225.18 Q 549.87 228.43 548.73 230.59 Q 547.61 232.74 545.65 233.85 Q 543.72 234.95 541.23 234.95 z M 541.53 231.92 Q 543.33 231.92 544.78 231.09 Q 546.23 230.26 547.08 228.73 Q 547.93 227.2 547.93 225.18 Q 547.93 223.13 547.08 221.65 Q 546.23 220.15 544.78 219.32 Q 543.33 218.49 541.53 218.49 Q 539.68 218.49 538.25 219.32 Q 536.81 220.15 535.93 221.65 Q 535.08 223.13 535.08 225.18 Q 535.08 227.2 535.93 228.73 Q 536.81 230.26 538.25 231.09 Q 539.68 231.92 541.53 231.92 z M 548.04 234.73 L 548.04 229.59 L 548.26 225.15 L 547.89 220.73 L 547.89 208.01 L 551.36 208.01 L 551.36 234.73 L 548.04 234.73 z M 557.91 234.73 L 557.91 215.65 L 561.36 215.65 L 561.36 234.73 L 557.91 234.73 z M 559.63 211.98 Q 558.63 211.98 557.96 211.34 Q 557.28 210.68 557.28 209.74 Q 557.28 208.77 557.96 208.13 Q 558.63 207.48 559.63 207.48 Q 560.64 207.48 561.3 208.12 Q 561.97 208.74 561.97 209.67 Q 561.97 210.65 561.32 211.32 Q 560.67 211.98 559.63 211.98 z M 579.8 234.73 L 579.8 230.7 L 579.61 229.95 L 579.61 223.07 Q 579.61 220.87 578.33 219.67 Q 577.06 218.46 574.5 218.46 Q 572.81 218.46 571.19 219.02 Q 569.56 219.57 568.45 220.51 L 567.02 217.92 Q 568.48 216.73 570.55 216.1 Q 572.62 215.46 574.89 215.46 Q 578.81 215.46 580.94 217.38 Q 583.06 219.29 583.06 223.21 L 583.06 234.73 L 579.8 234.73 z M 573.53 234.95 Q 571.41 234.95 569.8 234.23 Q 568.2 233.51 567.33 232.23 Q 566.47 230.95 566.47 229.32 Q 566.47 227.77 567.2 226.52 Q 567.95 225.26 569.62 224.51 Q 571.3 223.74 574.14 223.74 L 580.19 223.74 L 580.19 226.23 L 574.28 226.23 Q 571.69 226.23 570.78 227.1 Q 569.89 227.96 569.89 229.18 Q 569.89 230.59 571 231.43 Q 572.12 232.27 574.11 232.27 Q 576.05 232.27 577.5 231.42 Q 578.97 230.56 579.61 228.9 L 580.3 231.27 Q 579.61 232.96 577.87 233.96 Q 576.16 234.95 573.53 234.95 z M 611.01 234.73 L 611.01 230.7 L 610.82 229.95 L 610.82 223.07 Q 610.82 220.87 609.54 219.67 Q 608.27 218.46 605.71 218.46 Q 604.02 218.46 602.4 219.02 Q 600.77 219.57 599.66 220.51 L 598.23 217.92 Q 599.7 216.73 601.76 216.1 Q 603.84 215.46 606.1 215.46 Q 610.02 215.46 612.15 217.38 Q 614.27 219.29 614.27 223.21 L 614.27 234.73 L 611.01 234.73 z M 604.74 234.95 Q 602.62 234.95 601.01 234.23 Q 599.41 233.51 598.54 232.23 Q 597.68 230.95 597.68 229.32 Q 597.68 227.77 598.41 226.52 Q 599.16 225.26 600.84 224.51 Q 602.51 223.74 605.35 223.74 L 611.4 223.74 L 611.4 226.23 L 605.49 226.23 Q 602.9 226.23 601.99 227.1 Q 601.1 227.96 601.1 229.18 Q 601.1 230.59 602.21 231.43 Q 603.34 232.27 605.32 232.27 Q 607.26 232.27 608.71 231.42 Q 610.18 230.56 610.82 228.9 L 611.51 231.27 Q 610.82 232.96 609.09 233.96 Q 607.37 234.95 604.74 234.95 z M 629.04 241.93 Q 626.41 241.93 623.94 241.18 Q 621.47 240.45 619.93 239.09 L 621.58 236.42 Q 622.93 237.57 624.86 238.23 Q 626.8 238.9 628.93 238.9 Q 632.32 238.9 633.9 237.32 Q 635.49 235.74 635.49 232.49 L 635.49 228.46 L 635.85 224.68 L 635.66 220.87 L 635.66 215.65 L 638.94 215.65 L 638.94 232.13 Q 638.94 237.18 636.41 239.56 Q 633.9 241.93 629.04 241.93 z M 628.61 233.93 Q 625.83 233.93 623.65 232.77 Q 621.47 231.6 620.19 229.51 Q 618.93 227.42 618.93 224.68 Q 618.93 221.92 620.19 219.85 Q 621.47 217.77 623.65 216.62 Q 625.83 215.46 628.61 215.46 Q 631.05 215.46 633.07 216.46 Q 635.08 217.45 636.29 219.51 Q 637.51 221.56 637.51 224.68 Q 637.51 227.77 636.29 229.84 Q 635.08 231.88 633.07 232.92 Q 631.05 233.93 628.61 233.93 z M 629.01 230.92 Q 630.91 230.92 632.38 230.12 Q 633.86 229.32 634.71 227.93 Q 635.55 226.52 635.55 224.68 Q 635.55 222.85 634.71 221.45 Q 633.86 220.04 632.38 219.27 Q 630.91 218.49 629.01 218.49 Q 627.1 218.49 625.6 219.27 Q 624.11 220.04 623.26 221.45 Q 622.41 222.85 622.41 224.68 Q 622.41 226.52 623.26 227.93 Q 624.11 229.32 625.6 230.12 Q 627.1 230.92 629.01 230.92 z M 654.02 234.95 Q 650.97 234.95 648.64 233.7 Q 646.31 232.43 645.03 230.23 Q 643.77 228.02 643.77 225.18 Q 643.77 222.34 645 220.15 Q 646.25 217.95 648.42 216.71 Q 650.61 215.46 653.35 215.46 Q 656.11 215.46 658.24 216.7 Q 660.36 217.92 661.56 220.13 Q 662.77 222.34 662.77 225.29 Q 662.77 225.51 662.75 225.81 Q 662.74 226.09 662.7 226.34 L 646.47 226.34 L 646.47 223.85 L 660.89 223.85 L 659.5 224.71 Q 659.53 222.88 658.74 221.45 Q 657.95 220.01 656.56 219.2 Q 655.17 218.38 653.35 218.38 Q 651.53 218.38 650.13 219.2 Q 648.74 220.01 647.94 221.46 Q 647.14 222.92 647.14 224.79 L 647.14 225.37 Q 647.14 227.27 648.02 228.77 Q 648.91 230.26 650.49 231.09 Q 652.08 231.92 654.13 231.92 Q 655.83 231.92 657.2 231.35 Q 658.6 230.77 659.64 229.62 L 661.55 231.85 Q 660.25 233.35 658.31 234.15 Q 656.39 234.95 654.02 234.95 z M 677.75 215.46 Q 680.08 215.46 681.86 216.37 Q 683.66 217.27 684.66 219.12 Q 685.67 220.95 685.67 223.74 L 685.67 234.73 L 682.21 234.73 L 682.21 224.15 Q 682.21 221.37 680.86 219.98 Q 679.52 218.57 677.06 218.57 Q 675.22 218.57 673.85 219.29 Q 672.49 220.01 671.75 221.42 Q 671.02 222.81 671.02 224.9 L 671.02 234.73 L 667.56 234.73 L 667.56 215.65 L 670.88 215.65 L 670.88 220.79 L 670.33 219.43 Q 671.27 217.56 673.21 216.51 Q 675.16 215.46 677.75 215.46 z M 700.39 234.95 Q 697.47 234.95 695.19 233.7 Q 692.91 232.43 691.61 230.23 Q 690.32 228.02 690.32 225.18 Q 690.32 222.34 691.61 220.15 Q 692.91 217.95 695.19 216.71 Q 697.47 215.46 700.39 215.46 Q 702.99 215.46 705.02 216.49 Q 707.05 217.52 708.17 219.54 L 705.53 221.23 Q 704.6 219.82 703.25 219.17 Q 701.91 218.49 700.36 218.49 Q 698.49 218.49 697 219.32 Q 695.53 220.15 694.66 221.65 Q 693.8 223.13 693.8 225.18 Q 693.8 227.24 694.66 228.76 Q 695.53 230.26 697 231.09 Q 698.49 231.92 700.36 231.92 Q 701.91 231.92 703.25 231.26 Q 704.6 230.59 705.53 229.18 L 708.17 230.84 Q 707.05 232.82 705.02 233.88 Q 702.99 234.95 700.39 234.95 z M 713.21 241.93 Q 711.84 241.93 710.54 241.48 Q 709.24 241.02 708.31 240.17 L 709.79 237.57 Q 710.51 238.26 711.37 238.62 Q 712.23 238.98 713.21 238.98 Q 714.46 238.98 715.29 238.32 Q 716.12 237.68 716.84 236.02 L 718.03 233.4 L 718.38 232.96 L 725.88 215.65 L 729.26 215.65 L 720.01 236.63 Q 719.18 238.65 718.15 239.81 Q 717.13 240.96 715.9 241.45 Q 714.68 241.93 713.21 241.93 z M 717.74 235.34 L 709.03 215.65 L 712.63 215.65 L 720.04 232.63 L 717.74 235.34 z" stroke="none" stroke-opacity="0" stroke-width="0" stroke-dasharray="none" stroke-dashoffset="0" stroke-linecap="square" stroke-linejoin="miter" stroke-miterlimit="10" fill="#111c28" fill-opacity="1" fill-rule="nonzero" opacity="1" transform=" translate(-514.75, -224.7)" class="MIyLwCIT_39"></path></g><g transform="matrix(1 0 0 1 -116.33 4.09)" class="wpgraphicator-path-nrkxohqosexjhd8chrhj" data-opacity="1" clip-path="url(#WPG_CLIPPATH_ID-eu7cgmsuy11n5yjngf11100)"><clipPath id="WPG_CLIPPATH_ID-eu7cgmsuy11n5yjngf11100"><path d="M 0 0 L 960 0 L 960 540 L 0 540 L 0 0 z" transform="matrix(1 0 0 1 84.56 -4.09) translate(-480, -270)" class="wpgraphicator-path-s7a11f5x4fetpcm6mnlb7 MIyLwCIT_40" data-top="-4.09" data-left="84.56" data-angle="0" data-scalex="1" data-scaley="1" data-skewx="0" data-skewy="0" data-originx="center" data-originy="center"></path></clipPath><path d="M 308.28 285.83 Q 305.4 285.83 303.81 284.28 Q 302.23 282.73 302.23 279.84 L 302.23 262.36 L 305.69 262.36 L 305.69 279.7 Q 305.69 281.25 306.45 282.08 Q 307.23 282.9 308.67 282.9 Q 310.3 282.9 311.37 282.01 L 312.45 284.5 Q 311.67 285.17 310.56 285.5 Q 309.47 285.83 308.28 285.83 z M 299 269.37 L 299 266.53 L 311.15 266.53 L 311.15 269.37 L 299 269.37 z M 324.16 285.83 Q 321.27 285.83 319.04 284.58 Q 316.82 283.31 315.52 281.09 Q 314.22 278.87 314.22 276.06 Q 314.22 273.22 315.52 271.03 Q 316.82 268.83 319.04 267.59 Q 321.27 266.34 324.16 266.34 Q 327 266.34 329.25 267.59 Q 331.5 268.83 332.77 271.01 Q 334.05 273.19 334.05 276.06 Q 334.05 278.9 332.77 281.11 Q 331.5 283.31 329.25 284.58 Q 327 285.83 324.16 285.83 z M 324.16 282.8 Q 325.99 282.8 327.44 281.97 Q 328.91 281.14 329.74 279.61 Q 330.57 278.08 330.57 276.06 Q 330.57 274.01 329.74 272.53 Q 328.91 271.03 327.44 270.2 Q 325.99 269.37 324.16 269.37 Q 322.32 269.37 320.88 270.2 Q 319.44 271.03 318.57 272.53 Q 317.71 274.01 317.71 276.06 Q 317.71 278.08 318.57 279.61 Q 319.44 281.14 320.88 281.97 Q 322.32 282.8 324.16 282.8 z M 356.55 285.83 Q 354.11 285.83 352.25 284.94 Q 350.39 284.03 349.36 282.17 Q 348.35 280.31 348.35 277.51 L 348.35 266.53 L 351.8 266.53 L 351.8 277.11 Q 351.8 279.92 353.14 281.33 Q 354.5 282.73 356.95 282.73 Q 358.75 282.73 360.08 282 Q 361.41 281.25 362.13 279.83 Q 362.86 278.4 362.86 276.39 L 362.86 266.53 L 366.31 266.53 L 366.31 285.61 L 363.03 285.61 L 363.03 280.47 L 363.58 281.83 Q 362.64 283.73 360.77 284.78 Q 358.89 285.83 356.55 285.83 z M 383.09 266.34 Q 385.42 266.34 387.2 267.25 Q 389 268.15 390 270 Q 391.01 271.83 391.01 274.62 L 391.01 285.61 L 387.55 285.61 L 387.55 275.03 Q 387.55 272.25 386.2 270.86 Q 384.86 269.45 382.4 269.45 Q 380.56 269.45 379.19 270.17 Q 377.83 270.89 377.09 272.3 Q 376.36 273.69 376.36 275.78 L 376.36 285.61 L 372.9 285.61 L 372.9 266.53 L 376.22 266.53 L 376.22 271.67 L 375.67 270.31 Q 376.61 268.44 378.55 267.39 Q 380.5 266.34 383.09 266.34 z M 405.73 285.83 Q 402.81 285.83 400.53 284.58 Q 398.25 283.31 396.95 281.11 Q 395.66 278.9 395.66 276.06 Q 395.66 273.22 396.95 271.03 Q 398.25 268.83 400.53 267.59 Q 402.81 266.34 405.73 266.34 Q 408.33 266.34 410.36 267.37 Q 412.39 268.4 413.51 270.42 L 410.87 272.11 Q 409.94 270.7 408.59 270.05 Q 407.25 269.37 405.7 269.37 Q 403.83 269.37 402.34 270.2 Q 400.87 271.03 400 272.53 Q 399.14 274.01 399.14 276.06 Q 399.14 278.12 400 279.64 Q 400.87 281.14 402.34 281.97 Q 403.83 282.8 405.7 282.8 Q 407.25 282.8 408.59 282.14 Q 409.94 281.47 410.87 280.06 L 413.51 281.72 Q 412.39 283.7 410.36 284.76 Q 408.33 285.83 405.73 285.83 z M 425.86 285.83 Q 422.97 285.83 420.74 284.58 Q 418.52 283.31 417.22 281.09 Q 415.92 278.87 415.92 276.06 Q 415.92 273.22 417.22 271.03 Q 418.52 268.83 420.74 267.59 Q 422.97 266.34 425.86 266.34 Q 428.7 266.34 430.95 267.59 Q 433.2 268.83 434.47 271.01 Q 435.75 273.19 435.75 276.06 Q 435.75 278.9 434.47 281.11 Q 433.2 283.31 430.95 284.58 Q 428.7 285.83 425.86 285.83 z M 425.86 282.8 Q 427.69 282.8 429.14 281.97 Q 430.61 281.14 431.44 279.61 Q 432.27 278.08 432.27 276.06 Q 432.27 274.01 431.44 272.53 Q 430.61 271.03 429.14 270.2 Q 427.69 269.37 425.86 269.37 Q 424.02 269.37 422.58 270.2 Q 421.14 271.03 420.27 272.53 Q 419.41 274.01 419.41 276.06 Q 419.41 278.08 420.27 279.61 Q 421.14 281.14 422.58 281.97 Q 424.02 282.8 425.86 282.8 z M 445.01 285.61 L 436.65 266.53 L 440.26 266.53 L 447.67 283.81 L 445.95 283.81 L 453.51 266.53 L 456.88 266.53 L 448.54 285.61 L 445.01 285.61 z M 468.08 285.83 Q 465.03 285.83 462.7 284.58 Q 460.37 283.31 459.09 281.11 Q 457.83 278.9 457.83 276.06 Q 457.83 273.22 459.06 271.03 Q 460.31 268.83 462.48 267.59 Q 464.67 266.34 467.41 266.34 Q 470.17 266.34 472.3 267.58 Q 474.42 268.8 475.62 271.01 Q 476.83 273.22 476.83 276.17 Q 476.83 276.39 476.81 276.69 Q 476.8 276.97 476.76 277.22 L 460.53 277.22 L 460.53 274.73 L 474.95 274.73 L 473.56 275.59 Q 473.59 273.76 472.8 272.33 Q 472.01 270.89 470.62 270.08 Q 469.23 269.26 467.41 269.26 Q 465.59 269.26 464.19 270.08 Q 462.8 270.89 462 272.34 Q 461.2 273.8 461.2 275.67 L 461.2 276.25 Q 461.2 278.15 462.08 279.65 Q 462.97 281.14 464.55 281.97 Q 466.14 282.8 468.19 282.8 Q 469.89 282.8 471.26 282.23 Q 472.66 281.65 473.7 280.5 L 475.61 282.73 Q 474.31 284.23 472.37 285.03 Q 470.45 285.83 468.08 285.83 z M 481.62 285.61 L 481.62 266.53 L 484.94 266.53 L 484.94 271.72 L 484.61 270.42 Q 485.41 268.44 487.27 267.39 Q 489.14 266.34 491.87 266.34 L 491.87 269.7 Q 491.66 269.65 491.45 269.65 Q 491.27 269.65 491.09 269.65 Q 488.31 269.65 486.69 271.31 Q 485.08 272.97 485.08 276.11 L 485.08 285.61 L 481.62 285.61 z" stroke="none" stroke-opacity="0" stroke-width="0" stroke-dasharray="none" stroke-dashoffset="0" stroke-linecap="square" stroke-linejoin="miter" stroke-miterlimit="10" fill="#111c28" fill-opacity="1" fill-rule="nonzero" opacity="1" transform=" translate(-395.44, -274.09)" class="MIyLwCIT_41"></path></g><g transform="matrix(1 0 0 1 83.65 2.74)" class="wpgraphicator-path-ita21010ojj10smfyi3v61" data-opacity="1" clip-path="url(#WPG_CLIPPATH_ID-qwfdj711476lre1clnq2r)"><clipPath id="WPG_CLIPPATH_ID-qwfdj711476lre1clnq2r"><path d="M 0 0 L 960 0 L 960 540 L 0 540 L 0 0 z" transform="matrix(1 0 0 1 -115.42 -2.74) translate(-480, -270)" class="wpgraphicator-path-ji8c20hfyeq1ahimy4tv MIyLwCIT_42" data-top="-2.74" data-left="-115.42" data-angle="0" data-scalex="1" data-scaley="1" data-skewx="0" data-skewy="0" data-originx="center" data-originy="center"></path></clipPath><path d="M 505.96 285.61 L 505.96 261.94 L 512.82 261.94 L 512.82 285.61 L 505.96 285.61 z M 509.4 258.64 Q 507.51 258.64 506.32 257.55 Q 505.13 256.44 505.13 254.81 Q 505.13 253.19 506.32 252.09 Q 507.51 250.98 509.4 250.98 Q 511.29 250.98 512.48 252.01 Q 513.66 253.05 513.66 254.67 Q 513.66 256.39 512.49 257.51 Q 511.33 258.64 509.4 258.64 z M 533.59 261.58 Q 536.41 261.58 538.63 262.7 Q 540.84 263.83 542.13 266.14 Q 543.41 268.45 543.41 272.06 L 543.41 285.61 L 536.53 285.61 L 536.53 273.11 Q 536.53 270.25 535.28 268.89 Q 534.03 267.53 531.73 267.53 Q 530.11 267.53 528.81 268.22 Q 527.52 268.89 526.78 270.3 Q 526.06 271.7 526.06 273.9 L 526.06 285.61 L 519.2 285.61 L 519.2 261.94 L 525.75 261.94 L 525.75 268.5 L 524.52 266.51 Q 525.8 264.14 528.17 262.86 Q 530.55 261.58 533.59 261.58 z M 557.56 285.97 Q 554.53 285.97 551.73 285.25 Q 548.95 284.51 547.31 283.4 L 549.61 278.48 Q 551.23 279.5 553.45 280.14 Q 555.67 280.76 557.83 280.76 Q 560.2 280.76 561.19 280.2 Q 562.19 279.62 562.19 278.61 Q 562.19 277.78 561.42 277.36 Q 560.65 276.94 559.37 276.72 Q 558.09 276.5 556.58 276.28 Q 555.06 276.06 553.51 275.69 Q 551.98 275.31 550.7 274.56 Q 549.42 273.81 548.65 272.55 Q 547.89 271.26 547.89 269.23 Q 547.89 267 549.19 265.28 Q 550.48 263.56 552.94 262.58 Q 555.4 261.58 558.84 261.58 Q 561.26 261.58 563.76 262.11 Q 566.28 262.64 567.95 263.65 L 565.67 268.53 Q 563.95 267.53 562.2 267.15 Q 560.47 266.78 558.84 266.78 Q 556.56 266.78 555.5 267.4 Q 554.45 268.01 554.45 268.98 Q 554.45 269.86 555.22 270.3 Q 555.98 270.73 557.25 271 Q 558.53 271.26 560.04 271.47 Q 561.58 271.65 563.11 272.06 Q 564.65 272.45 565.9 273.19 Q 567.15 273.9 567.95 275.15 Q 568.75 276.4 568.75 278.44 Q 568.75 280.64 567.42 282.34 Q 566.11 284.03 563.62 285 Q 561.14 285.97 557.56 285.97 z M 572.97 285.61 L 572.97 261.94 L 579.83 261.94 L 579.83 285.61 L 572.97 285.61 z M 576.41 258.64 Q 574.52 258.64 573.33 257.55 Q 572.14 256.44 572.14 254.81 Q 572.14 253.19 573.33 252.09 Q 574.52 250.98 576.41 250.98 Q 578.3 250.98 579.49 252.01 Q 580.67 253.05 580.67 254.67 Q 580.67 256.39 579.5 257.51 Q 578.35 258.64 576.41 258.64 z M 597.34 294.5 Q 594 294.5 590.89 293.69 Q 587.79 292.87 585.73 291.23 L 588.45 286.31 Q 589.95 287.55 592.26 288.26 Q 594.57 289 596.81 289 Q 600.47 289 602.11 287.36 Q 603.76 285.73 603.76 282.53 L 603.76 278.97 L 604.2 273.03 L 604.12 267.05 L 604.12 261.94 L 610.64 261.94 L 610.64 281.65 Q 610.64 288.25 607.2 291.37 Q 603.76 294.5 597.34 294.5 z M 596.29 284.47 Q 592.98 284.47 590.32 283.05 Q 587.67 281.61 586.06 279.03 Q 584.45 276.45 584.45 273.03 Q 584.45 269.55 586.06 266.98 Q 587.67 264.4 590.32 263 Q 592.98 261.58 596.29 261.58 Q 599.28 261.58 601.56 262.8 Q 603.86 264 605.12 266.53 Q 606.4 269.06 606.4 273.03 Q 606.4 276.94 605.12 279.47 Q 603.86 282 601.56 283.23 Q 599.28 284.47 596.29 284.47 z M 597.65 278.83 Q 599.45 278.83 600.86 278.11 Q 602.28 277.37 603.06 276.06 Q 603.86 274.73 603.86 273.03 Q 603.86 271.26 603.06 269.97 Q 602.28 268.67 600.86 267.95 Q 599.45 267.22 597.65 267.22 Q 595.84 267.22 594.43 267.95 Q 593.03 268.67 592.22 269.97 Q 591.4 271.26 591.4 273.03 Q 591.4 274.73 592.22 276.06 Q 593.03 277.37 594.43 278.11 Q 595.84 278.83 597.65 278.83 z M 631.41 261.58 Q 634.22 261.58 636.44 262.7 Q 638.66 263.83 639.94 266.14 Q 641.22 268.45 641.22 272.06 L 641.22 285.61 L 634.34 285.61 L 634.34 273.11 Q 634.34 270.25 633.09 268.89 Q 631.84 267.53 629.55 267.53 Q 627.92 267.53 626.62 268.22 Q 625.33 268.89 624.59 270.3 Q 623.87 271.7 623.87 273.9 L 623.87 285.61 L 617.02 285.61 L 617.02 252.97 L 623.87 252.97 L 623.87 268.5 L 622.33 266.51 Q 623.61 264.14 625.98 262.86 Q 628.36 261.58 631.41 261.58 z M 657.09 285.97 Q 652.92 285.97 650.58 283.83 Q 648.25 281.69 648.25 277.47 L 648.25 256.7 L 655.12 256.7 L 655.12 277.37 Q 655.12 278.87 655.9 279.69 Q 656.7 280.5 658.06 280.5 Q 659.68 280.5 660.84 279.62 L 662.68 284.47 Q 661.62 285.22 660.15 285.59 Q 658.68 285.97 657.09 285.97 z M 644.61 267.75 L 644.61 262.47 L 661.01 262.47 L 661.01 267.75 L 644.61 267.75 z M 674.51 285.97 Q 671.48 285.97 668.68 285.25 Q 665.9 284.51 664.26 283.4 L 666.56 278.48 Q 668.18 279.5 670.4 280.14 Q 672.62 280.76 674.78 280.76 Q 677.15 280.76 678.14 280.2 Q 679.14 279.62 679.14 278.61 Q 679.14 277.78 678.37 277.36 Q 677.61 276.94 676.32 276.72 Q 675.04 276.5 673.53 276.28 Q 672.01 276.06 670.47 275.69 Q 668.93 275.31 667.65 274.56 Q 666.37 273.81 665.61 272.55 Q 664.84 271.26 664.84 269.23 Q 664.84 267 666.14 265.28 Q 667.43 263.56 669.89 262.58 Q 672.36 261.58 675.79 261.58 Q 678.22 261.58 680.72 262.11 Q 683.23 262.64 684.9 263.65 L 682.62 268.53 Q 680.9 267.53 679.15 267.15 Q 677.42 266.78 675.79 266.78 Q 673.51 266.78 672.45 267.4 Q 671.4 268.01 671.4 268.98 Q 671.4 269.86 672.17 270.3 Q 672.93 270.73 674.2 271 Q 675.48 271.26 677 271.47 Q 678.53 271.65 680.06 272.06 Q 681.61 272.45 682.86 273.19 Q 684.11 273.9 684.9 275.15 Q 685.7 276.4 685.7 278.44 Q 685.7 280.64 684.37 282.34 Q 683.06 284.03 680.57 285 Q 678.09 285.97 674.51 285.97 z" stroke="none" stroke-opacity="0" stroke-width="0" stroke-dasharray="none" stroke-dashoffset="0" stroke-linecap="square" stroke-linejoin="miter" stroke-miterlimit="10" fill="#111c28" fill-opacity="1" fill-rule="nonzero" opacity="1" transform=" translate(-595.42, -272.74)" class="MIyLwCIT_43"></path></g><g transform="matrix(1 0 0 1 -47 50.7)" class="wpgraphicator-path-gf10mfw4l10pnnk2w7f175" data-opacity="1" clip-path="url(#WPG_CLIPPATH_ID-qqaphx97h2seo2acvlht)"><clipPath id="WPG_CLIPPATH_ID-qqaphx97h2seo2acvlht"><path d="M 0 0 L 960 0 L 960 540 L 0 540 L 0 0 z" transform="matrix(1 0 0 1 15.23 -50.7) translate(-480, -270)" class="wpgraphicator-path-7g8rdf9o8u5a67u57fvu MIyLwCIT_44" data-top="-50.7" data-left="15.23" data-angle="0" data-scalex="1" data-scaley="1" data-skewx="0" data-skewy="0" data-originx="center" data-originy="center"></path></clipPath><path d="M 313.58 330.73 L 313.58 326.7 L 313.39 325.95 L 313.39 319.07 Q 313.39 316.87 312.11 315.67 Q 310.84 314.46 308.28 314.46 Q 306.59 314.46 304.97 315.02 Q 303.34 315.57 302.23 316.51 L 300.8 313.92 Q 302.26 312.73 304.33 312.1 Q 306.4 311.46 308.67 311.46 Q 312.59 311.46 314.72 313.38 Q 316.84 315.29 316.84 319.21 L 316.84 330.73 L 313.58 330.73 z M 307.31 330.95 Q 305.19 330.95 303.58 330.23 Q 301.98 329.51 301.11 328.23 Q 300.25 326.95 300.25 325.32 Q 300.25 323.77 300.98 322.52 Q 301.73 321.26 303.4 320.51 Q 305.08 319.74 307.92 319.74 L 313.97 319.74 L 313.97 322.23 L 308.06 322.23 Q 305.47 322.23 304.56 323.1 Q 303.67 323.96 303.67 325.18 Q 303.67 326.59 304.78 327.43 Q 305.9 328.27 307.89 328.27 Q 309.83 328.27 311.28 327.42 Q 312.75 326.56 313.39 324.9 L 314.08 327.27 Q 313.39 328.96 311.65 329.96 Q 309.94 330.95 307.31 330.95 z M 333.45 311.46 Q 335.78 311.46 337.56 312.37 Q 339.35 313.27 340.35 315.12 Q 341.37 316.95 341.37 319.74 L 341.37 330.73 L 337.9 330.73 L 337.9 320.15 Q 337.9 317.37 336.56 315.98 Q 335.21 314.57 332.76 314.57 Q 330.92 314.57 329.54 315.29 Q 328.18 316.01 327.45 317.42 Q 326.71 318.81 326.71 320.9 L 326.71 330.73 L 323.26 330.73 L 323.26 311.65 L 326.57 311.65 L 326.57 316.79 L 326.03 315.43 Q 326.96 313.56 328.9 312.51 Q 330.85 311.46 333.45 311.46 z M 355.65 330.95 Q 352.89 330.95 350.7 329.73 Q 348.53 328.49 347.26 326.31 Q 346.01 324.1 346.01 321.18 Q 346.01 318.27 347.26 316.1 Q 348.53 313.92 350.7 312.7 Q 352.89 311.46 355.65 311.46 Q 358.07 311.46 360.01 312.56 Q 361.95 313.63 363.12 315.79 Q 364.29 317.95 364.29 321.18 Q 364.29 324.43 363.15 326.59 Q 362.03 328.74 360.07 329.85 Q 358.14 330.95 355.65 330.95 z M 355.95 327.92 Q 357.75 327.92 359.2 327.09 Q 360.65 326.26 361.5 324.73 Q 362.35 323.2 362.35 321.18 Q 362.35 319.13 361.5 317.65 Q 360.65 316.15 359.2 315.32 Q 357.75 314.49 355.95 314.49 Q 354.1 314.49 352.67 315.32 Q 351.23 316.15 350.35 317.65 Q 349.5 319.13 349.5 321.18 Q 349.5 323.2 350.35 324.73 Q 351.23 326.26 352.67 327.09 Q 354.1 327.92 355.95 327.92 z M 362.46 330.73 L 362.46 325.59 L 362.68 321.15 L 362.31 316.73 L 362.31 304.01 L 365.78 304.01 L 365.78 330.73 L 362.46 330.73 z M 390.18 330.95 Q 387.29 330.95 385.06 329.7 Q 382.84 328.43 381.54 326.21 Q 380.25 323.99 380.25 321.18 Q 380.25 318.34 381.54 316.15 Q 382.84 313.95 385.06 312.71 Q 387.29 311.46 390.18 311.46 Q 393.03 311.46 395.28 312.71 Q 397.53 313.95 398.79 316.13 Q 400.08 318.31 400.08 321.18 Q 400.08 324.02 398.79 326.23 Q 397.53 328.43 395.28 329.7 Q 393.03 330.95 390.18 330.95 z M 390.18 327.92 Q 392.01 327.92 393.47 327.09 Q 394.93 326.26 395.76 324.73 Q 396.59 323.2 396.59 321.18 Q 396.59 319.13 395.76 317.65 Q 394.93 316.15 393.47 315.32 Q 392.01 314.49 390.18 314.49 Q 388.34 314.49 386.9 315.32 Q 385.47 316.15 384.59 317.65 Q 383.73 319.13 383.73 321.18 Q 383.73 323.2 384.59 324.73 Q 385.47 326.26 386.9 327.09 Q 388.34 327.92 390.18 327.92 z M 414.98 330.95 Q 412.61 330.95 410.64 329.85 Q 408.69 328.74 407.51 326.59 Q 406.34 324.43 406.34 321.18 Q 406.34 317.95 407.47 315.79 Q 408.61 313.63 410.56 312.56 Q 412.53 311.46 414.98 311.46 Q 417.79 311.46 419.95 312.7 Q 422.11 313.92 423.37 316.1 Q 424.64 318.27 424.64 321.18 Q 424.64 324.1 423.37 326.31 Q 422.11 328.49 419.95 329.73 Q 417.79 330.95 414.98 330.95 z M 404.87 337.71 L 404.87 311.65 L 408.19 311.65 L 408.19 316.79 L 407.97 321.23 L 408.33 325.65 L 408.33 337.71 L 404.87 337.71 z M 414.7 327.92 Q 416.53 327.92 417.98 327.09 Q 419.45 326.26 420.29 324.73 Q 421.14 323.2 421.14 321.18 Q 421.14 319.13 420.29 317.65 Q 419.45 316.15 417.98 315.32 Q 416.53 314.49 414.7 314.49 Q 412.89 314.49 411.44 315.32 Q 409.98 316.15 409.14 317.65 Q 408.29 319.13 408.29 321.18 Q 408.29 323.2 409.14 324.73 Q 409.98 326.26 411.44 327.09 Q 412.89 327.92 414.7 327.92 z M 435.97 330.95 Q 433.1 330.95 431.5 329.4 Q 429.92 327.85 429.92 324.96 L 429.92 307.48 L 433.38 307.48 L 433.38 324.82 Q 433.38 326.37 434.14 327.2 Q 434.92 328.02 436.36 328.02 Q 437.99 328.02 439.07 327.13 L 440.14 329.62 Q 439.36 330.29 438.25 330.62 Q 437.16 330.95 435.97 330.95 z M 426.69 314.49 L 426.69 311.65 L 438.85 311.65 L 438.85 314.49 L 426.69 314.49 z M 444.33 330.73 L 444.33 311.65 L 447.78 311.65 L 447.78 330.73 L 444.33 330.73 z M 446.05 307.98 Q 445.05 307.98 444.38 307.34 Q 443.7 306.68 443.7 305.74 Q 443.7 304.77 444.38 304.13 Q 445.05 303.48 446.05 303.48 Q 447.06 303.48 447.72 304.12 Q 448.39 304.74 448.39 305.67 Q 448.39 306.65 447.73 307.32 Q 447.09 307.98 446.05 307.98 z M 478.23 311.46 Q 480.54 311.46 482.29 312.37 Q 484.06 313.27 485.04 315.12 Q 486.04 316.95 486.04 319.74 L 486.04 330.73 L 482.59 330.73 L 482.59 320.15 Q 482.59 317.37 481.29 315.98 Q 480 314.57 477.65 314.57 Q 475.94 314.57 474.64 315.29 Q 473.34 316.01 472.64 317.42 Q 471.94 318.81 471.94 320.9 L 471.94 330.73 L 468.48 330.73 L 468.48 320.15 Q 468.48 317.37 467.2 315.98 Q 465.92 314.57 463.54 314.57 Q 461.86 314.57 460.56 315.29 Q 459.26 316.01 458.54 317.42 Q 457.83 318.81 457.83 320.9 L 457.83 330.73 L 454.37 330.73 L 454.37 311.65 L 457.69 311.65 L 457.69 316.73 L 457.14 315.43 Q 458.04 313.56 459.9 312.51 Q 461.78 311.46 464.26 311.46 Q 467 311.46 468.98 312.82 Q 470.97 314.17 471.58 316.9 L 470.17 316.32 Q 471.03 314.13 473.19 312.81 Q 475.36 311.46 478.23 311.46 z M 492.42 330.73 L 492.42 311.65 L 495.88 311.65 L 495.88 330.73 L 492.42 330.73 z M 494.14 307.98 Q 493.14 307.98 492.47 307.34 Q 491.8 306.68 491.8 305.74 Q 491.8 304.77 492.47 304.13 Q 493.14 303.48 494.14 303.48 Q 495.16 303.48 495.82 304.12 Q 496.49 304.74 496.49 305.67 Q 496.49 306.65 495.83 307.32 Q 495.19 307.98 494.14 307.98 z M 507.94 330.95 Q 505.56 330.95 503.42 330.31 Q 501.28 329.65 500.05 328.71 L 501.48 325.98 Q 502.72 326.81 504.52 327.38 Q 506.31 327.96 508.19 327.96 Q 510.59 327.96 511.66 327.27 Q 512.72 326.59 512.72 325.37 Q 512.72 324.46 512.06 323.96 Q 511.42 323.46 510.36 323.21 Q 509.3 322.95 508 322.76 Q 506.72 322.56 505.42 322.26 Q 504.13 321.95 503.03 321.38 Q 501.95 320.82 501.3 319.84 Q 500.66 318.85 500.66 317.2 Q 500.66 315.46 501.63 314.17 Q 502.61 312.87 504.39 312.17 Q 506.17 311.46 508.63 311.46 Q 510.48 311.46 512.41 311.92 Q 514.34 312.37 515.56 313.2 L 514.09 315.93 Q 512.8 315.07 511.39 314.74 Q 509.98 314.42 508.58 314.42 Q 506.31 314.42 505.19 315.17 Q 504.08 315.9 504.08 317.04 Q 504.08 318.02 504.75 318.56 Q 505.42 319.07 506.48 319.35 Q 507.55 319.63 508.83 319.84 Q 510.13 320.04 511.42 320.35 Q 512.72 320.65 513.78 321.2 Q 514.84 321.73 515.5 322.7 Q 516.17 323.67 516.17 325.29 Q 516.17 327.02 515.16 328.29 Q 514.16 329.54 512.31 330.24 Q 510.48 330.95 507.94 330.95 z M 528.99 330.95 Q 525.94 330.95 523.61 329.7 Q 521.29 328.43 520 326.23 Q 518.74 324.02 518.74 321.18 Q 518.74 318.34 519.97 316.15 Q 521.22 313.95 523.4 312.71 Q 525.58 311.46 528.32 311.46 Q 531.08 311.46 533.21 312.7 Q 535.33 313.92 536.54 316.13 Q 537.74 318.34 537.74 321.29 Q 537.74 321.51 537.72 321.81 Q 537.71 322.09 537.68 322.34 L 521.44 322.34 L 521.44 319.85 L 535.86 319.85 L 534.47 320.71 Q 534.5 318.88 533.71 317.45 Q 532.93 316.01 531.54 315.2 Q 530.15 314.38 528.32 314.38 Q 526.5 314.38 525.1 315.2 Q 523.71 316.01 522.91 317.46 Q 522.11 318.92 522.11 320.79 L 522.11 321.37 Q 522.11 323.27 522.99 324.77 Q 523.88 326.26 525.46 327.09 Q 527.05 327.92 529.1 327.92 Q 530.8 327.92 532.18 327.35 Q 533.57 326.77 534.61 325.62 L 536.52 327.85 Q 535.22 329.35 533.29 330.15 Q 531.36 330.95 528.99 330.95 z M 553.05 337.93 Q 551.67 337.93 550.38 337.48 Q 549.08 337.02 548.14 336.17 L 549.63 333.57 Q 550.35 334.26 551.21 334.62 Q 552.06 334.98 553.05 334.98 Q 554.3 334.98 555.13 334.32 Q 555.96 333.68 556.67 332.02 L 557.86 329.4 L 558.22 328.96 L 565.72 311.65 L 569.1 311.65 L 559.85 332.63 Q 559.02 334.65 557.99 335.81 Q 556.97 336.96 555.74 337.45 Q 554.52 337.93 553.05 337.93 z M 557.58 331.34 L 548.86 311.65 L 552.47 311.65 L 559.88 328.63 L 557.58 331.34 z M 579.98 330.95 Q 577.09 330.95 574.85 329.7 Q 572.63 328.43 571.34 326.21 Q 570.04 323.99 570.04 321.18 Q 570.04 318.34 571.34 316.15 Q 572.63 313.95 574.85 312.71 Q 577.09 311.46 579.98 311.46 Q 582.82 311.46 585.07 312.71 Q 587.32 313.95 588.59 316.13 Q 589.87 318.31 589.87 321.18 Q 589.87 324.02 588.59 326.23 Q 587.32 328.43 585.07 329.7 Q 582.82 330.95 579.98 330.95 z M 579.98 327.92 Q 581.8 327.92 583.26 327.09 Q 584.73 326.26 585.55 324.73 Q 586.38 323.2 586.38 321.18 Q 586.38 319.13 585.55 317.65 Q 584.73 316.15 583.26 315.32 Q 581.8 314.49 579.98 314.49 Q 578.13 314.49 576.7 315.32 Q 575.26 316.15 574.38 317.65 Q 573.52 319.13 573.52 321.18 Q 573.52 323.2 574.38 324.73 Q 575.26 326.26 576.7 327.09 Q 578.13 327.92 579.98 327.92 z M 602.68 330.95 Q 600.24 330.95 598.38 330.06 Q 596.52 329.15 595.49 327.29 Q 594.48 325.43 594.48 322.63 L 594.48 311.65 L 597.93 311.65 L 597.93 322.23 Q 597.93 325.04 599.27 326.45 Q 600.63 327.85 603.09 327.85 Q 604.88 327.85 606.21 327.12 Q 607.54 326.37 608.26 324.95 Q 608.99 323.52 608.99 321.51 L 608.99 311.65 L 612.45 311.65 L 612.45 330.73 L 609.16 330.73 L 609.16 325.59 L 609.71 326.95 Q 608.77 328.85 606.9 329.9 Q 605.02 330.95 602.68 330.95 z M 619.04 330.73 L 619.04 311.65 L 622.35 311.65 L 622.35 316.84 L 622.02 315.54 Q 622.82 313.56 624.68 312.51 Q 626.55 311.46 629.29 311.46 L 629.29 314.82 Q 629.07 314.77 628.86 314.77 Q 628.68 314.77 628.51 314.77 Q 625.72 314.77 624.1 316.43 Q 622.49 318.09 622.49 321.23 L 622.49 330.73 L 619.04 330.73 z" stroke="none" stroke-opacity="0" stroke-width="0" stroke-dasharray="none" stroke-dashoffset="0" stroke-linecap="square" stroke-linejoin="miter" stroke-miterlimit="10" fill="#111c28" fill-opacity="1" fill-rule="nonzero" opacity="1" transform=" translate(-464.77, -320.7)" class="MIyLwCIT_45"></path></g><g transform="matrix(1 0 0 1 -92.51 98.74)" class="wpgraphicator-path-remlxxok110fc20wvltsf" data-opacity="1" clip-path="url(#WPG_CLIPPATH_ID-x0piehtdrmi2qvklp15s)"><clipPath id="WPG_CLIPPATH_ID-x0piehtdrmi2qvklp15s"><path d="M 0 0 L 960 0 L 960 540 L 0 540 L 0 0 z" transform="matrix(1 0 0 1 60.74 -98.74) translate(-480, -270)" class="wpgraphicator-path-r7d341m0f00maqcqgqij MIyLwCIT_46" data-top="-98.74" data-left="60.74" data-angle="0" data-scalex="1" data-scaley="1" data-skewx="0" data-skewy="0" data-originx="center" data-originy="center"></path></clipPath><path d="M 331.94 357.58 Q 334.75 357.58 336.92 358.7 Q 339.11 359.83 340.36 362.14 Q 341.61 364.45 341.61 368.06 L 341.61 381.61 L 334.75 381.61 L 334.75 369.11 Q 334.75 366.25 333.56 364.89 Q 332.37 363.53 330.22 363.53 Q 328.72 363.53 327.53 364.22 Q 326.34 364.89 325.69 366.26 Q 325.03 367.62 325.03 369.73 L 325.03 381.61 L 318.17 381.61 L 318.17 369.11 Q 318.17 366.25 317 364.89 Q 315.83 363.53 313.67 363.53 Q 312.19 363.53 311 364.22 Q 309.81 364.89 309.14 366.26 Q 308.48 367.62 308.48 369.73 L 308.48 381.61 L 301.62 381.61 L 301.62 357.94 L 308.17 357.94 L 308.17 364.4 L 306.94 362.51 Q 308.17 360.09 310.44 358.84 Q 312.7 357.58 315.61 357.58 Q 318.87 357.58 321.31 359.23 Q 323.75 360.89 324.55 364.26 L 322.12 363.61 Q 323.31 360.84 325.92 359.22 Q 328.55 357.58 331.94 357.58 z M 362.29 381.61 L 362.29 376.98 L 361.86 375.98 L 361.86 367.7 Q 361.86 365.5 360.51 364.28 Q 359.17 363.05 356.4 363.05 Q 354.51 363.05 352.69 363.64 Q 350.86 364.23 349.58 365.23 L 347.12 360.45 Q 349.04 359.08 351.78 358.33 Q 354.51 357.58 357.33 357.58 Q 362.73 357.58 365.72 360.14 Q 368.72 362.69 368.72 368.09 L 368.72 381.61 L 362.29 381.61 z M 355.08 381.97 Q 352.31 381.97 350.33 381.01 Q 348.34 380.06 347.28 378.44 Q 346.23 376.81 346.23 374.8 Q 346.23 372.67 347.26 371.09 Q 348.31 369.51 350.54 368.61 Q 352.79 367.7 356.4 367.7 L 362.69 367.7 L 362.69 371.7 L 357.15 371.7 Q 354.73 371.7 353.83 372.5 Q 352.92 373.3 352.92 374.48 Q 352.92 375.8 353.95 376.58 Q 355 377.34 356.79 377.34 Q 358.51 377.34 359.87 376.53 Q 361.23 375.72 361.86 374.12 L 362.9 377.3 Q 362.17 379.58 360.19 380.78 Q 358.2 381.97 355.08 381.97 z M 374.93 381.61 L 374.93 357.94 L 381.47 357.94 L 381.47 364.62 L 380.55 362.69 Q 381.61 360.19 383.94 358.89 Q 386.27 357.58 389.61 357.58 L 389.61 363.92 Q 389.18 363.87 388.82 363.86 Q 388.47 363.83 388.08 363.83 Q 385.27 363.83 383.52 365.44 Q 381.79 367.05 381.79 370.44 L 381.79 381.61 L 374.93 381.61 z M 399.39 376.76 L 399.56 368.4 L 410.61 357.94 L 418.79 357.94 L 408.18 368.72 L 404.62 371.62 L 399.39 376.76 z M 393.72 381.61 L 393.72 348.97 L 400.57 348.97 L 400.57 381.61 L 393.72 381.61 z M 411.36 381.61 L 403.34 371.67 L 407.65 366.34 L 419.67 381.61 L 411.36 381.61 z M 433.49 381.97 Q 429.45 381.97 426.38 380.39 Q 423.32 378.8 421.65 376.05 Q 419.98 373.3 419.98 369.76 Q 419.98 366.2 421.62 363.45 Q 423.27 360.7 426.13 359.14 Q 428.99 357.58 432.6 357.58 Q 436.09 357.58 438.87 359.06 Q 441.66 360.53 443.29 363.28 Q 444.93 366.03 444.93 369.86 Q 444.93 370.25 444.88 370.76 Q 444.84 371.26 444.79 371.7 L 425.57 371.7 L 425.57 367.7 L 441.18 367.7 L 438.54 368.89 Q 438.54 367.05 437.79 365.69 Q 437.06 364.31 435.73 363.55 Q 434.41 362.78 432.65 362.78 Q 430.88 362.78 429.54 363.55 Q 428.21 364.31 427.46 365.7 Q 426.71 367.09 426.71 368.98 L 426.71 370.03 Q 426.71 371.97 427.57 373.45 Q 428.43 374.92 429.99 375.7 Q 431.56 376.47 433.66 376.47 Q 435.56 376.47 436.98 375.89 Q 438.41 375.31 439.6 374.17 L 443.26 378.14 Q 441.63 379.98 439.16 380.98 Q 436.7 381.97 433.49 381.97 z M 459.18 381.97 Q 455.01 381.97 452.66 379.83 Q 450.34 377.69 450.34 373.47 L 450.34 352.7 L 457.21 352.7 L 457.21 373.37 Q 457.21 374.87 457.99 375.69 Q 458.79 376.5 460.15 376.5 Q 461.77 376.5 462.93 375.62 L 464.77 380.47 Q 463.71 381.22 462.24 381.59 Q 460.77 381.97 459.18 381.97 z M 446.69 363.75 L 446.69 358.47 L 463.1 358.47 L 463.1 363.75 L 446.69 363.75 z M 468.65 381.61 L 468.65 357.94 L 475.51 357.94 L 475.51 381.61 L 468.65 381.61 z M 472.08 354.64 Q 470.19 354.64 469.01 353.55 Q 467.82 352.44 467.82 350.81 Q 467.82 349.19 469.01 348.09 Q 470.19 346.98 472.08 346.98 Q 473.98 346.98 475.16 348.01 Q 476.35 349.05 476.35 350.67 Q 476.35 352.39 475.18 353.51 Q 474.02 354.64 472.08 354.64 z M 496.28 357.58 Q 499.09 357.58 501.31 358.7 Q 503.53 359.83 504.81 362.14 Q 506.09 364.45 506.09 368.06 L 506.09 381.61 L 499.22 381.61 L 499.22 369.11 Q 499.22 366.25 497.97 364.89 Q 496.72 363.53 494.42 363.53 Q 492.8 363.53 491.5 364.22 Q 490.2 364.89 489.47 366.3 Q 488.75 367.7 488.75 369.9 L 488.75 381.61 L 481.89 381.61 L 481.89 357.94 L 488.44 357.94 L 488.44 364.5 L 487.2 362.51 Q 488.48 360.14 490.86 358.86 Q 493.23 357.58 496.28 357.58 z M 523.6 390.5 Q 520.25 390.5 517.14 389.69 Q 514.05 388.87 511.99 387.23 L 514.71 382.31 Q 516.21 383.55 518.52 384.26 Q 520.83 385 523.06 385 Q 526.72 385 528.36 383.36 Q 530.02 381.73 530.02 378.53 L 530.02 374.97 L 530.46 369.03 L 530.38 363.05 L 530.38 357.94 L 536.89 357.94 L 536.89 377.65 Q 536.89 384.25 533.46 387.37 Q 530.02 390.5 523.6 390.5 z M 522.55 380.47 Q 519.24 380.47 516.58 379.05 Q 513.92 377.61 512.31 375.03 Q 510.71 372.45 510.71 369.03 Q 510.71 365.55 512.31 362.98 Q 513.92 360.4 516.58 359 Q 519.24 357.58 522.55 357.58 Q 525.53 357.58 527.81 358.8 Q 530.11 360 531.38 362.53 Q 532.66 365.06 532.66 369.03 Q 532.66 372.94 531.38 375.47 Q 530.11 378 527.81 379.23 Q 525.53 380.47 522.55 380.47 z M 523.91 374.83 Q 525.71 374.83 527.11 374.11 Q 528.53 373.37 529.31 372.06 Q 530.11 370.73 530.11 369.03 Q 530.11 367.26 529.31 365.97 Q 528.53 364.67 527.11 363.95 Q 525.71 363.22 523.91 363.22 Q 522.1 363.22 520.69 363.95 Q 519.28 364.67 518.47 365.97 Q 517.66 367.26 517.66 369.03 Q 517.66 370.73 518.47 372.06 Q 519.28 373.37 520.69 374.11 Q 522.1 374.83 523.91 374.83 z" stroke="none" stroke-opacity="0" stroke-width="0" stroke-dasharray="none" stroke-dashoffset="0" stroke-linecap="square" stroke-linejoin="miter" stroke-miterlimit="10" fill="#111c28" fill-opacity="1" fill-rule="nonzero" opacity="1" transform=" translate(-419.26, -368.74)" class="MIyLwCIT_47"></path></g></g></g></g></g></g></g></g></g><style data-made-with="vivus-instant">.MIyLwCIT_0{stroke-dasharray:3000 3002;stroke-dashoffset:3001;animation:MIyLwCIT_draw 2000ms linear 0ms forwards;}.MIyLwCIT_1{stroke-dasharray:355 357;stroke-dashoffset:356;animation:MIyLwCIT_draw 2000ms linear 21ms forwards;}.MIyLwCIT_2{stroke-dasharray:3000 3002;stroke-dashoffset:3001;animation:MIyLwCIT_draw 2000ms linear 42ms forwards;}.MIyLwCIT_3{stroke-dasharray:355 357;stroke-dashoffset:356;animation:MIyLwCIT_draw 2000ms linear 63ms forwards;}.MIyLwCIT_4{stroke-dasharray:3000 3002;stroke-dashoffset:3001;animation:MIyLwCIT_draw 2000ms linear 85ms forwards;}.MIyLwCIT_5{stroke-dasharray:124 126;stroke-dashoffset:125;animation:MIyLwCIT_draw 2000ms linear 106ms forwards;}.MIyLwCIT_6{stroke-dasharray:3000 3002;stroke-dashoffset:3001;animation:MIyLwCIT_draw 2000ms linear 127ms forwards;}.MIyLwCIT_7{stroke-dasharray:124 126;stroke-dashoffset:125;animation:MIyLwCIT_draw 2000ms linear 148ms forwards;}.MIyLwCIT_8{stroke-dasharray:3000 3002;stroke-dashoffset:3001;animation:MIyLwCIT_draw 2000ms linear 170ms forwards;}.MIyLwCIT_9{stroke-dasharray:211 213;stroke-dashoffset:212;animation:MIyLwCIT_draw 2000ms linear 191ms forwards;}.MIyLwCIT_10{stroke-dasharray:3000 3002;stroke-dashoffset:3001;animation:MIyLwCIT_draw 2000ms linear 212ms forwards;}.MIyLwCIT_11{stroke-dasharray:211 213;stroke-dashoffset:212;animation:MIyLwCIT_draw 2000ms linear 234ms forwards;}.MIyLwCIT_12{stroke-dasharray:3000 3002;stroke-dashoffset:3001;animation:MIyLwCIT_draw 2000ms linear 255ms forwards;}.MIyLwCIT_13{stroke-dasharray:2476 2478;stroke-dashoffset:2477;animation:MIyLwCIT_draw 2000ms linear 276ms forwards;}.MIyLwCIT_14{stroke-dasharray:3000 3002;stroke-dashoffset:3001;animation:MIyLwCIT_draw 2000ms linear 297ms forwards;}.MIyLwCIT_15{stroke-dasharray:747 749;stroke-dashoffset:748;animation:MIyLwCIT_draw 2000ms linear 319ms forwards;}.MIyLwCIT_16{stroke-dasharray:3000 3002;stroke-dashoffset:3001;animation:MIyLwCIT_draw 2000ms linear 340ms forwards;}.MIyLwCIT_17{stroke-dasharray:2658 2660;stroke-dashoffset:2659;animation:MIyLwCIT_draw 2000ms linear 361ms forwards;}.MIyLwCIT_18{stroke-dasharray:3000 3002;stroke-dashoffset:3001;animation:MIyLwCIT_draw 2000ms linear 382ms forwards;}.MIyLwCIT_19{stroke-dasharray:3206 3208;stroke-dashoffset:3207;animation:MIyLwCIT_draw 2000ms linear 404ms forwards;}.MIyLwCIT_20{stroke-dasharray:3000 3002;stroke-dashoffset:3001;animation:MIyLwCIT_draw 2000ms linear 425ms forwards;}.MIyLwCIT_21{stroke-dasharray:124 126;stroke-dashoffset:125;animation:MIyLwCIT_draw 2000ms linear 446ms forwards;}.MIyLwCIT_22{stroke-dasharray:3000 3002;stroke-dashoffset:3001;animation:MIyLwCIT_draw 2000ms linear 468ms forwards;}.MIyLwCIT_23{stroke-dasharray:1459 1461;stroke-dashoffset:1460;animation:MIyLwCIT_draw 2000ms linear 489ms forwards;}.MIyLwCIT_24{stroke-dasharray:3000 3002;stroke-dashoffset:3001;animation:MIyLwCIT_draw 2000ms linear 510ms forwards;}.MIyLwCIT_25{stroke-dasharray:1024 1026;stroke-dashoffset:1025;animation:MIyLwCIT_draw 2000ms linear 531ms forwards;}.MIyLwCIT_26{stroke-dasharray:3000 3002;stroke-dashoffset:3001;animation:MIyLwCIT_draw 2000ms linear 553ms forwards;}.MIyLwCIT_27{stroke-dasharray:1024 1026;stroke-dashoffset:1025;animation:MIyLwCIT_draw 2000ms linear 574ms forwards;}.MIyLwCIT_28{stroke-dasharray:3000 3002;stroke-dashoffset:3001;animation:MIyLwCIT_draw 2000ms linear 595ms forwards;}.MIyLwCIT_29{stroke-dasharray:85 87;stroke-dashoffset:86;animation:MIyLwCIT_draw 2000ms linear 617ms forwards;}.MIyLwCIT_30{stroke-dasharray:3000 3002;stroke-dashoffset:3001;animation:MIyLwCIT_draw 2000ms linear 638ms forwards;}.MIyLwCIT_31{stroke-dasharray:1681 1683;stroke-dashoffset:1682;animation:MIyLwCIT_draw 2000ms linear 659ms forwards;}.MIyLwCIT_32{stroke-dasharray:3000 3002;stroke-dashoffset:3001;animation:MIyLwCIT_draw 2000ms linear 680ms forwards;}.MIyLwCIT_33{stroke-dasharray:351 353;stroke-dashoffset:352;animation:MIyLwCIT_draw 2000ms linear 702ms forwards;}.MIyLwCIT_34{stroke-dasharray:3000 3002;stroke-dashoffset:3001;animation:MIyLwCIT_draw 2000ms linear 723ms forwards;}.MIyLwCIT_35{stroke-dasharray:939 941;stroke-dashoffset:940;animation:MIyLwCIT_draw 2000ms linear 744ms forwards;}.MIyLwCIT_36{stroke-dasharray:3000 3002;stroke-dashoffset:3001;animation:MIyLwCIT_draw 2000ms linear 765ms forwards;}.MIyLwCIT_37{stroke-dasharray:779 781;stroke-dashoffset:780;animation:MIyLwCIT_draw 2000ms linear 787ms forwards;}.MIyLwCIT_38{stroke-dasharray:3000 3002;stroke-dashoffset:3001;animation:MIyLwCIT_draw 2000ms linear 808ms forwards;}.MIyLwCIT_39{stroke-dasharray:2216 2218;stroke-dashoffset:2217;animation:MIyLwCIT_draw 2000ms linear 829ms forwards;}.MIyLwCIT_40{stroke-dasharray:3000 3002;stroke-dashoffset:3001;animation:MIyLwCIT_draw 2000ms linear 851ms forwards;}.MIyLwCIT_41{stroke-dasharray:894 896;stroke-dashoffset:895;animation:MIyLwCIT_draw 2000ms linear 872ms forwards;}.MIyLwCIT_42{stroke-dasharray:3000 3002;stroke-dashoffset:3001;animation:MIyLwCIT_draw 2000ms linear 893ms forwards;}.MIyLwCIT_43{stroke-dasharray:1056 1058;stroke-dashoffset:1057;animation:MIyLwCIT_draw 2000ms linear 914ms forwards;}.MIyLwCIT_44{stroke-dasharray:3000 3002;stroke-dashoffset:3001;animation:MIyLwCIT_draw 2000ms linear 936ms forwards;}.MIyLwCIT_45{stroke-dasharray:1679 1681;stroke-dashoffset:1680;animation:MIyLwCIT_draw 2000ms linear 957ms forwards;}.MIyLwCIT_46{stroke-dasharray:3000 3002;stroke-dashoffset:3001;animation:MIyLwCIT_draw 2000ms linear 978ms forwards;}.MIyLwCIT_47{stroke-dasharray:1359 1361;stroke-dashoffset:1360;animation:MIyLwCIT_draw 2000ms linear 1000ms forwards;}@keyframes MIyLwCIT_draw{100%{stroke-dashoffset:0;}}@keyframes MIyLwCIT_fade{0%{stroke-opacity:1;}94.44444444444444%{stroke-opacity:1;}100%{stroke-opacity:0;}}</style></svg>