<svg version="1.1" viewBox="0.0 0.0 540.0944881889764 960.0" fill="none" stroke="none" stroke-linecap="square" stroke-miterlimit="10" xmlns:xlink="http://www.w3.org/1999/xlink" xmlns="http://www.w3.org/2000/svg"><clipPath id="g2cee0276bae_0_0.0"><path d="m0 0l540.0945 0l0 960.0l-540.0945 0l0 -960.0z" clip-rule="nonzero"/></clipPath><g clip-path="url(#g2cee0276bae_0_0.0)"><path fill="#111c28" d="m0 0l540.0945 0l0 960.0l-540.0945 0z" fill-rule="evenodd"/><path shape-rendering="crispEdges" fill="#29caab" d="m69.92163 434.95334l400.25195 0l0 69.32547l-400.25195 0l0 -69.32547z" fill-rule="nonzero"/><path stroke="#9e9e9e" stroke-width="1.0" stroke-linecap="butt" d="m69.42294 504.2788l401.24933 0" fill-rule="nonzero"/><path stroke="#9e9e9e" stroke-width="1.0" stroke-linecap="butt" d="m69.42294 564.00323l401.24933 0" fill-rule="nonzero"/><path stroke="#9e9e9e" stroke-width="1.0" stroke-linecap="butt" d="m69.42294 623.7276l401.24933 0" fill-rule="nonzero"/><path stroke="#9e9e9e" stroke-width="1.0" stroke-linecap="butt" d="m69.42294 683.452l401.24933 0" fill-rule="nonzero"/><path stroke="#9e9e9e" stroke-width="1.0" stroke-linecap="butt" d="m69.42294 743.17645l401.24933 0" fill-rule="nonzero"/><path stroke="#9e9e9e" stroke-width="1.0" stroke-linecap="butt" d="m69.42294 802.9008l401.24933 0" fill-rule="nonzero"/><path fill="#111c28" d="m161.17476 459.3011q3.625 0 5.640625 2.125q2.03125 2.125 2.03125 6.140625l0 12.609375l-4.75 0l0 -12.46875q0 -2.171875 -1.125 -3.265625q-1.125 -1.09375 -2.984375 -1.09375q-2.015625 0 -3.21875 1.15625q-1.203125 1.15625 -1.203125 3.5l0 12.171875l-4.75 0l0 -12.46875q0 -2.171875 -1.0625 -3.265625q-1.046875 -1.09375 -2.875 -1.09375q-1.984375 0 -3.1875 1.15625q-1.203125 1.15625 -1.203125 3.5l0 12.171875l-4.75 0l0 -20.53125l4.59375 0l0 2.53125q0.953125 -1.390625 2.5 -2.125q1.5625 -0.75 3.578125 -0.75q2.109375 0 3.6875 0.78125q1.59375 0.765625 2.4375 2.234375q1.0625 -1.46875 2.765625 -2.234375q1.71875 -0.78125 3.875 -0.78125zm19.559616 21.109375q-2.5 0 -4.484375 -1.03125q-1.96875 -1.046875 -3.09375 -2.890625q-1.109375 -1.859375 -1.109375 -4.203125q0 -2.34375 1.109375 -4.1875q1.125 -1.859375 3.09375 -2.890625q1.984375 -1.046875 4.484375 -1.046875q2.484375 0 4.453125 1.046875q1.96875 1.03125 3.078125 2.890625q1.109375 1.84375 1.109375 4.1875q0 2.34375 -1.109375 4.203125q-1.109375 1.84375 -3.078125 2.890625q-1.96875 1.03125 -4.453125 1.03125zm0 -3.75q1.75 0 2.875 -1.1875q1.140625 -1.1875 1.140625 -3.1875q0 -2.0 -1.140625 -3.1875q-1.125 -1.1875 -2.875 -1.1875q-1.765625 0 -2.90625 1.1875q-1.140625 1.1875 -1.140625 3.1875q0 2.0 1.140625 3.1875q1.140625 1.1875 2.90625 1.1875zm27.772415 -18.25l0 21.765625l-4.375 0l0 -1.8125q-1.703125 2.046875 -4.921875 2.046875q-2.234375 0 -4.046875 -1.0q-1.796875 -1.0 -2.828125 -2.84375q-1.015625 -1.84375 -1.015625 -4.28125q0 -2.4375 1.015625 -4.28125q1.03125 -1.84375 2.828125 -2.84375q1.8125 -1.0 4.046875 -1.0q3.015625 0 4.71875 1.90625l0 -7.65625l4.578125 0zm-8.515625 18.25q1.734375 0 2.875 -1.1875q1.15625 -1.1875 1.15625 -3.1875q0 -2.0 -1.15625 -3.1875q-1.140625 -1.1875 -2.875 -1.1875q-1.75 0 -2.90625 1.1875q-1.140625 1.1875 -1.140625 3.1875q0 2.0 1.140625 3.1875q1.15625 1.1875 2.90625 1.1875zm28.623169 -12.265625l0 15.78125l-4.328125 0l0 -1.875q-0.921875 1.03125 -2.1875 1.578125q-1.25 0.53125 -2.71875 0.53125q-3.109375 0 -4.921875 -1.78125q-1.8125 -1.796875 -1.8125 -5.3125l0 -8.921875l4.5625 0l0 8.25q0 3.8125 3.203125 3.8125q1.640625 0 2.640625 -1.0625q1.0 -1.078125 1.0 -3.203125l0 -7.796875l4.5625 0zm9.914032 16.015625q-2.65625 0 -4.15625 -1.421875q-1.5 -1.421875 -1.5 -4.03125l0 -16.546875l4.578125 0l0 16.28125q0 1.0 0.515625 1.546875q0.515625 0.53125 1.453125 0.53125q0.34375 0 0.703125 -0.078125q0.375 -0.09375 0.578125 -0.21875l0.203125 3.5625q-1.140625 0.375 -2.375 0.375zm20.360184 -16.015625l0 15.78125l-4.3749847 0l0 -1.8125q-1.703125 2.046875 -4.921875 2.046875q-2.234375 0 -4.046875 -1.0q-1.796875 -1.0 -2.828125 -2.84375q-1.015625 -1.84375 -1.015625 -4.28125q0 -2.4375 1.015625 -4.28125q1.03125 -1.84375 2.828125 -2.84375q1.8125 -1.0 4.046875 -1.0q3.015625 0 4.71875 1.90625l0 -1.671875l4.5781097 0zm-8.499985 12.265625q1.71875 0 2.859375 -1.1875q1.15625 -1.1875 1.15625 -3.1875q0 -2.0 -1.15625 -3.1875q-1.140625 -1.1875 -2.859375 -1.1875q-1.765625 0 -2.90625 1.1875q-1.140625 1.1875 -1.140625 3.1875q0 2.0 1.140625 3.1875q1.140625 1.1875 2.90625 1.1875zm17.095749 -10.1875q0.8125 -1.140625 2.203125 -1.71875q1.40625 -0.59375 3.21875 -0.59375l0 4.21875q-0.765625 -0.046875 -1.03125 -0.046875q-1.953125 0 -3.078125 1.09375q-1.109375 1.09375 -1.109375 3.296875l0 7.453125l-4.578125 0l0 -15.78125l4.375 0l0 2.078125zm26.721527 14.0625q-3.140625 0 -5.6875 -1.359375q-2.53125 -1.375 -3.984375 -3.796875q-1.453125 -2.421875 -1.453125 -5.46875q0 -3.046875 1.453125 -5.46875q1.453125 -2.421875 3.984375 -3.78125q2.546875 -1.359375 5.703125 -1.359375q2.671875 0 4.828125 0.9375q2.15625 0.9375 3.625 2.6875l-3.046875 2.828125q-2.078125 -2.40625 -5.171875 -2.40625q-1.90625 0 -3.40625 0.84375q-1.484375 0.828125 -2.328125 2.328125q-0.828125 1.484375 -0.828125 3.390625q0 1.90625 0.828125 3.40625q0.84375 1.5 2.328125 2.328125q1.5 0.828125 3.40625 0.828125q3.09375 0 5.171875 -2.421875l3.046875 2.8125q-1.46875 1.78125 -3.640625 2.734375q-2.171875 0.9375 -4.828125 0.9375zm18.29953 -0.125q-2.5 0 -4.484375 -1.03125q-1.96875 -1.046875 -3.09375 -2.890625q-1.109375 -1.859375 -1.109375 -4.203125q0 -2.34375 1.109375 -4.1875q1.125 -1.859375 3.09375 -2.890625q1.984375 -1.046875 4.484375 -1.046875q2.484375 0 4.453125 1.046875q1.96875 1.03125 3.078125 2.890625q1.109375 1.84375 1.109375 4.1875q0 2.34375 -1.109375 4.203125q-1.109375 1.84375 -3.078125 2.890625q-1.96875 1.03125 -4.453125 1.03125zm0 -3.75q1.75 0 2.875 -1.1875q1.140625 -1.1875 1.140625 -3.1875q0 -2.0 -1.140625 -3.1875q-1.125 -1.1875 -2.875 -1.1875q-1.765625 0 -2.90625 1.1875q-1.140625 1.1875 -1.140625 3.1875q0 2.0 1.140625 3.1875q1.140625 1.1875 2.90625 1.1875zm21.288055 -12.5q2.9375 0 4.734375 1.765625q1.796875 1.75 1.796875 5.21875l0 9.03125l-4.5625 0l0 -8.328125q0 -1.875 -0.828125 -2.796875q-0.8125 -0.921875 -2.375 -0.921875q-1.734375 0 -2.765625 1.078125q-1.015625 1.0625 -1.015625 3.171875l0 7.796875l-4.578125 0l0 -15.78125l4.375 0l0 1.84375q0.90625 -0.984375 2.25 -1.53125q1.359375 -0.546875 2.96875 -0.546875zm20.171967 15.25q-0.671875 0.5 -1.65625 0.75q-0.984375 0.25 -2.03125 0.25q-2.84375 0 -4.375 -1.4375q-1.515625 -1.4375 -1.515625 -4.21875l0 -13.84375l4.5625 0l0 3.84375l3.90625 0l0 3.515625l-3.90625 0l0 6.421875q0 1.0 0.5 1.546875q0.5 0.53125 1.4375 0.53125q1.0625 0 1.875 -0.578125l1.203125 3.21875zm10.037628 -2.671875q1.234375 0 2.1875 -0.359375q0.953125 -0.375 1.765625 -1.15625l2.4375 2.640625q-2.234375 2.546875 -6.515625 2.546875q-2.671875 0 -4.71875 -1.03125q-2.046875 -1.046875 -3.171875 -2.890625q-1.109375 -1.859375 -1.109375 -4.203125q0 -2.3125 1.09375 -4.171875q1.109375 -1.875 3.03125 -2.90625q1.921875 -1.046875 4.328125 -1.046875q2.25 0 4.09375 0.953125q1.859375 0.953125 2.953125 2.765625q1.09375 1.796875 1.09375 4.265625l-11.671875 2.25q0.5 1.171875 1.5625 1.765625q1.078125 0.578125 2.640625 0.578125zm-0.671875 -9.109375q-1.734375 0 -2.828125 1.109375q-1.078125 1.109375 -1.140625 3.078125l7.6875 -1.5q-0.328125 -1.234375 -1.328125 -1.953125q-0.984375 -0.734375 -2.390625 -0.734375zm20.818542 -3.46875q2.9375 0 4.734375 1.765625q1.796875 1.75 1.796875 5.21875l0 9.03125l-4.5625 0l0 -8.328125q0 -1.875 -0.828125 -2.796875q-0.8125 -0.921875 -2.375 -0.921875q-1.734375 0 -2.765625 1.078125q-1.015625 1.0625 -1.015625 3.171875l0 7.796875l-4.578125 0l0 -15.78125l4.375 0l0 1.84375q0.90625 -0.984375 2.25 -1.53125q1.359375 -0.546875 2.96875 -0.546875zm20.171967 15.25q-0.671875 0.5 -1.65625 0.75q-0.984375 0.25 -2.03125 0.25q-2.84375 0 -4.375 -1.4375q-1.515625 -1.4375 -1.515625 -4.21875l0 -13.84375l4.5625 0l0 3.84375l3.90625 0l0 3.515625l-3.90625 0l0 6.421875q0 1.0 0.5 1.546875q0.5 0.53125 1.4375 0.53125q1.0625 0 1.875 -0.578125l1.203125 3.21875z" fill-rule="nonzero"/><path fill="#ffffff" d="m228.42479 541.946q-1.65625 0 -3.1875 -0.53125q-1.53125 -0.53125 -2.359375 -1.40625l0.625 -1.21875q0.8125 0.8125 2.15625 1.3125q1.34375 0.5 2.765625 0.5q2.0 0 3.0 -0.734375q1.015625 -0.734375 1.015625 -1.90625q0 -0.890625 -0.546875 -1.421875q-0.546875 -0.546875 -1.34375 -0.828125q-0.78125 -0.296875 -2.1875 -0.625q-1.6875 -0.4375 -2.6875 -0.828125q-1.0 -0.390625 -1.71875 -1.203125q-0.71875 -0.8125 -0.71875 -2.203125q0 -1.125 0.59375 -2.046875q0.609375 -0.9375 1.84375 -1.484375q1.234375 -0.5625 3.078125 -0.5625q1.265625 0 2.484375 0.359375q1.234375 0.34375 2.140625 0.96875l-0.53125 1.25q-0.9375 -0.609375 -2.015625 -0.921875q-1.0625 -0.3125 -2.078125 -0.3125q-1.96875 0 -2.96875 0.765625q-0.984375 0.75 -0.984375 1.953125q0 0.890625 0.546875 1.4375q0.546875 0.546875 1.359375 0.828125q0.828125 0.28125 2.203125 0.625q1.65625 0.40625 2.65625 0.8125q1.015625 0.390625 1.71875 1.1875q0.703125 0.796875 0.703125 2.15625q0 1.140625 -0.609375 2.078125q-0.59375 0.921875 -1.859375 1.46875q-1.265625 0.53125 -3.09375 0.53125zm14.210602 -0.8125q-0.4375 0.390625 -1.0625 0.59375q-0.609375 0.203125 -1.28125 0.203125q-1.578125 0 -2.4375 -0.84375q-0.859375 -0.859375 -0.859375 -2.421875l0 -10.515625l1.515625 0l0 2.453125l3.390625 0l0 1.28125l-3.390625 0l0 6.703125q0 1.0 0.484375 1.53125q0.5 0.515625 1.4375 0.515625q1.03125 0 1.671875 -0.578125l0.53125 1.078125zm12.573135 -10.53125l0 11.21875l-1.4375 0l0 -2.21875q-0.6875 1.125 -1.8125 1.734375q-1.109375 0.59375 -2.53125 0.59375q-1.578125 0 -2.859375 -0.71875q-1.265625 -0.734375 -2.0 -2.03125q-0.71875 -1.3125 -0.71875 -2.96875q0 -1.65625 0.71875 -2.953125q0.734375 -1.3125 2.0 -2.015625q1.28125 -0.71875 2.859375 -0.71875q1.375 0 2.46875 0.5625q1.09375 0.5625 1.796875 1.65625l0 -2.140625l1.515625 0zm-5.640625 9.984375q1.171875 0 2.109375 -0.546875q0.953125 -0.546875 1.5 -1.546875q0.546875 -1.0 0.546875 -2.28125q0 -1.28125 -0.546875 -2.28125q-0.546875 -1.0 -1.5 -1.546875q-0.9375 -0.546875 -2.109375 -0.546875q-1.203125 0 -2.15625 0.546875q-0.9375 0.546875 -1.484375 1.546875q-0.546875 1.0 -0.546875 2.28125q0 1.28125 0.546875 2.28125q0.546875 1.0 1.484375 1.546875q0.953125 0.546875 2.15625 0.546875zm15.39801 0.546875q-0.4375 0.390625 -1.0625 0.59375q-0.609375 0.203125 -1.28125 0.203125q-1.578125 0 -2.4375 -0.84375q-0.859375 -0.859375 -0.859375 -2.421875l0 -10.515625l1.515625 0l0 2.453125l3.390625 0l0 1.28125l-3.390625 0l0 6.703125q0 1.0 0.484375 1.53125q0.5 0.515625 1.4375 0.515625q1.03125 0 1.671875 -0.578125l0.53125 1.078125zm2.74411 -10.53125l1.515625 0l0 11.21875l-1.515625 0l0 -11.21875zm0.765625 -2.453125q-0.46875 0 -0.78125 -0.3125q-0.3125 -0.328125 -0.3125 -0.78125q0 -0.421875 0.3125 -0.734375q0.3125 -0.328125 0.78125 -0.328125q0.484375 0 0.796875 0.3125q0.3125 0.3125 0.3125 0.734375q0 0.46875 -0.3125 0.796875q-0.3125 0.3125 -0.796875 0.3125zm7.987274 13.78125q-1.375 0 -2.625 -0.390625q-1.234375 -0.40625 -1.953125 -1.0l0.6875 -1.1875q0.703125 0.546875 1.765625 0.90625q1.078125 0.34375 2.21875 0.34375q1.546875 0 2.28125 -0.46875q0.734375 -0.484375 0.734375 -1.359375q0 -0.625 -0.40625 -0.96875q-0.40625 -0.359375 -1.03125 -0.53125q-0.609375 -0.1875 -1.640625 -0.359375q-1.359375 -0.25 -2.1875 -0.515625q-0.828125 -0.265625 -1.421875 -0.90625q-0.59375 -0.640625 -0.59375 -1.78125q0 -1.40625 1.171875 -2.296875q1.1875 -0.890625 3.265625 -0.890625q1.09375 0 2.171875 0.28125q1.09375 0.28125 1.796875 0.75l-0.65625 1.21875q-1.390625 -0.953125 -3.3125 -0.953125q-1.4375 0 -2.1875 0.515625q-0.734375 0.5 -0.734375 1.34375q0 0.640625 0.421875 1.03125q0.421875 0.375 1.03125 0.5625q0.625 0.171875 1.703125 0.359375q1.34375 0.265625 2.15625 0.515625q0.8125 0.25 1.390625 0.875q0.578125 0.609375 0.578125 1.703125q0 1.46875 -1.234375 2.34375q-1.21875 0.859375 -3.390625 0.859375zm12.945129 -0.796875q-0.4375 0.390625 -1.0625 0.59375q-0.609375 0.203125 -1.28125 0.203125q-1.578125 0 -2.4375 -0.84375q-0.859375 -0.859375 -0.859375 -2.421875l0 -10.515625l1.515625 0l0 2.453125l3.390625 0l0 1.28125l-3.390625 0l0 6.703125q0 1.0 0.484375 1.53125q0.5 0.515625 1.4375 0.515625q1.03125 0 1.671875 -0.578125l0.53125 1.078125zm2.7440796 -10.53125l1.515625 0l0 11.21875l-1.515625 0l0 -11.21875zm0.765625 -2.453125q-0.46875 0 -0.78125 -0.3125q-0.3125 -0.328125 -0.3125 -0.78125q0 -0.421875 0.3125 -0.734375q0.3125 -0.328125 0.78125 -0.328125q0.484375 0 0.796875 0.3125q0.3125 0.3125 0.3125 0.734375q0 0.46875 -0.3125 0.796875q-0.3125 0.3125 -0.796875 0.3125zm9.62793 13.78125q-1.671875 0 -2.984375 -0.71875q-1.3125 -0.734375 -2.0625 -2.046875q-0.734375 -1.3125 -0.734375 -2.953125q0 -1.640625 0.734375 -2.9375q0.75 -1.3125 2.0625 -2.03125q1.3125 -0.71875 2.984375 -0.71875q1.453125 0 2.59375 0.5625q1.140625 0.5625 1.796875 1.65625l-1.125 0.765625q-0.5625 -0.84375 -1.421875 -1.25q-0.84375 -0.421875 -1.84375 -0.421875q-1.21875 0 -2.1875 0.546875q-0.96875 0.546875 -1.515625 1.546875q-0.546875 1.0 -0.546875 2.28125q0 1.296875 0.546875 2.296875q0.546875 0.984375 1.515625 1.53125q0.96875 0.546875 2.1875 0.546875q1.0 0 1.84375 -0.40625q0.859375 -0.40625 1.421875 -1.234375l1.125 0.765625q-0.65625 1.078125 -1.8125 1.65625q-1.15625 0.5625 -2.578125 0.5625zm10.367157 0q-1.375 0 -2.625 -0.390625q-1.234375 -0.40625 -1.953125 -1.0l0.6875 -1.1875q0.703125 0.546875 1.765625 0.90625q1.078125 0.34375 2.21875 0.34375q1.546875 0 2.28125 -0.46875q0.734375 -0.484375 0.734375 -1.359375q0 -0.625 -0.40625 -0.96875q-0.40625 -0.359375 -1.03125 -0.53125q-0.609375 -0.1875 -1.640625 -0.359375q-1.359375 -0.25 -2.1875 -0.515625q-0.828125 -0.265625 -1.421875 -0.90625q-0.59375 -0.640625 -0.59375 -1.78125q0 -1.40625 1.171875 -2.296875q1.1875 -0.890625 3.265625 -0.890625q1.09375 0 2.171875 0.28125q1.09375 0.28125 1.796875 0.75l-0.65625 1.21875q-1.390625 -0.953125 -3.3125 -0.953125q-1.4375 0 -2.1875 0.515625q-0.734375 0.5 -0.734375 1.34375q0 0.640625 0.421875 1.03125q0.421875 0.375 1.03125 0.5625q0.625 0.171875 1.703125 0.359375q1.34375 0.265625 2.15625 0.515625q0.8125 0.25 1.390625 0.875q0.578125 0.609375 0.578125 1.703125q0 1.46875 -1.234375 2.34375q-1.21875 0.859375 -3.390625 0.859375z" fill-rule="nonzero"/><path fill="#ffffff" d="m209.76175 599.8423q-0.921875 0.875 -2.453125 1.359375q-1.515625 0.46875 -3.375 0.46875q-1.953125 0 -3.328125 -0.53125q-1.375 -0.53125 -2.078125 -1.46875q-0.68751526 -0.9375 -0.68751526 -2.15625q0 -1.34375 0.79689026 -2.28125q0.796875 -0.9375 2.109375 -1.296875q-1.078125 -0.40625 -1.671875 -1.296875q-0.59375 -0.890625 -0.59375 -2.078125q0 -1.125 0.640625 -2.046875q0.65625 -0.9375 1.96875 -1.484375q1.3125 -0.546875 3.171875 -0.546875q1.359375 0 2.640625 0.3125q1.296875 0.3125 2.21875 0.890625l-0.484375 1.25q-1.96875 -1.109375 -4.3125 -1.109375q-2.0625 0 -3.171875 0.796875q-1.09375 0.78125 -1.09375 2.046875q0 1.25 0.875 1.9375q0.890625 0.6875 2.515625 0.6875l3.71875 0l0 1.359375l-3.78125 0q-1.828125 0 -2.90625 0.703125q-1.0625 0.6875 -1.0625 2.046875q0 1.34375 1.15625 2.140625q1.171875 0.78125 3.4375 0.78125q1.578125 0 2.9375 -0.4375q1.359375 -0.453125 2.21875 -1.25l0.59375 1.203125zm7.001953 1.8125q-1.671875 0 -2.984375 -0.71875q-1.3125 -0.734375 -2.0625 -2.046875q-0.734375 -1.3125 -0.734375 -2.953125q0 -1.640625 0.734375 -2.9375q0.75 -1.3125 2.0625 -2.03125q1.3125 -0.71875 2.984375 -0.71875q1.453125 0 2.59375 0.5625q1.140625 0.5625 1.796875 1.65625l-1.125 0.765625q-0.5625 -0.84375 -1.421875 -1.25q-0.84375 -0.421875 -1.84375 -0.421875q-1.21875 0 -2.1875 0.546875q-0.96875 0.546875 -1.515625 1.546875q-0.546875 1.0 -0.546875 2.28125q0 1.296875 0.546875 2.296875q0.546875 0.984375 1.515625 1.53125q0.96875 0.546875 2.1875 0.546875q1.0 0 1.84375 -0.40625q0.859375 -0.40625 1.421875 -1.234375l1.125 0.765625q-0.65625 1.078125 -1.8125 1.65625q-1.15625 0.5625 -2.578125 0.5625zm11.753265 0q-1.625 0 -2.9375 -0.734375q-1.296875 -0.734375 -2.046875 -2.03125q-0.734375 -1.3125 -0.734375 -2.953125q0 -1.640625 0.734375 -2.9375q0.75 -1.3125 2.046875 -2.03125q1.3125 -0.71875 2.9375 -0.71875q1.609375 0 2.90625 0.71875q1.3125 0.71875 2.046875 2.03125q0.734375 1.296875 0.734375 2.9375q0 1.640625 -0.734375 2.953125q-0.734375 1.296875 -2.046875 2.03125q-1.296875 0.734375 -2.90625 0.734375zm0 -1.34375q1.1875 0 2.140625 -0.546875q0.953125 -0.546875 1.484375 -1.546875q0.53125 -1.0 0.53125 -2.28125q0 -1.28125 -0.53125 -2.28125q-0.53125 -1.0 -1.484375 -1.546875q-0.953125 -0.546875 -2.140625 -0.546875q-1.203125 0 -2.15625 0.546875q-0.9375 0.546875 -1.484375 1.546875q-0.546875 1.0 -0.546875 2.28125q0 1.28125 0.546875 2.28125q0.546875 1.0 1.484375 1.546875q0.953125 0.546875 2.15625 0.546875zm14.497803 -10.0625q2.109375 0 3.359375 1.234375q1.25 1.21875 1.25 3.5625l0 6.5l-1.515625 0l0 -6.359375q0 -1.75 -0.875 -2.65625q-0.875 -0.921875 -2.5 -0.921875q-1.8125 0 -2.875 1.078125q-1.046875 1.078125 -1.046875 2.96875l0 5.890625l-1.515625 0l0 -11.21875l1.453125 0l0 2.0625q0.625 -1.015625 1.71875 -1.578125q1.09375 -0.5625 2.546875 -0.5625zm13.356842 11.40625q-1.625 0 -2.9375 -0.734375q-1.296875 -0.734375 -2.046875 -2.03125q-0.734375 -1.3125 -0.734375 -2.953125q0 -1.640625 0.734375 -2.9375q0.75 -1.3125 2.046875 -2.03125q1.3125 -0.71875 2.9375 -0.71875q1.609375 0 2.90625 0.71875q1.3125 0.71875 2.046875 2.03125q0.734375 1.296875 0.734375 2.9375q0 1.640625 -0.734375 2.953125q-0.734375 1.296875 -2.046875 2.03125q-1.296875 0.734375 -2.90625 0.734375zm0 -1.34375q1.1875 0 2.140625 -0.546875q0.953125 -0.546875 1.484375 -1.546875q0.53125 -1.0 0.53125 -2.28125q0 -1.28125 -0.53125 -2.28125q-0.53125 -1.0 -1.484375 -1.546875q-0.953125 -0.546875 -2.140625 -0.546875q-1.203125 0 -2.15625 0.546875q-0.9375 0.546875 -1.484375 1.546875q-0.546875 1.0 -0.546875 2.28125q0 1.28125 0.546875 2.28125q0.546875 1.0 1.484375 1.546875q0.953125 0.546875 2.15625 0.546875zm22.779053 -10.0625q2.109375 0 3.3125 1.21875q1.203125 1.203125 1.203125 3.578125l0 6.5l-1.515625 0l0 -6.359375q0 -1.75 -0.84375 -2.65625q-0.84375 -0.921875 -2.375 -0.921875q-1.75 0 -2.75 1.078125q-1.0 1.078125 -1.0 2.96875l0 5.890625l-1.515625 0l0 -6.359375q0 -1.75 -0.84375 -2.65625q-0.84375 -0.921875 -2.40625 -0.921875q-1.71875 0 -2.734375 1.078125q-1.015625 1.078125 -1.015625 2.96875l0 5.890625l-1.515625 0l0 -11.21875l1.453125 0l0 2.046875q0.59375 -1.015625 1.65625 -1.5625q1.078125 -0.5625 2.453125 -0.5625q1.40625 0 2.4375 0.59375q1.046875 0.59375 1.5625 1.765625q0.609375 -1.109375 1.765625 -1.734375q1.171875 -0.625 2.671875 -0.625zm13.46875 10.0625q1.046875 0 1.921875 -0.375q0.890625 -0.375 1.515625 -1.09375l0.859375 0.96875q-0.75 0.90625 -1.859375 1.375q-1.109375 0.46875 -2.453125 0.46875q-1.734375 0 -3.078125 -0.734375q-1.34375 -0.734375 -2.09375 -2.03125q-0.734375 -1.3125 -0.734375 -2.953125q0 -1.640625 0.703125 -2.9375q0.71875 -1.3125 1.96875 -2.03125q1.265625 -0.71875 2.875 -0.71875q1.484375 0 2.6875 0.6875q1.203125 0.671875 1.921875 1.890625q0.71875 1.21875 0.765625 2.765625l-9.21875 1.796875q0.421875 1.359375 1.546875 2.140625q1.125 0.78125 2.671875 0.78125zm-0.375 -8.765625q-1.171875 0 -2.109375 0.546875q-0.921875 0.53125 -1.453125 1.515625q-0.515625 0.96875 -0.515625 2.21875q0 0.328125 0.015625 0.46875l7.921875 -1.53125q-0.265625 -1.40625 -1.3125 -2.3125q-1.03125 -0.90625 -2.546875 -0.90625zm13.991608 9.3125q-0.4375 0.390625 -1.0625 0.59375q-0.609375 0.203125 -1.28125 0.203125q-1.578125 0 -2.4375 -0.84375q-0.859375 -0.859375 -0.859375 -2.421875l0 -10.515625l1.515625 0l0 2.453125l3.390625 0l0 1.28125l-3.390625 0l0 6.703125q0 1.0 0.484375 1.53125q0.5 0.515625 1.4375 0.515625q1.03125 0 1.671875 -0.578125l0.53125 1.078125zm4.197235 -8.328125q0.53125 -1.140625 1.578125 -1.703125q1.0625 -0.578125 2.625 -0.578125l0 1.46875l-0.359375 -0.03125q-1.78125 0 -2.78125 1.09375q-1.0 1.09375 -1.0 3.046875l0 5.71875l-1.515625 0l0 -11.21875l1.453125 0l0 2.203125zm6.9288025 -2.203125l1.515625 0l0 11.21875l-1.515625 0l0 -11.21875zm0.765625 -2.453125q-0.46875 0 -0.78125 -0.3125q-0.3125 -0.328125 -0.3125 -0.78125q0 -0.421875 0.3125 -0.734375q0.3125 -0.328125 0.78125 -0.328125q0.484375 0 0.796875 0.3125q0.3125 0.3125 0.3125 0.734375q0 0.46875 -0.3125 0.796875q-0.3125 0.3125 -0.796875 0.3125zm9.62793 13.78125q-1.671875 0 -2.984375 -0.71875q-1.3125 -0.734375 -2.0625 -2.046875q-0.734375 -1.3125 -0.734375 -2.953125q0 -1.640625 0.734375 -2.9375q0.75 -1.3125 2.0625 -2.03125q1.3125 -0.71875 2.984375 -0.71875q1.453125 0 2.59375 0.5625q1.140625 0.5625 1.796875 1.65625l-1.125 0.765625q-0.5625 -0.84375 -1.421875 -1.25q-0.84375 -0.421875 -1.84375 -0.421875q-1.21875 0 -2.1875 0.546875q-0.96875 0.546875 -1.515625 1.546875q-0.546875 1.0 -0.546875 2.28125q0 1.296875 0.546875 2.296875q0.546875 0.984375 1.515625 1.53125q0.96875 0.546875 2.1875 0.546875q1.0 0 1.84375 -0.40625q0.859375 -0.40625 1.421875 -1.234375l1.125 0.765625q-0.65625 1.078125 -1.8125 1.65625q-1.15625 0.5625 -2.578125 0.5625zm10.367157 0q-1.375 0 -2.625 -0.390625q-1.234375 -0.40625 -1.953125 -1.0l0.6875 -1.1875q0.703125 0.546875 1.765625 0.90625q1.078125 0.34375 2.21875 0.34375q1.546875 0 2.28125 -0.46875q0.734375 -0.484375 0.734375 -1.359375q0 -0.625 -0.40625 -0.96875q-0.40625 -0.359375 -1.03125 -0.53125q-0.609375 -0.1875 -1.640625 -0.359375q-1.359375 -0.25 -2.1875 -0.515625q-0.828125 -0.265625 -1.421875 -0.90625q-0.59375 -0.640625 -0.59375 -1.78125q0 -1.40625 1.171875 -2.296875q1.1875 -0.890625 3.265625 -0.890625q1.09375 0 2.171875 0.28125q1.09375 0.28125 1.796875 0.75l-0.65625 1.21875q-1.390625 -0.953125 -3.3125 -0.953125q-1.4375 0 -2.1875 0.515625q-0.734375 0.5 -0.734375 1.34375q0 0.640625 0.421875 1.03125q0.421875 0.375 1.03125 0.5625q0.625 0.171875 1.703125 0.359375q1.34375 0.265625 2.15625 0.515625q0.8125 0.25 1.390625 0.875q0.578125 0.609375 0.578125 1.703125q0 1.46875 -1.234375 2.34375q-1.21875 0.859375 -3.390625 0.859375z" fill-rule="nonzero"/><path fill="#ffffff" d="m230.46907 653.5667q1.46875 0.328125 2.265625 1.28125q0.796875 0.9375 0.796875 2.4375q0 1.921875 -1.421875 2.953125q-1.40625 1.03125 -4.1875 1.03125l-6.859375 0l0 -14.9375l6.4375 0q2.5 0 3.875 1.015625q1.375 1.0 1.375 2.828125q0 1.234375 -0.609375 2.109375q-0.609375 0.859375 -1.671875 1.28125zm-7.828125 -5.921875l0 5.40625l4.75 0q1.8125 0 2.796875 -0.6875q0.984375 -0.6875 0.984375 -2.015625q0 -1.328125 -0.984375 -2.015625q-0.984375 -0.6875 -2.796875 -0.6875l-4.75 0zm5.265625 12.328125q2.0 0 3.015625 -0.6875q1.03125 -0.6875 1.03125 -2.125q0 -2.796875 -4.046875 -2.796875l-5.265625 0l0 5.609375l5.265625 0zm19.143967 -9.921875l0 11.21875l-1.4375 0l0 -2.21875q-0.6875 1.125 -1.8125 1.734375q-1.109375 0.59375 -2.53125 0.59375q-1.578125 0 -2.859375 -0.71875q-1.265625 -0.734375 -2.0 -2.03125q-0.71875 -1.3125 -0.71875 -2.96875q0 -1.65625 0.71875 -2.953125q0.734375 -1.3125 2.0 -2.015625q1.28125 -0.71875 2.859375 -0.71875q1.375 0 2.46875 0.5625q1.09375 0.5625 1.796875 1.65625l0 -2.140625l1.515625 0zm-5.640625 9.984375q1.171875 0 2.109375 -0.546875q0.953125 -0.546875 1.5 -1.546875q0.546875 -1.0 0.546875 -2.28125q0 -1.28125 -0.546875 -2.28125q-0.546875 -1.0 -1.5 -1.546875q-0.9375 -0.546875 -2.109375 -0.546875q-1.203125 0 -2.15625 0.546875q-0.9375 0.546875 -1.484375 1.546875q-0.546875 1.0 -0.546875 2.28125q0 1.28125 0.546875 2.28125q0.546875 1.0 1.484375 1.546875q0.953125 0.546875 2.15625 0.546875zm19.976135 -9.984375l0 9.859375q0 2.859375 -1.296875 4.234375q-1.296875 1.375 -3.921875 1.375q-1.4687347 0 -2.7812347 -0.46875q-1.3125 -0.453125 -2.125 -1.265625l0.765625 -1.15625q0.71875 0.734375 1.78125 1.140625q1.078125 0.40625 2.2968597 0.40625q1.9375 0 2.84375 -1.0q0.921875 -0.984375 0.921875 -3.078125l0 -1.296875q-0.59375 0.96875 -1.625 1.515625q-1.03125 0.53125 -2.3437347 0.53125q-2.1875 0 -3.46875 -1.21875q-1.265625 -1.234375 -1.265625 -3.609375l0 -5.96875l1.515625 0l0 5.828125q0 1.765625 0.875 2.6875q0.875 0.90625 2.4999847 0.90625q1.765625 0 2.78125 -1.078125q1.03125 -1.078125 1.03125 -2.984375l0 -5.359375l1.515625 0zm9.041382 9.984375q1.046875 0 1.921875 -0.375q0.890625 -0.375 1.515625 -1.09375l0.859375 0.96875q-0.75 0.90625 -1.859375 1.375q-1.109375 0.46875 -2.453125 0.46875q-1.734375 0 -3.078125 -0.734375q-1.34375 -0.734375 -2.09375 -2.03125q-0.734375 -1.3125 -0.734375 -2.953125q0 -1.640625 0.703125 -2.9375q0.71875 -1.3125 1.96875 -2.03125q1.265625 -0.71875 2.875 -0.71875q1.484375 0 2.6875 0.6875q1.203125 0.671875 1.921875 1.890625q0.71875 1.21875 0.765625 2.765625l-9.21875 1.796875q0.421875 1.359375 1.546875 2.140625q1.125 0.78125 2.671875 0.78125zm-0.375 -8.765625q-1.171875 0 -2.109375 0.546875q-0.921875 0.53125 -1.453125 1.515625q-0.515625 0.96875 -0.515625 2.21875q0 0.328125 0.015625 0.46875l7.921875 -1.53125q-0.265625 -1.40625 -1.3125 -2.3125q-1.03125 -0.90625 -2.546875 -0.90625zm11.475983 10.109375q-1.375 0 -2.625 -0.390625q-1.234375 -0.40625 -1.953125 -1.0l0.6875 -1.1875q0.703125 0.546875 1.765625 0.90625q1.078125 0.34375 2.21875 0.34375q1.546875 0 2.28125 -0.46875q0.734375 -0.484375 0.734375 -1.359375q0 -0.625 -0.40625 -0.96875q-0.40625 -0.359375 -1.03125 -0.53125q-0.609375 -0.1875 -1.640625 -0.359375q-1.359375 -0.25 -2.1875 -0.515625q-0.828125 -0.265625 -1.421875 -0.90625q-0.59375 -0.640625 -0.59375 -1.78125q0 -1.40625 1.171875 -2.296875q1.1875 -0.890625 3.265625 -0.890625q1.09375 0 2.171875 0.28125q1.09375 0.28125 1.796875 0.75l-0.65625 1.21875q-1.390625 -0.953125 -3.3125 -0.953125q-1.4375 0 -2.1875 0.515625q-0.734375 0.5 -0.734375 1.34375q0 0.640625 0.421875 1.03125q0.421875 0.375 1.03125 0.5625q0.625 0.171875 1.703125 0.359375q1.34375 0.265625 2.15625 0.515625q0.8125 0.25 1.390625 0.875q0.578125 0.609375 0.578125 1.703125q0 1.46875 -1.234375 2.34375q-1.21875 0.859375 -3.390625 0.859375zm7.4138794 -11.328125l1.515625 0l0 11.21875l-1.515625 0l0 -11.21875zm0.765625 -2.453125q-0.46875 0 -0.78125 -0.3125q-0.3125 -0.328125 -0.3125 -0.78125q0 -0.421875 0.3125 -0.734375q0.3125 -0.328125 0.78125 -0.328125q0.484375 0 0.796875 0.3125q0.3125 0.3125 0.3125 0.734375q0 0.46875 -0.3125 0.796875q-0.3125 0.3125 -0.796875 0.3125zm15.206024 2.453125l0 11.21875l-1.4375 0l0 -2.21875q-0.6875 1.125 -1.8125 1.734375q-1.109375 0.59375 -2.53125 0.59375q-1.578125 0 -2.859375 -0.71875q-1.265625 -0.734375 -2.0 -2.03125q-0.71875 -1.3125 -0.71875 -2.96875q0 -1.65625 0.71875 -2.953125q0.734375 -1.3125 2.0 -2.015625q1.28125 -0.71875 2.859375 -0.71875q1.375 0 2.46875 0.5625q1.09375 0.5625 1.796875 1.65625l0 -2.140625l1.515625 0zm-5.640625 9.984375q1.171875 0 2.109375 -0.546875q0.953125 -0.546875 1.5 -1.546875q0.546875 -1.0 0.546875 -2.28125q0 -1.28125 -0.546875 -2.28125q-0.546875 -1.0 -1.5 -1.546875q-0.9375 -0.546875 -2.109375 -0.546875q-1.203125 0 -2.15625 0.546875q-0.9375 0.546875 -1.484375 1.546875q-0.546875 1.0 -0.546875 2.28125q0 1.28125 0.546875 2.28125q0.546875 1.0 1.484375 1.546875q0.953125 0.546875 2.15625 0.546875zm15.585541 -10.0625q2.109375 0 3.359375 1.234375q1.25 1.21875 1.25 3.5625l0 6.5l-1.515625 0l0 -6.359375q0 -1.75 -0.875 -2.65625q-0.875 -0.921875 -2.5 -0.921875q-1.8125 0 -2.875 1.078125q-1.046875 1.078125 -1.046875 2.96875l0 5.890625l-1.515625 0l0 -11.21875l1.453125 0l0 2.0625q0.625 -1.015625 1.71875 -1.578125q1.09375 -0.5625 2.546875 -0.5625z" fill-rule="nonzero"/><path fill="#ffffff" d="m151.50426 720.99426l-3.40625 -4.796875q-0.578125 0.0625 -1.203125 0.0625l-4.0 0l0 4.734375l-1.578125 0l0 -14.9375l5.578125 0q2.859375 0 4.484375 1.375q1.625 1.359375 1.625 3.75q0 1.75 -0.890625 2.953125q-0.890625 1.203125 -2.53125 1.734375l3.65625 5.125l-1.734375 0zm-4.640625 -6.078125q2.203125 0 3.375 -0.984375q1.1875 -0.984375 1.1875 -2.75q0 -1.8125 -1.1875 -2.78125q-1.171875 -0.96875 -3.375 -0.96875l-3.96875 0l0 7.484375l3.96875 0zm13.935928 -11.875l1.390625 0l-7.03125 20.09375l-1.390625 0l7.03125 -20.09375zm8.660568 3.015625q2.859375 0 4.484375 1.375q1.625 1.359375 1.625 3.75q0 2.390625 -1.625 3.75q-1.625 1.34375 -4.484375 1.34375l-4.0 0l0 4.71875l-1.578125 0l0 -14.9375l5.578125 0zm-0.03125 8.84375q2.203125 0 3.375 -0.96875q1.1875 -0.984375 1.1875 -2.75q0 -1.8125 -1.1875 -2.78125q-1.171875 -0.96875 -3.375 -0.96875l-3.96875 0l0 7.46875l3.96875 0zm19.548035 -5.125l0 9.859375q0 2.859375 -1.296875 4.234375q-1.296875 1.375 -3.921875 1.375q-1.46875 0 -2.78125 -0.46875q-1.3125 -0.453125 -2.125 -1.265625l0.765625 -1.15625q0.71875 0.734375 1.78125 1.140625q1.078125 0.40625 2.296875 0.40625q1.9375 0 2.84375 -1.0q0.921875 -0.984375 0.921875 -3.078125l0 -1.296875q-0.59375 0.96875 -1.625 1.515625q-1.03125 0.53125 -2.34375 0.53125q-2.1875 0 -3.46875 -1.21875q-1.265625 -1.234375 -1.265625 -3.609375l0 -5.96875l1.515625 0l0 5.828125q0 1.765625 0.875 2.6875q0.875 0.90625 2.5 0.90625q1.765625 0 2.78125 -1.078125q1.03125 -1.078125 1.03125 -2.984375l0 -5.359375l1.515625 0zm9.775757 10.53125q-0.4375 0.390625 -1.0625 0.59375q-0.609375 0.203125 -1.28125 0.203125q-1.578125 0 -2.4375 -0.84375q-0.859375 -0.859375 -0.859375 -2.421875l0 -10.515625l1.515625 0l0 2.453125l3.390625 0l0 1.28125l-3.390625 0l0 6.703125q0 1.0 0.484375 1.53125q0.5 0.515625 1.4375 0.515625q1.03125 0 1.671875 -0.578125l0.53125 1.078125zm8.462845 -10.609375q2.109375 0 3.359375 1.234375q1.25 1.21875 1.25 3.5625l0 6.5l-1.515625 0l0 -6.359375q0 -1.75 -0.875 -2.65625q-0.875 -0.921875 -2.5 -0.921875q-1.8125 0 -2.875 1.078125q-1.046875 1.078125 -1.046875 2.96875l0 5.890625l-1.515625 0l0 -15.828125l1.515625 0l0 6.578125q0.625 -0.984375 1.703125 -1.515625q1.09375 -0.53125 2.5 -0.53125zm13.356857 11.40625q-1.625 0 -2.9375 -0.734375q-1.296875 -0.734375 -2.046875 -2.03125q-0.734375 -1.3125 -0.734375 -2.953125q0 -1.640625 0.734375 -2.9375q0.75 -1.3125 2.046875 -2.03125q1.3125 -0.71875 2.9375 -0.71875q1.609375 0 2.90625 0.71875q1.3125 0.71875 2.046875 2.03125q0.734375 1.296875 0.734375 2.9375q0 1.640625 -0.734375 2.953125q-0.734375 1.296875 -2.046875 2.03125q-1.296875 0.734375 -2.90625 0.734375zm0 -1.34375q1.1875 0 2.140625 -0.546875q0.953125 -0.546875 1.484375 -1.546875q0.53125 -1.0 0.53125 -2.28125q0 -1.28125 -0.53125 -2.28125q-0.53125 -1.0 -1.484375 -1.546875q-0.953125 -0.546875 -2.140625 -0.546875q-1.203125 0 -2.15625 0.546875q-0.9375 0.546875 -1.484375 1.546875q-0.546875 1.0 -0.546875 2.28125q0 1.28125 0.546875 2.28125q0.546875 1.0 1.484375 1.546875q0.953125 0.546875 2.15625 0.546875zm14.497787 -10.0625q2.109375 0 3.359375 1.234375q1.25 1.21875 1.25 3.5625l0 6.5l-1.515625 0l0 -6.359375q0 -1.75 -0.875 -2.65625q-0.875 -0.921875 -2.5 -0.921875q-1.8125 0 -2.875 1.078125q-1.046875 1.078125 -1.046875 2.96875l0 5.890625l-1.515625 0l0 -11.21875l1.453125 0l0 2.0625q0.625 -1.015625 1.71875 -1.578125q1.09375 -0.5625 2.546875 -0.5625zm20.214691 -3.640625q2.859375 0 4.484375 1.375q1.625 1.359375 1.625 3.75q0 2.390625 -1.625 3.75q-1.625 1.34375 -4.484375 1.34375l-4.0 0l0 4.71875l-1.578125 0l0 -14.9375l5.578125 0zm-0.03125 8.84375q2.203125 0 3.375 -0.96875q1.1875 -0.984375 1.1875 -2.75q0 -1.8125 -1.1875 -2.78125q-1.171875 -0.96875 -3.375 -0.96875l-3.96875 0l0 7.46875l3.96875 0zm10.401123 -2.921875q0.53125 -1.140625 1.578125 -1.703125q1.0625 -0.578125 2.625 -0.578125l0 1.46875l-0.359375 -0.03125q-1.78125 0 -2.78125 1.09375q-1.0 1.09375 -1.0 3.046875l0 5.71875l-1.515625 0l0 -11.21875l1.453125 0l0 2.203125zm11.415894 9.125q-1.625 0 -2.9375 -0.734375q-1.296875 -0.734375 -2.046875 -2.03125q-0.734375 -1.3125 -0.734375 -2.953125q0 -1.640625 0.734375 -2.9375q0.75 -1.3125 2.046875 -2.03125q1.3125 -0.71875 2.9375 -0.71875q1.609375 0 2.90625 0.71875q1.3125 0.71875 2.046875 2.03125q0.734375 1.296875 0.734375 2.9375q0 1.640625 -0.734375 2.953125q-0.734375 1.296875 -2.046875 2.03125q-1.296875 0.734375 -2.90625 0.734375zm0 -1.34375q1.1875 0 2.140625 -0.546875q0.953125 -0.546875 1.484375 -1.546875q0.53125 -1.0 0.53125 -2.28125q0 -1.28125 -0.53125 -2.28125q-0.53125 -1.0 -1.484375 -1.546875q-0.953125 -0.546875 -2.140625 -0.546875q-1.203125 0 -2.15625 0.546875q-0.9375 0.546875 -1.484375 1.546875q-0.546875 1.0 -0.546875 2.28125q0 1.28125 0.546875 2.28125q0.546875 1.0 1.484375 1.546875q0.953125 0.546875 2.15625 0.546875zm19.169678 -9.984375l0 9.859375q0 2.859375 -1.40625 4.234375q-1.390625 1.375 -4.203125 1.375q-1.5625 0 -2.96875 -0.46875q-1.390625 -0.453125 -2.265625 -1.265625l0.78125 -1.15625q0.796875 0.734375 1.953125 1.140625q1.171875 0.40625 2.453125 0.40625q2.140625 0 3.140625 -1.0q1.0 -0.984375 1.0 -3.078125l0 -1.4375q-0.703125 1.078125 -1.84375 1.640625q-1.140625 0.546875 -2.53125 0.546875q-1.578125 0 -2.875 -0.6875q-1.28125 -0.703125 -2.015625 -1.953125q-0.734375 -1.25 -0.734375 -2.828125q0 -1.578125 0.734375 -2.8125q0.734375 -1.234375 2.015625 -1.90625q1.28125 -0.6875 2.875 -0.6875q1.4375 0 2.578125 0.578125q1.15625 0.5625 1.859375 1.65625l0 -2.15625l1.453125 0zm-5.734375 9.453125q1.21875 0 2.1875 -0.515625q0.984375 -0.53125 1.53125 -1.46875q0.546875 -0.9375 0.546875 -2.140625q0 -1.1875 -0.546875 -2.109375q-0.546875 -0.9375 -1.515625 -1.453125q-0.96875 -0.53125 -2.203125 -0.53125q-1.21875 0 -2.1875 0.515625q-0.96875 0.515625 -1.515625 1.453125q-0.546875 0.9375 -0.546875 2.125q0 1.203125 0.546875 2.140625q0.546875 0.9375 1.515625 1.46875q0.96875 0.515625 2.1875 0.515625zm11.428009 -7.25q0.53125 -1.140625 1.578125 -1.703125q1.0625 -0.578125 2.625 -0.578125l0 1.46875l-0.359375 -0.03125q-1.78125 0 -2.78125 1.09375q-1.0 1.09375 -1.0 3.046875l0 5.71875l-1.515625 0l0 -11.21875l1.453125 0l0 2.203125zm17.05655 -2.203125l0 11.21875l-1.4375 0l0 -2.21875q-0.6875 1.125 -1.8125 1.734375q-1.109375 0.59375 -2.53125 0.59375q-1.578125 0 -2.859375 -0.71875q-1.265625 -0.734375 -2.0 -2.03125q-0.71875 -1.3125 -0.71875 -2.96875q0 -1.65625 0.71875 -2.953125q0.734375 -1.3125 2.0 -2.015625q1.28125 -0.71875 2.859375 -0.71875q1.375 0 2.46875 0.5625q1.09375 0.5625 1.796875 1.65625l0 -2.140625l1.515625 0zm-5.640625 9.984375q1.171875 0 2.109375 -0.546875q0.953125 -0.546875 1.5 -1.546875q0.546875 -1.0 0.546875 -2.28125q0 -1.28125 -0.546875 -2.28125q-0.546875 -1.0 -1.5 -1.546875q-0.9375 -0.546875 -2.109375 -0.546875q-1.203125 0 -2.15625 0.546875q-0.9375 0.546875 -1.484375 1.546875q-0.546875 1.0 -0.546875 2.28125q0 1.28125 0.546875 2.28125q0.546875 1.0 1.484375 1.546875q0.953125 0.546875 2.15625 0.546875zm23.86676 -10.0625q2.109375 0 3.3125 1.21875q1.203125 1.203125 1.203125 3.578125l0 6.5l-1.515625 0l0 -6.359375q0 -1.75 -0.84375 -2.65625q-0.84375 -0.921875 -2.375 -0.921875q-1.75 0 -2.75 1.078125q-1.0 1.078125 -1.0 2.96875l0 5.890625l-1.515625 0l0 -6.359375q0 -1.75 -0.84375 -2.65625q-0.84375 -0.921875 -2.40625 -0.921875q-1.71875 0 -2.734375 1.078125q-1.015625 1.078125 -1.015625 2.96875l0 5.890625l-1.515625 0l0 -11.21875l1.453125 0l0 2.046875q0.59375 -1.015625 1.65625 -1.5625q1.078125 -0.5625 2.453125 -0.5625q1.40625 0 2.4375 0.59375q1.046875 0.59375 1.5625 1.765625q0.609375 -1.109375 1.765625 -1.734375q1.171875 -0.625 2.671875 -0.625zm22.629242 0q2.109375 0 3.3125 1.21875q1.203125 1.203125 1.203125 3.578125l0 6.5l-1.515625 0l0 -6.359375q0 -1.75 -0.84375 -2.65625q-0.84375 -0.921875 -2.375 -0.921875q-1.75 0 -2.75 1.078125q-1.0 1.078125 -1.0 2.96875l0 5.890625l-1.515625 0l0 -6.359375q0 -1.75 -0.84375 -2.65625q-0.84375 -0.921875 -2.40625 -0.921875q-1.71875 0 -2.734375 1.078125q-1.015625 1.078125 -1.015625 2.96875l0 5.890625l-1.515625 0l0 -11.21875l1.453125 0l0 2.046875q0.59375 -1.015625 1.65625 -1.5625q1.078125 -0.5625 2.453125 -0.5625q1.40625 0 2.4375 0.59375q1.046875 0.59375 1.5625 1.765625q0.609375 -1.109375 1.765625 -1.734375q1.171875 -0.625 2.671875 -0.625zm8.629242 0.078125l1.515625 0l0 11.21875l-1.515625 0l0 -11.21875zm0.765625 -2.453125q-0.46875 0 -0.78125 -0.3125q-0.3125 -0.328125 -0.3125 -0.78125q0 -0.421875 0.3125 -0.734375q0.3125 -0.328125 0.78125 -0.328125q0.484375 0 0.796875 0.3125q0.3125 0.3125 0.3125 0.734375q0 0.46875 -0.3125 0.796875q-0.3125 0.3125 -0.796875 0.3125zm10.690399 2.375q2.109375 0 3.359375 1.234375q1.25 1.21875 1.25 3.5625l0 6.5l-1.515625 0l0 -6.359375q0 -1.75 -0.875 -2.65625q-0.875 -0.921875 -2.5 -0.921875q-1.8125 0 -2.875 1.078125q-1.046875 1.078125 -1.046875 2.96875l0 5.890625l-1.515625 0l0 -11.21875l1.453125 0l0 2.0625q0.625 -1.015625 1.71875 -1.578125q1.09375 -0.5625 2.546875 -0.5625zm19.153717 0.078125l0 9.859375q0 2.859375 -1.40625 4.234375q-1.390625 1.375 -4.203125 1.375q-1.5625 0 -2.96875 -0.46875q-1.390625 -0.453125 -2.265625 -1.265625l0.78125 -1.15625q0.796875 0.734375 1.953125 1.140625q1.171875 0.40625 2.453125 0.40625q2.140625 0 3.140625 -1.0q1.0 -0.984375 1.0 -3.078125l0 -1.4375q-0.703125 1.078125 -1.84375 1.640625q-1.140625 0.546875 -2.53125 0.546875q-1.578125 0 -2.875 -0.6875q-1.28125 -0.703125 -2.015625 -1.953125q-0.734375 -1.25 -0.734375 -2.828125q0 -1.578125 0.734375 -2.8125q0.734375 -1.234375 2.015625 -1.90625q1.28125 -0.6875 2.875 -0.6875q1.4375 0 2.578125 0.578125q1.15625 0.5625 1.859375 1.65625l0 -2.15625l1.453125 0zm-5.734375 9.453125q1.21875 0 2.1875 -0.515625q0.984375 -0.53125 1.53125 -1.46875q0.546875 -0.9375 0.546875 -2.140625q0 -1.1875 -0.546875 -2.109375q-0.546875 -0.9375 -1.515625 -1.453125q-0.96875 -0.53125 -2.203125 -0.53125q-1.21875 0 -2.1875 0.515625q-0.96875 0.515625 -1.515625 1.453125q-0.546875 0.9375 -0.546875 2.125q0 1.203125 0.546875 2.140625q0.546875 0.9375 1.515625 1.46875q0.96875 0.515625 2.1875 0.515625z" fill-rule="nonzero"/><path fill="#ffffff" d="m208.27641 780.8436q-2.21875 0 -4.015625 -0.984375q-1.796875 -1.0 -2.8125 -2.71875q-1.015625 -1.734375 -1.015625 -3.890625q0 -2.15625 1.015625 -3.875q1.015625 -1.734375 2.8125 -2.71875q1.796875 -1.0 4.015625 -1.0q2.21875 0 4.0 0.984375q1.78125 0.984375 2.796875 2.71875q1.03125 1.734375 1.03125 3.890625q0 2.15625 -1.03125 3.90625q-1.015625 1.734375 -2.796875 2.71875q-1.78125 0.96875 -4.0 0.96875zm0 -1.40625q1.78125 0 3.203125 -0.796875q1.4375 -0.796875 2.234375 -2.21875q0.8125 -1.421875 0.8125 -3.171875q0 -1.75 -0.8125 -3.15625q-0.796875 -1.421875 -2.234375 -2.21875q-1.421875 -0.8125 -3.203125 -0.8125q-1.765625 0 -3.203125 0.8125q-1.4375 0.796875 -2.265625 2.21875q-0.8125 1.40625 -0.8125 3.15625q0 1.75 0.8125 3.171875q0.828125 1.421875 2.265625 2.21875q1.4375 0.796875 3.203125 0.796875zm16.831863 -10.015625q1.578125 0 2.859375 0.71875q1.28125 0.703125 2.0 2.015625q0.734375 1.296875 0.734375 2.953125q0 1.6875 -0.734375 2.984375q-0.71875 1.296875 -2.0 2.015625q-1.265625 0.71875 -2.859375 0.71875q-1.359375 0 -2.46875 -0.5625q-1.09375 -0.578125 -1.796875 -1.65625l0 6.25l-1.515625 0l0 -15.359375l1.453125 0l0 2.21875q0.6875 -1.109375 1.796875 -1.703125q1.125 -0.59375 2.53125 -0.59375zm-0.109375 10.0625q1.171875 0 2.125 -0.546875q0.96875 -0.546875 1.515625 -1.546875q0.546875 -1.0 0.546875 -2.28125q0 -1.28125 -0.546875 -2.265625q-0.546875 -1.0 -1.515625 -1.546875q-0.953125 -0.5625 -2.125 -0.5625q-1.1875 0 -2.140625 0.5625q-0.953125 0.546875 -1.5 1.546875q-0.53125 0.984375 -0.53125 2.265625q0 1.28125 0.53125 2.28125q0.546875 1.0 1.5 1.546875q0.953125 0.546875 2.140625 0.546875zm14.3199005 0.546875q-0.4375 0.390625 -1.0625 0.59375q-0.609375 0.203125 -1.28125 0.203125q-1.578125 0 -2.4375 -0.84375q-0.859375 -0.859375 -0.859375 -2.421875l0 -10.515625l1.515625 0l0 2.453125l3.390625 0l0 1.28125l-3.390625 0l0 6.703125q0 1.0 0.484375 1.53125q0.5 0.515625 1.4375 0.515625q1.03125 0 1.671875 -0.578125l0.53125 1.078125zm2.7440948 -10.53125l1.515625 0l0 11.21875l-1.515625 0l0 -11.21875zm0.765625 -2.453125q-0.46875 0 -0.78125 -0.3125q-0.3125 -0.328125 -0.3125 -0.78125q0 -0.421875 0.3125 -0.734375q0.3125 -0.328125 0.78125 -0.328125q0.484375 0 0.796875 0.3125q0.3125 0.3125 0.3125 0.734375q0 0.46875 -0.3125 0.796875q-0.3125 0.3125 -0.796875 0.3125zm18.97165 2.375q2.109375 0 3.3125 1.21875q1.203125 1.203125 1.203125 3.578125l0 6.5l-1.515625 0l0 -6.359375q0 -1.75 -0.84375 -2.65625q-0.84375 -0.921875 -2.375 -0.921875q-1.75 0 -2.75 1.078125q-1.0 1.078125 -1.0 2.96875l0 5.890625l-1.515625 0l0 -6.359375q0 -1.75 -0.84373474 -2.65625q-0.84375 -0.921875 -2.40625 -0.921875q-1.71875 0 -2.734375 1.078125q-1.015625 1.078125 -1.015625 2.96875l0 5.890625l-1.515625 0l0 -11.21875l1.453125 0l0 2.046875q0.59375 -1.015625 1.65625 -1.5625q1.078125 -0.5625 2.453125 -0.5625q1.40625 0 2.4375 0.59375q1.0468597 0.59375 1.5624847 1.765625q0.609375 -1.109375 1.765625 -1.734375q1.171875 -0.625 2.671875 -0.625zm8.629242 0.078125l1.515625 0l0 11.21875l-1.515625 0l0 -11.21875zm0.765625 -2.453125q-0.46875 0 -0.78125 -0.3125q-0.3125 -0.328125 -0.3125 -0.78125q0 -0.421875 0.3125 -0.734375q0.3125 -0.328125 0.78125 -0.328125q0.484375 0 0.796875 0.3125q0.3125 0.3125 0.3125 0.734375q0 0.46875 -0.3125 0.796875q-0.3125 0.3125 -0.796875 0.3125zm7.987274 13.78125q-1.375 0 -2.625 -0.390625q-1.234375 -0.40625 -1.953125 -1.0l0.6875 -1.1875q0.703125 0.546875 1.765625 0.90625q1.078125 0.34375 2.21875 0.34375q1.546875 0 2.28125 -0.46875q0.734375 -0.484375 0.734375 -1.359375q0 -0.625 -0.40625 -0.96875q-0.40625 -0.359375 -1.03125 -0.53125q-0.609375 -0.1875 -1.640625 -0.359375q-1.359375 -0.25 -2.1875 -0.515625q-0.828125 -0.265625 -1.421875 -0.90625q-0.59375 -0.640625 -0.59375 -1.78125q0 -1.40625 1.171875 -2.296875q1.1875 -0.890625 3.265625 -0.890625q1.09375 0 2.171875 0.28125q1.09375 0.28125 1.796875 0.75l-0.65625 1.21875q-1.390625 -0.953125 -3.3125 -0.953125q-1.4375 0 -2.1875 0.515625q-0.734375 0.5 -0.734375 1.34375q0 0.640625 0.421875 1.03125q0.421875 0.375 1.03125 0.5625q0.625 0.171875 1.703125 0.359375q1.34375 0.265625 2.15625 0.515625q0.8125 0.25 1.390625 0.875q0.578125 0.609375 0.578125 1.703125q0 1.46875 -1.234375 2.34375q-1.21875 0.859375 -3.390625 0.859375zm17.648254 -11.328125l0 11.21875l-1.4375 0l0 -2.21875q-0.6875 1.125 -1.8125 1.734375q-1.109375 0.59375 -2.53125 0.59375q-1.578125 0 -2.859375 -0.71875q-1.265625 -0.734375 -2.0 -2.03125q-0.71875 -1.3125 -0.71875 -2.96875q0 -1.65625 0.71875 -2.953125q0.734375 -1.3125 2.0 -2.015625q1.28125 -0.71875 2.859375 -0.71875q1.375 0 2.46875 0.5625q1.09375 0.5625 1.796875 1.65625l0 -2.140625l1.515625 0zm-5.640625 9.984375q1.171875 0 2.109375 -0.546875q0.953125 -0.546875 1.5 -1.546875q0.546875 -1.0 0.546875 -2.28125q0 -1.28125 -0.546875 -2.28125q-0.546875 -1.0 -1.5 -1.546875q-0.9375 -0.546875 -2.109375 -0.546875q-1.203125 0 -2.15625 0.546875q-0.9375 0.546875 -1.484375 1.546875q-0.546875 1.0 -0.546875 2.28125q0 1.28125 0.546875 2.28125q0.546875 1.0 1.484375 1.546875q0.953125 0.546875 2.15625 0.546875zm15.39801 0.546875q-0.4375 0.390625 -1.0625 0.59375q-0.609375 0.203125 -1.28125 0.203125q-1.578125 0 -2.4375 -0.84375q-0.859375 -0.859375 -0.859375 -2.421875l0 -10.515625l1.515625 0l0 2.453125l3.390625 0l0 1.28125l-3.390625 0l0 6.703125q0 1.0 0.484375 1.53125q0.5 0.515625 1.4375 0.515625q1.03125 0 1.671875 -0.578125l0.53125 1.078125zm2.74411 -10.53125l1.515625 0l0 11.21875l-1.515625 0l0 -11.21875zm0.765625 -2.453125q-0.46875 0 -0.78125 -0.3125q-0.3125 -0.328125 -0.3125 -0.78125q0 -0.421875 0.3125 -0.734375q0.3125 -0.328125 0.78125 -0.328125q0.484375 0 0.796875 0.3125q0.3125 0.3125 0.3125 0.734375q0 0.46875 -0.3125 0.796875q-0.3125 0.3125 -0.796875 0.3125zm9.565399 13.78125q-1.625 0 -2.9375 -0.734375q-1.296875 -0.734375 -2.046875 -2.03125q-0.734375 -1.3125 -0.734375 -2.953125q0 -1.640625 0.734375 -2.9375q0.75 -1.3125 2.046875 -2.03125q1.3125 -0.71875 2.9375 -0.71875q1.609375 0 2.90625 0.71875q1.3125 0.71875 2.046875 2.03125q0.734375 1.296875 0.734375 2.9375q0 1.640625 -0.734375 2.953125q-0.734375 1.296875 -2.046875 2.03125q-1.296875 0.734375 -2.90625 0.734375zm0 -1.34375q1.1875 0 2.140625 -0.546875q0.953125 -0.546875 1.484375 -1.546875q0.53125 -1.0 0.53125 -2.28125q0 -1.28125 -0.53125 -2.28125q-0.53125 -1.0 -1.484375 -1.546875q-0.953125 -0.546875 -2.140625 -0.546875q-1.203125 0 -2.15625 0.546875q-0.9375 0.546875 -1.484375 1.546875q-0.546875 1.0 -0.546875 2.28125q0 1.28125 0.546875 2.28125q0.546875 1.0 1.484375 1.546875q0.953125 0.546875 2.15625 0.546875zm14.497803 -10.0625q2.109375 0 3.359375 1.234375q1.25 1.21875 1.25 3.5625l0 6.5l-1.515625 0l0 -6.359375q0 -1.75 -0.875 -2.65625q-0.875 -0.921875 -2.5 -0.921875q-1.8125 0 -2.875 1.078125q-1.046875 1.078125 -1.046875 2.96875l0 5.890625l-1.515625 0l0 -11.21875l1.453125 0l0 2.0625q0.625 -1.015625 1.71875 -1.578125q1.09375 -0.5625 2.546875 -0.5625z" fill-rule="nonzero"/><path fill="#ffffff" d="m235.81387 825.50555l0 9.078125q0 2.953125 -1.46875 4.46875q-1.453125 1.515625 -4.125 1.515625q-1.765625 0 -3.015625 -0.671875q-1.25 -0.6875 -1.84375 -1.953125q-0.609375 1.28125 -1.859375 1.953125q-1.234375 0.671875 -2.984375 0.671875q-2.6875 0 -4.15625 -1.515625q-1.453125 -1.515625 -1.453125 -4.46875l0 -9.078125l1.578125 0l0 9.015625q0 4.640625 4.03125 4.640625q1.953125 0 3.015625 -1.140625q1.0625 -1.140625 1.0625 -3.5l0 -9.015625l1.5625 0l0 9.015625q0 2.375 1.046875 3.515625q1.0625 1.125 3.015625 1.125q1.953125 0 2.984375 -1.140625q1.046875 -1.140625 1.046875 -3.5l0 -9.015625l1.5625 0zm9.21167 13.703125q1.046875 0 1.921875 -0.375q0.890625 -0.375 1.515625 -1.09375l0.859375 0.96875q-0.75 0.90625 -1.859375 1.375q-1.109375 0.46875 -2.453125 0.46875q-1.734375 0 -3.078125 -0.734375q-1.34375 -0.734375 -2.09375 -2.03125q-0.734375 -1.3125 -0.734375 -2.953125q0 -1.640625 0.703125 -2.9375q0.71875 -1.3125 1.96875 -2.03125q1.265625 -0.71875 2.875 -0.71875q1.484375 0 2.6875 0.6875q1.203125 0.671875 1.921875 1.890625q0.71875 1.21875 0.765625 2.765625l-9.21875 1.796875q0.421875 1.359375 1.546875 2.140625q1.125 0.78125 2.671875 0.78125zm-0.375 -8.765625q-1.171875 0 -2.109375 0.546875q-0.921875 0.53125 -1.453125 1.515625q-0.515625 0.96875 -0.515625 2.21875q0 0.328125 0.015625 0.46875l7.921875 -1.53125q-0.265625 -1.40625 -1.3125 -2.3125q-1.03125 -0.90625 -2.546875 -0.90625zm14.241608 -1.296875q1.578125 0 2.859375 0.71875q1.28125 0.703125 2.0 2.015625q0.734375 1.296875 0.734375 2.953125q0 1.65625 -0.734375 2.96875q-0.71875 1.296875 -2.0 2.03125q-1.28125 0.71875 -2.859375 0.71875q-1.40625 0 -2.53125 -0.59375q-1.109375 -0.609375 -1.796875 -1.734375l0 2.21875l-1.453125 0l0 -15.828125l1.515625 0l0 6.75q0.703125 -1.09375 1.796875 -1.65625q1.109375 -0.5625 2.46875 -0.5625zm-0.109375 10.0625q1.171875 0 2.125 -0.546875q0.96875 -0.546875 1.515625 -1.546875q0.546875 -1.0 0.546875 -2.28125q0 -1.28125 -0.546875 -2.28125q-0.546875 -1.0 -1.515625 -1.546875q-0.953125 -0.546875 -2.125 -0.546875q-1.1875 0 -2.140625 0.546875q-0.953125 0.546875 -1.5 1.546875q-0.53125 1.0 -0.53125 2.28125q0 1.28125 0.53125 2.28125q0.546875 1.0 1.5 1.546875q0.953125 0.546875 2.140625 0.546875zm20.798523 -13.828125q2.90625 0 4.578125 1.703125q1.671875 1.6875 1.671875 4.890625l0 8.46875l-1.5625 0l0 -4.390625l-9.375 0l0 4.390625l-1.546875 0l0 -8.46875q0 -3.203125 1.671875 -4.890625q1.6875 -1.703125 4.5625 -1.703125zm4.6875 9.296875l0 -2.84375q0 -2.5 -1.234375 -3.765625q-1.234375 -1.28125 -3.453125 -1.28125q-2.21875 0 -3.453125 1.28125q-1.234375 1.265625 -1.234375 3.765625l0 2.84375l9.375 0zm11.755768 -5.53125q1.578125 0 2.859375 0.71875q1.28125 0.703125 2.0 2.015625q0.734375 1.296875 0.734375 2.953125q0 1.6875 -0.734375 2.984375q-0.71875 1.296875 -2.0 2.015625q-1.265625 0.71875 -2.859375 0.71875q-1.359375 0 -2.46875 -0.5625q-1.09375 -0.578125 -1.796875 -1.65625l0 6.25l-1.515625 0l0 -15.359375l1.453125 0l0 2.21875q0.6875 -1.109375 1.796875 -1.703125q1.125 -0.59375 2.53125 -0.59375zm-0.109375 10.0625q1.171875 0 2.125 -0.546875q0.96875 -0.546875 1.515625 -1.546875q0.546875 -1.0 0.546875 -2.28125q0 -1.28125 -0.546875 -2.265625q-0.546875 -1.0 -1.515625 -1.546875q-0.953125 -0.5625 -2.125 -0.5625q-1.1875 0 -2.140625 0.5625q-0.953125 0.546875 -1.5 1.546875q-0.53125 0.984375 -0.53125 2.265625q0 1.28125 0.53125 2.28125q0.546875 1.0 1.5 1.546875q0.953125 0.546875 2.140625 0.546875zm14.569885 -10.0625q1.578125 0 2.859375 0.71875q1.28125 0.703125 2.0 2.015625q0.734375 1.296875 0.734375 2.953125q0 1.6875 -0.734375 2.984375q-0.71875 1.296875 -2.0 2.015625q-1.265625 0.71875 -2.859375 0.71875q-1.359375 0 -2.46875 -0.5625q-1.09375 -0.578125 -1.796875 -1.65625l0 6.25l-1.515625 0l0 -15.359375l1.453125 0l0 2.21875q0.6875 -1.109375 1.796875 -1.703125q1.125 -0.59375 2.53125 -0.59375zm-0.109375 10.0625q1.171875 0 2.125 -0.546875q0.96875 -0.546875 1.515625 -1.546875q0.546875 -1.0 0.546875 -2.28125q0 -1.28125 -0.546875 -2.265625q-0.546875 -1.0 -1.515625 -1.546875q-0.953125 -0.5625 -2.125 -0.5625q-1.1875 0 -2.140625 0.5625q-0.953125 0.546875 -1.5 1.546875q-0.53125 0.984375 -0.53125 2.265625q0 1.28125 0.53125 2.28125q0.546875 1.0 1.5 1.546875q0.953125 0.546875 2.140625 0.546875zm11.804291 1.34375q-1.375 0 -2.625 -0.390625q-1.234375 -0.40625 -1.953125 -1.0l0.6875 -1.1875q0.703125 0.546875 1.765625 0.90625q1.078125 0.34375 2.21875 0.34375q1.546875 0 2.28125 -0.46875q0.734375 -0.484375 0.734375 -1.359375q0 -0.625 -0.40625 -0.96875q-0.40625 -0.359375 -1.03125 -0.53125q-0.609375 -0.1875 -1.640625 -0.359375q-1.359375 -0.25 -2.1875 -0.515625q-0.828125 -0.265625 -1.421875 -0.90625q-0.59375 -0.640625 -0.59375 -1.78125q0 -1.40625 1.171875 -2.296875q1.1875 -0.890625 3.265625 -0.890625q1.09375 0 2.171875 0.28125q1.09375 0.28125 1.796875 0.75l-0.65625 1.21875q-1.390625 -0.953125 -3.3125 -0.953125q-1.4375 0 -2.1875 0.515625q-0.734375 0.5 -0.734375 1.34375q0 0.640625 0.421875 1.03125q0.421875 0.375 1.03125 0.5625q0.625 0.171875 1.703125 0.359375q1.34375 0.265625 2.15625 0.515625q0.8125 0.25 1.390625 0.875q0.578125 0.609375 0.578125 1.703125q0 1.46875 -1.234375 2.34375q-1.21875 0.859375 -3.390625 0.859375z" fill-rule="nonzero"/><path fill="#000000" fill-opacity="0.0" d="m41.102192 30.517061l457.88974 0l0 343.84253l-457.88974 0z" fill-rule="evenodd"/><path fill="#ffffff" d="m144.70323 118.11833l5.25 -26.28125l-10.21875 0l0.546875 -2.65625l23.390625 0l-0.546875 2.65625l-10.15625 0l-5.25 26.28125l-3.015625 0zm32.394257 -21.90625q2.9375 0 4.8125 1.140625q1.890625 1.140625 2.609375 3.296875q0.71875 2.140625 0.109375 5.109375l-2.484375 12.359375l-2.9375 0l2.484375 -12.40625q0.65625 -3.21875 -0.6875 -5.03125q-1.34375 -1.828125 -4.734375 -1.828125q-3.46875 0 -5.765625 1.90625q-2.296875 1.90625 -3.078125 5.703125l-2.3125 11.65625l-2.9375 0l6.125 -30.671875l2.9375 0l-3.0625 15.21875l-0.75 -1.078125q1.578125 -2.8125 4.078125 -4.09375q2.5 -1.28125 5.59375 -1.28125zm22.93785 22.109375q-3.09375 0 -5.390625 -1.125q-2.296875 -1.140625 -3.515625 -3.203125q-1.21875 -2.078125 -1.21875 -4.921875q0 -3.71875 1.5625 -6.609375q1.578125 -2.90625 4.296875 -4.578125q2.734375 -1.671875 6.171875 -1.671875q2.890625 0 5.0 1.09375q2.109375 1.09375 3.28125 3.171875q1.171875 2.0625 1.171875 4.953125q0 0.65625 -0.078125 1.34375q-0.078125 0.6875 -0.203125 1.296875l-19.046875 0l0.359375 -2.1875l17.328125 0l-1.203125 0.828125q0.40625 -2.609375 -0.375 -4.375q-0.78125 -1.78125 -2.421875 -2.703125q-1.625 -0.9375 -3.90625 -0.9375q-2.640625 0 -4.703125 1.296875q-2.0625 1.296875 -3.21875 3.59375q-1.15625 2.296875 -1.15625 5.359375q0 3.265625 1.875 5.03125q1.875 1.75 5.640625 1.75q2.1875 0 4.046875 -0.71875q1.859375 -0.734375 3.0625 -2.015625l1.328125 2.109375q-1.53125 1.53125 -3.828125 2.375q-2.296875 0.84375 -4.859375 0.84375zm34.962097 0q-2.84375 0 -4.734375 -1.15625q-1.875 -1.15625 -2.578125 -3.296875q-0.703125 -2.15625 -0.171875 -5.09375l2.484375 -12.359375l2.9375 0l-2.484375 12.359375q-0.609375 3.234375 0.703125 5.078125q1.328125 1.828125 4.625 1.828125q3.4375 0 5.734375 -1.890625q2.296875 -1.90625 3.078125 -5.71875l2.3125 -11.65625l2.9375 0l-4.34375 21.703125l-2.8125 0l1.25 -6.234375l0.609375 1.03125q-1.53125 2.8125 -4.03125 4.109375q-2.5 1.296875 -5.515625 1.296875zm18.678802 -0.203125l6.125 -30.671875l2.9375 0l-6.125 30.671875l-2.9375 0zm18.02353 0.203125q-1.859375 0 -3.1875 -0.796875q-1.3125 -0.8125 -1.828125 -2.296875q-0.515625 -1.484375 -0.109375 -3.5625l3.96875 -20.03125l2.9375 0l-3.96875 19.90625q-0.421875 2.03125 0.296875 3.15625q0.734375 1.109375 2.671875 1.109375q0.90625 0 1.78125 -0.265625q0.875 -0.28125 1.578125 -0.859375l0.6875 2.234375q-1.03125 0.796875 -2.3125 1.109375q-1.28125 0.296875 -2.515625 0.296875zm-6.453125 -19.46875l0.46875 -2.4375l13.421875 0l-0.5 2.4375l-13.390625 0zm16.326141 19.265625l4.296875 -21.703125l2.9375 0l-4.296875 21.703125l-2.9375 0zm7.03125 -26.484375q-0.859375 0 -1.421875 -0.578125q-0.5625 -0.59375 -0.5625 -1.375q0 -0.90625 0.640625 -1.5625q0.640625 -0.671875 1.640625 -0.671875q0.859375 0 1.4375 0.546875q0.59375 0.53125 0.59375 1.359375q0 1.0 -0.671875 1.640625q-0.65625 0.640625 -1.65625 0.640625zm35.007904 4.578125q2.9375 0 4.765625 1.140625q1.84375 1.140625 2.546875 3.296875q0.703125 2.140625 0.078125 5.109375l-2.46875 12.359375l-2.9375 0l2.46875 -12.40625q0.671875 -3.21875 -0.59375 -5.03125q-1.265625 -1.828125 -4.5625 -1.828125q-3.265625 0 -5.484375 1.828125q-2.203125 1.8125 -2.953125 5.453125l-2.390625 11.984375l-2.9375 0l2.484375 -12.40625q0.65625 -3.21875 -0.625 -5.03125q-1.28125 -1.828125 -4.546875 -1.828125q-3.34375 0 -5.546875 1.90625q-2.1875 1.90625 -2.96875 5.703125l-2.3125 11.65625l-2.9375 0l4.296875 -21.703125l2.8125 0l-1.234375 6.25l-0.625 -1.078125q1.578125 -2.8125 3.96875 -4.09375q2.40625 -1.28125 5.421875 -1.28125q2.265625 0 3.890625 0.765625q1.640625 0.765625 2.5625 2.234375q0.9375 1.46875 1.015625 3.484375l-1.515625 -0.328125q1.609375 -3.09375 4.265625 -4.625q2.671875 -1.53125 6.0625 -1.53125zm22.192963 22.109375q-2.765625 0 -4.921875 -1.109375q-2.140625 -1.125 -3.34375 -3.1875q-1.203125 -2.0625 -1.203125 -4.921875q0 -2.765625 0.90625 -5.109375q0.90625 -2.359375 2.5625 -4.109375q1.65625 -1.765625 3.90625 -2.71875q2.25 -0.953125 4.90625 -0.953125q2.84375 0 4.828125 1.015625q1.984375 1.015625 3.0625 2.9375q1.078125 1.921875 1.078125 4.640625q0 3.9375 -1.453125 7.0q-1.453125 3.046875 -4.09375 4.78125q-2.640625 1.734375 -6.234375 1.734375zm0.609375 -2.59375q2.734375 0 4.859375 -1.296875q2.125 -1.3125 3.34375 -3.625q1.234375 -2.3125 1.234375 -5.25q0 -3.21875 -1.890625 -5.0q-1.875 -1.78125 -5.265625 -1.78125q-2.6875 0 -4.84375 1.328125q-2.140625 1.3125 -3.359375 3.609375q-1.21875 2.296875 -1.21875 5.265625q0 3.1875 1.875 4.96875q1.890625 1.78125 5.265625 1.78125zm7.15625 2.390625l1.234375 -6.234375l1.25 -4.390625l0.40625 -4.546875l1.328125 -6.53125l2.9375 0l-4.34375 21.703125l-2.8125 0zm17.895508 0.203125q-1.859375 0 -3.1875 -0.796875q-1.3125 -0.8125 -1.828125 -2.296875q-0.515625 -1.484375 -0.109375 -3.5625l3.96875 -20.03125l2.9375 0l-3.96875 19.90625q-0.421875 2.03125 0.296875 3.15625q0.734375 1.109375 2.671875 1.109375q0.90625 0 1.78125 -0.265625q0.875 -0.28125 1.578125 -0.859375l0.6875 2.234375q-1.03125 0.796875 -2.3125 1.109375q-1.28125 0.296875 -2.515625 0.296875zm-6.453125 -19.46875l0.46875 -2.4375l13.421875 0l-0.5 2.4375l-13.390625 0zm25.462646 19.46875q-3.09375 0 -5.390625 -1.125q-2.296875 -1.140625 -3.515625 -3.203125q-1.21875 -2.078125 -1.21875 -4.921875q0 -3.71875 1.5625 -6.609375q1.578125 -2.90625 4.296875 -4.578125q2.734375 -1.671875 6.171875 -1.671875q2.890625 0 5.0 1.09375q2.109375 1.09375 3.28125 3.171875q1.171875 2.0625 1.171875 4.953125q0 0.65625 -0.078125 1.34375q-0.078125 0.6875 -0.203125 1.296875l-19.046875 0l0.359375 -2.1875l17.328125 0l-1.203125 0.828125q0.40625 -2.609375 -0.375 -4.375q-0.78125 -1.78125 -2.421875 -2.703125q-1.625 -0.9375 -3.90625 -0.9375q-2.640625 0 -4.703125 1.296875q-2.0625 1.296875 -3.21875 3.59375q-1.15625 2.296875 -1.15625 5.359375q0 3.265625 1.875 5.03125q1.875 1.75 5.640625 1.75q2.1875 0 4.046875 -0.71875q1.859375 -0.734375 3.0625 -2.015625l1.328125 2.109375q-1.53125 1.53125 -3.828125 2.375q-2.296875 0.84375 -4.859375 0.84375z" fill-rule="nonzero"/><path fill="#ffffff" d="m75.804565 167.92145q-2.640625 0 -5.0 -0.734375q-2.359375 -0.75 -3.640625 -1.90625l1.40625 -2.3125q1.234375 1.109375 3.265625 1.75q2.03125 0.640625 4.265625 0.640625q3.09375 0 4.765625 -1.03125q1.671875 -1.03125 1.671875 -2.84375q0 -1.25 -0.890625 -1.890625q-0.890625 -0.640625 -2.296875 -0.984375q-1.390625 -0.359375 -2.96875 -0.6875q-1.5625 -0.328125 -2.96875 -0.84375q-1.40625 -0.515625 -2.296875 -1.59375q-0.890625 -1.078125 -0.890625 -2.890625q0 -2.0625 1.171875 -3.59375q1.1875 -1.53125 3.28125 -2.359375q2.109375 -0.828125 4.96875 -0.828125q2.0625 0 4.078125 0.546875q2.03125 0.53125 3.28125 1.484375l-1.25 2.359375q-1.28125 -1.0 -2.96875 -1.4375q-1.6875 -0.4375 -3.390625 -0.4375q-3.015625 0 -4.65625 1.109375q-1.625 1.09375 -1.625 2.859375q0 1.25 0.890625 1.90625q0.890625 0.65625 2.296875 1.03125q1.40625 0.375 2.984375 0.6875q1.59375 0.3125 2.984375 0.84375q1.390625 0.53125 2.265625 1.546875q0.890625 1.015625 0.890625 2.828125q0 2.15625 -1.203125 3.671875q-1.1875 1.5 -3.359375 2.3125q-2.171875 0.796875 -5.0625 0.796875zm23.511902 0q-3.015625 0 -5.234375 -1.125q-2.203125 -1.140625 -3.421875 -3.203125q-1.21875 -2.078125 -1.21875 -4.890625q0 -3.71875 1.609375 -6.625q1.609375 -2.921875 4.453125 -4.59375q2.859375 -1.671875 6.5 -1.671875q3.015625 0 5.21875 1.125q2.21875 1.109375 3.4375 3.171875q1.21875 2.0625 1.21875 4.875q0 3.71875 -1.609375 6.640625q-1.609375 2.90625 -4.4375 4.609375q-2.828125 1.6875 -6.515625 1.6875zm0.203125 -2.59375q2.734375 0 4.859375 -1.296875q2.125 -1.3125 3.34375 -3.625q1.234375 -2.3125 1.234375 -5.25q0 -3.21875 -1.890625 -5.0q-1.875 -1.78125 -5.265625 -1.78125q-2.6875 0 -4.84375 1.328125q-2.140625 1.3125 -3.359375 3.609375q-1.21875 2.296875 -1.21875 5.265625q0 3.1875 1.875 4.96875q1.890625 1.78125 5.265625 1.78125zm16.03778 2.390625l6.125 -30.671875l2.9375 0l-6.125 30.671875l-2.9375 0zm20.21103 0.203125q-2.84375 0 -4.734375 -1.15625q-1.875 -1.15625 -2.578125 -3.296875q-0.703125 -2.15625 -0.171875 -5.09375l2.484375 -12.359375l2.9375 0l-2.484375 12.359375q-0.609375 3.234375 0.703125 5.078125q1.328125 1.828125 4.625 1.828125q3.4375 0 5.734375 -1.890625q2.296875 -1.90625 3.078125 -5.71875l2.3125 -11.65625l2.9375 0l-4.34375 21.703125l-2.8125 0l1.25 -6.234375l0.609375 1.03125q-1.53125 2.8125 -4.03125 4.109375q-2.5 1.296875 -5.515625 1.296875zm25.585052 0q-1.859375 0 -3.1875 -0.796875q-1.3125 -0.8125 -1.828125 -2.296875q-0.515625 -1.484375 -0.109375 -3.5625l3.96875 -20.03125l2.9375 0l-3.96875 19.90625q-0.421875 2.03125 0.296875 3.15625q0.734375 1.109375 2.671875 1.109375q0.90625 0 1.78125 -0.265625q0.875 -0.28125 1.578125 -0.859375l0.6875 2.234375q-1.03125 0.796875 -2.3125 1.109375q-1.28125 0.296875 -2.515625 0.296875zm-6.453125 -19.46875l0.46875 -2.4375l13.421875 0l-0.5 2.4375l-13.390625 0zm16.326126 19.265625l4.296875 -21.703125l2.9375 0l-4.296875 21.703125l-2.9375 0zm7.03125 -26.484375q-0.859375 0 -1.421875 -0.578125q-0.5625 -0.59375 -0.5625 -1.375q0 -0.90625 0.640625 -1.5625q0.640625 -0.671875 1.640625 -0.671875q0.859375 0 1.4375 0.546875q0.59375 0.53125 0.59375 1.359375q0 1.0 -0.671875 1.640625q-0.65625 0.640625 -1.65625 0.640625zm13.757904 26.6875q-3.015625 0 -5.234375 -1.125q-2.203125 -1.140625 -3.421875 -3.203125q-1.21875 -2.078125 -1.21875 -4.890625q0 -3.71875 1.609375 -6.625q1.609375 -2.921875 4.453125 -4.59375q2.859375 -1.671875 6.5 -1.671875q3.015625 0 5.21875 1.125q2.21875 1.109375 3.4375 3.171875q1.21875 2.0625 1.21875 4.875q0 3.71875 -1.609375 6.640625q-1.609375 2.90625 -4.4375 4.609375q-2.828125 1.6875 -6.515625 1.6875zm0.203125 -2.59375q2.734375 0 4.859375 -1.296875q2.125 -1.3125 3.34375 -3.625q1.234375 -2.3125 1.234375 -5.25q0 -3.21875 -1.890625 -5.0q-1.875 -1.78125 -5.265625 -1.78125q-2.6875 0 -4.84375 1.328125q-2.140625 1.3125 -3.359375 3.609375q-1.21875 2.296875 -1.21875 5.265625q0 3.1875 1.875 4.96875q1.890625 1.78125 5.265625 1.78125zm30.959656 -19.515625q2.9375 0 4.8125 1.140625q1.890625 1.140625 2.609375 3.296875q0.71875 2.140625 0.109375 5.109375l-2.484375 12.359375l-2.9375 0l2.484375 -12.40625q0.65625 -3.21875 -0.6875 -5.03125q-1.34375 -1.828125 -4.734375 -1.828125q-3.46875 0 -5.765625 1.90625q-2.296875 1.90625 -3.078125 5.703125l-2.3125 11.65625l-2.9375 0l4.296875 -21.703125l2.8125 0l-1.234375 6.25l-0.625 -1.078125q1.578125 -2.8125 4.078125 -4.09375q2.5 -1.28125 5.59375 -1.28125zm24.343964 21.90625l4.875 -24.46875q0.625 -3.0625 2.5 -4.734375q1.8906403 -1.671875 4.9375153 -1.671875q1.328125 0 2.484375 0.375q1.15625 0.375 1.90625 1.03125l-1.328125 2.15625q-1.15625 -1.078125 -3.0625 -1.078125q-1.890625 0 -3.03125 1.015625q-1.1406403 1.0 -1.5937653 3.234375l-0.65625 3.1875l-0.171875 1.28125l-3.921875 19.671875l-2.9375 0zm-0.046875 -19.265625l0.46875 -2.4375l13.42189 0l-0.5 2.4375l-13.39064 0zm22.85701 19.46875q-3.015625 0 -5.234375 -1.125q-2.203125 -1.140625 -3.421875 -3.203125q-1.21875 -2.078125 -1.21875 -4.890625q0 -3.71875 1.609375 -6.625q1.609375 -2.921875 4.453125 -4.59375q2.859375 -1.671875 6.5 -1.671875q3.015625 0 5.21875 1.125q2.21875 1.109375 3.4375 3.171875q1.21875 2.0625 1.21875 4.875q0 3.71875 -1.609375 6.640625q-1.609375 2.90625 -4.4375 4.609375q-2.828125 1.6875 -6.515625 1.6875zm0.203125 -2.59375q2.734375 0 4.859375 -1.296875q2.125 -1.3125 3.34375 -3.625q1.234375 -2.3125 1.234375 -5.25q0 -3.21875 -1.890625 -5.0q-1.875 -1.78125 -5.265625 -1.78125q-2.6875 0 -4.84375 1.328125q-2.140625 1.3125 -3.359375 3.609375q-1.21875 2.296875 -1.21875 5.265625q0 3.1875 1.875 4.96875q1.890625 1.78125 5.265625 1.78125zm16.03778 2.390625l4.296875 -21.703125l2.8125 0l-1.234375 6.40625l-0.328125 -1.109375q1.4375 -2.859375 3.8125 -4.171875q2.375 -1.328125 5.9375 -1.328125l-0.53125 2.859375q-0.21875 0 -0.40625 -0.015625q-0.171875 -0.03125 -0.421875 -0.03125q-3.46875 0 -5.734375 2.015625q-2.25 2.0 -3.078125 6.046875l-2.1875 11.03125l-2.9375 0zm28.025604 0l5.78125 -28.9375l2.484375 0l8.796875 22.609375l-1.28125 -0.03125l17.359375 -22.578125l2.6875 0l-5.78125 28.9375l-2.9375 0l4.875 -24.421875l0.78125 0.078125l-16.03125 20.671875l-1.4375 0l-8.1875 -20.796875l0.65625 0.125l-4.828125 24.34375l-2.9375 0zm39.468414 0l5.78125 -28.9375l2.484375 0l8.796875 22.609375l-1.28125 -0.03125l17.359375 -22.578125l2.6875 0l-5.78125 28.9375l-2.9375 0l4.875 -24.421875l0.78125 0.078125l-16.03125 20.671875l-1.4375 0l-8.1875 -20.796875l0.65625 0.125l-4.828125 24.34375l-2.9375 0zm39.468445 0l5.78125 -28.9375l2.484375 0l8.796875 22.609375l-1.28125 -0.03125l17.359375 -22.578125l2.6875 0l-5.78125 28.9375l-2.9375 0l4.875 -24.421875l0.78125 0.078125l-16.03125 20.671875l-1.4375 0l-8.1875 -20.796875l0.65625 0.125l-4.828125 24.34375l-2.9375 0zm49.671448 0l4.296875 -21.703125l2.9375 0l-4.296875 21.703125l-2.9375 0zm7.03125 -26.484375q-0.859375 0 -1.421875 -0.578125q-0.5625 -0.59375 -0.5625 -1.375q0 -0.90625 0.640625 -1.5625q0.640625 -0.671875 1.640625 -0.671875q0.859375 0 1.4375 0.546875q0.59375 0.53125 0.59375 1.359375q0 1.0 -0.671875 1.640625q-0.65625 0.640625 -1.65625 0.640625zm10.414124 26.6875q-2.640625 0 -5.0 -0.734375q-2.359375 -0.75 -3.640625 -1.90625l1.40625 -2.3125q1.234375 1.109375 3.265625 1.75q2.03125 0.640625 4.265625 0.640625q3.09375 0 4.765625 -1.03125q1.671875 -1.03125 1.671875 -2.84375q0 -1.25 -0.890625 -1.890625q-0.890625 -0.640625 -2.296875 -0.984375q-1.390625 -0.359375 -2.96875 -0.6875q-1.5625 -0.328125 -2.96875 -0.84375q-1.40625 -0.515625 -2.296875 -1.59375q-0.890625 -1.078125 -0.890625 -2.890625q0 -2.0625 1.171875 -3.59375q1.1875 -1.53125 3.28125 -2.359375q2.109375 -0.828125 4.96875 -0.828125q2.0625 0 4.078125 0.546875q2.03125 0.53125 3.28125 1.484375l-1.25 2.359375q-1.28125 -1.0 -2.96875 -1.4375q-1.6875 -0.4375 -3.390625 -0.4375q-3.015625 0 -4.65625 1.109375q-1.625 1.09375 -1.625 2.859375q0 1.25 0.890625 1.90625q0.890625 0.65625 2.296875 1.03125q1.40625 0.375 2.984375 0.6875q1.59375 0.3125 2.984375 0.84375q1.390625 0.53125 2.265625 1.546875q0.890625 1.015625 0.890625 2.828125q0 2.15625 -1.203125 3.671875q-1.1875 1.5 -3.359375 2.3125q-2.171875 0.796875 -5.0625 0.796875z" fill-rule="nonzero"/><path fill="#29caab" d="m97.1673 217.31831l6.125 -30.671875l6.4375 0l-2.59375 12.9375l-1.734375 6.5l-1.0 5.703125l-1.109375 5.53125l-6.125 0zm14.21875 0.328125q-2.5625 0 -4.484375 -0.90625q-1.921875 -0.90625 -2.984375 -2.78125q-1.046875 -1.890625 -1.046875 -4.734375q0 -3.03125 0.734375 -5.671875q0.75 -2.640625 2.203125 -4.59375q1.453125 -1.96875 3.53125 -3.078125q2.09375 -1.125 4.734375 -1.125q2.609375 0 4.796875 1.1875q2.1875 1.171875 3.5 3.390625q1.328125 2.203125 1.328125 5.375q0 2.765625 -0.953125 5.15625q-0.9375 2.375 -2.625 4.109375q-1.671875 1.734375 -3.90625 2.703125q-2.21875 0.96875 -4.828125 0.96875zm-0.734375 -5.328125q1.9375 0 3.375 -0.921875q1.453125 -0.9375 2.296875 -2.5625q0.84375 -1.640625 0.84375 -3.828125q0 -2.28125 -1.328125 -3.59375q-1.3125 -1.328125 -3.75 -1.328125q-1.859375 0 -3.34375 0.9375q-1.484375 0.921875 -2.3125 2.5625q-0.828125 1.625 -0.828125 3.8125q0 2.28125 1.3125 3.609375q1.328125 1.3125 3.734375 1.3125zm24.547699 5.328125q-2.734375 0 -4.71875 -1.171875q-1.984375 -1.1875 -2.8125 -3.453125q-0.828125 -2.28125 -0.15625 -5.625l2.4375 -12.3125l6.4375 0l-2.34375 11.90625q-0.5 2.4375 0.390625 3.765625q0.890625 1.3125 3.15625 1.3125q2.390625 0 4.015625 -1.40625q1.640625 -1.40625 2.1875 -4.296875l2.265625 -11.28125l6.453125 0l-4.421875 22.234375l-6.125 0l1.25 -6.28125l0.90625 1.90625q-1.578125 2.4375 -3.9375 3.578125q-2.34375 1.125 -4.984375 1.125zm18.876846 -0.328125l4.421875 -22.234375l6.40625 0l-4.421875 22.234375l-6.40625 0zm8.71875 -25.328125q-1.6875 0 -2.734375 -0.96875q-1.03125 -0.984375 -1.03125 -2.390625q0 -1.640625 1.171875 -2.734375q1.1875 -1.109375 3.09375 -1.109375q1.6875 0 2.734375 0.9375q1.0625 0.921875 1.0625 2.296875q0 1.765625 -1.1875 2.875q-1.171875 1.09375 -3.109375 1.09375zm3.6797028 25.328125l6.125 -30.671875l6.4375 0l-6.109375 30.671875l-6.453125 0zm22.564789 0.328125q-2.5625 0 -4.75 -1.171875q-2.1875 -1.1875 -3.515625 -3.40625q-1.3125 -2.234375 -1.3125 -5.375q0 -2.8125 0.921875 -5.171875q0.9375 -2.359375 2.625 -4.09375q1.703125 -1.734375 3.921875 -2.703125q2.234375 -0.96875 4.796875 -0.96875q2.609375 0 4.5 0.90625q1.90625 0.90625 2.953125 2.796875q1.0625 1.875 1.0625 4.71875q0 3.0625 -0.71875 5.6875q-0.71875 2.625 -2.171875 4.59375q-1.453125 1.953125 -3.546875 3.078125q-2.078125 1.109375 -4.765625 1.109375zm1.984375 -5.328125q1.90625 0 3.375 -0.921875q1.46875 -0.9375 2.3125 -2.5625q0.84375 -1.640625 0.84375 -3.828125q0 -2.28125 -1.34375 -3.59375q-1.34375 -1.328125 -3.734375 -1.328125q-1.859375 0 -3.359375 0.9375q-1.484375 0.921875 -2.328125 2.5625q-0.84375 1.625 -0.84375 3.8125q0 2.28125 1.34375 3.609375q1.34375 1.3125 3.734375 1.3125zm4.390625 5.0l0.90625 -4.421875l1.40625 -6.609375l0.859375 -6.609375l2.609375 -13.03125l6.453125 0l-6.125 30.671875l-6.109375 0zm12.099106 0l4.421875 -22.234375l6.40625 0l-4.421875 22.234375l-6.40625 0zm8.71875 -25.328125q-1.6875 0 -2.734375 -0.96875q-1.03125 -0.984375 -1.03125 -2.390625q0 -1.640625 1.171875 -2.734375q1.1875 -1.109375 3.09375 -1.109375q1.6875 0 2.734375 0.9375q1.0625 0.921875 1.0625 2.296875q0 1.765625 -1.1875 2.875q-1.171875 1.09375 -3.109375 1.09375zm21.039078 2.765625q2.859375 0 4.84375 1.1875q1.984375 1.171875 2.796875 3.453125q0.828125 2.265625 0.171875 5.609375l-2.484375 12.3125l-6.4375 0l2.390625 -11.90625q0.5 -2.4375 -0.390625 -3.75q-0.890625 -1.328125 -3.25 -1.328125q-2.4375 0 -4.078125 1.40625q-1.625 1.40625 -2.234375 4.296875l-2.234375 11.28125l-6.453125 0l4.421875 -22.234375l6.125 0l-1.28125 6.28125l-0.90625 -1.90625q1.609375 -2.4375 3.984375 -3.5625q2.375 -1.140625 5.015625 -1.140625zm20.749847 30.90625q-3.2187653 0 -5.9375153 -0.75q-2.703125 -0.734375 -4.640625 -2.1875l3.0625 -4.65625q1.3125 1.0625 3.390625 1.71875q2.09375 0.671875 4.4062653 0.671875q3.359375 0 5.03125 -1.453125q1.671875 -1.4375 2.25 -4.296875l0.78125 -4.0l1.484375 -5.203125l1.0 -5.625l0.90625 -4.796875l6.15625 0l-3.671875 18.515625q-1.28125 6.40625 -4.859375 9.234375q-3.578125 2.828125 -9.359375 2.828125zm0.953125 -9.421875q-2.734375 0 -4.9687653 -1.109375q-2.21875 -1.125 -3.546875 -3.203125q-1.328125 -2.09375 -1.328125 -5.03125q0 -2.5625 0.921875 -4.75q0.9375 -2.1875 2.609375 -3.859375q1.6875 -1.671875 3.9375153 -2.59375q2.25 -0.9375 4.9375 -0.9375q2.4375 0 4.421875 0.90625q1.984375 0.90625 3.078125 2.9375q1.09375 2.015625 0.796875 5.40625q-0.234375 3.6875 -1.609375 6.4375q-1.359375 2.734375 -3.703125 4.265625q-2.328125 1.53125 -5.546875 1.53125zm1.734375 -5.28125q1.90625 0 3.34375 -0.828125q1.453125 -0.828125 2.28125 -2.296875q0.828125 -1.46875 0.828125 -3.375q0 -2.015625 -1.328125 -3.1875q-1.328125 -1.1875 -3.6875 -1.1875q-1.890625 0 -3.359375 0.828125q-1.46875 0.828125 -2.3125 2.296875q-0.84376526 1.46875 -0.84376526 3.359375q0 2.03125 1.3593903 3.21875q1.359375 1.171875 3.71875 1.171875zm38.516235 6.6875q-2.5625 0 -4.75 -1.171875q-2.1875 -1.1875 -3.515625 -3.40625q-1.328125 -2.234375 -1.328125 -5.375q0 -2.8125 0.921875 -5.171875q0.9375 -2.359375 2.625 -4.09375q1.703125 -1.734375 3.9375 -2.703125q2.234375 -0.96875 4.796875 -0.96875q2.765625 0 4.75 1.03125q1.984375 1.03125 2.953125 3.203125q0.96875 2.171875 0.6875 5.59375q-0.203125 3.9375 -1.609375 6.890625q-1.40625 2.953125 -3.78125 4.5625q-2.375 1.609375 -5.6875 1.609375zm1.984375 -5.328125q1.90625 0 3.359375 -0.921875q1.46875 -0.9375 2.3125 -2.5625q0.859375 -1.640625 0.859375 -3.828125q0 -2.28125 -1.34375 -3.59375q-1.34375 -1.328125 -3.734375 -1.328125q-1.859375 0 -3.359375 0.9375q-1.484375 0.921875 -2.328125 2.5625q-0.84375 1.625 -0.84375 3.8125q0 2.28125 1.34375 3.609375q1.34375 1.3125 3.734375 1.3125zm4.421875 5.0l0.875 -4.421875l1.4375 -6.609375l0.875 -6.609375l0.90625 -4.59375l6.4375 0l-4.421875 22.234375l-6.109375 0zm32.821686 0.328125q-2.40625 0 -4.109375 -0.96875q-1.6875 -0.96875 -2.40625 -2.8125q-0.71875 -1.84375 -0.234375 -4.359375l3.84375 -19.34375l6.453125 0l-3.84375 19.296875q-0.25 1.40625 0.28125 2.234375q0.546875 0.828125 1.984375 0.828125q0.671875 0 1.34375 -0.203125q0.6875 -0.203125 1.265625 -0.578125l0.953125 4.59375q-1.203125 0.734375 -2.65625 1.015625q-1.4375 0.296875 -2.875 0.296875zm-8.390625 -17.109375l0.984375 -4.953125l15.421875 0l-1.0 4.953125l-15.40625 0zm28.431366 17.109375q-3.46875 0 -6.015625 -1.234375q-2.546875 -1.25 -3.953125 -3.46875q-1.40625 -2.234375 -1.40625 -5.25q0 -3.71875 1.671875 -6.625q1.6875 -2.921875 4.640625 -4.609375q2.953125 -1.703125 6.796875 -1.703125q3.265625 0 5.609375 1.21875q2.359375 1.21875 3.65625 3.390625q1.3125 2.171875 1.3125 5.1875q0 0.859375 -0.109375 1.734375q-0.09375 0.859375 -0.265625 1.65625l-18.390625 0l0.65625 -3.765625l14.71875 0l-2.640625 1.15625q0.328125 -1.859375 -0.21875 -3.109375q-0.53125 -1.265625 -1.734375 -1.953125q-1.1875 -0.6875 -2.890625 -0.6875q-2.109375 0 -3.578125 1.015625q-1.453125 1.015625 -2.203125 2.796875q-0.75 1.765625 -0.75 4.0q0 2.5625 1.421875 3.828125q1.4375 1.265625 4.328125 1.265625q1.6875 0 3.265625 -0.53125q1.578125 -0.546875 2.6875 -1.546875l2.6875 4.265625q-1.9375 1.53125 -4.359375 2.25q-2.421875 0.71875 -4.9375 0.71875zm24.172882 0q-2.5625 0 -4.75 -1.171875q-2.1875 -1.1875 -3.515625 -3.40625q-1.328125 -2.234375 -1.328125 -5.375q0 -2.8125 0.921875 -5.171875q0.9375 -2.359375 2.625 -4.09375q1.703125 -1.734375 3.9375 -2.703125q2.234375 -0.96875 4.796875 -0.96875q2.765625 0 4.75 1.03125q1.984375 1.03125 2.953125 3.203125q0.96875 2.171875 0.6875 5.59375q-0.203125 3.9375 -1.609375 6.890625q-1.40625 2.953125 -3.78125 4.5625q-2.375 1.609375 -5.6875 1.609375zm1.984375 -5.328125q1.90625 0 3.359375 -0.921875q1.46875 -0.9375 2.3125 -2.5625q0.859375 -1.640625 0.859375 -3.828125q0 -2.28125 -1.34375 -3.59375q-1.34375 -1.328125 -3.734375 -1.328125q-1.859375 0 -3.359375 0.9375q-1.484375 0.921875 -2.328125 2.5625q-0.84375 1.625 -0.84375 3.8125q0 2.28125 1.34375 3.609375q1.34375 1.3125 3.734375 1.3125zm4.421875 5.0l0.875 -4.421875l1.4375 -6.609375l0.875 -6.609375l0.90625 -4.59375l6.4375 0l-4.421875 22.234375l-6.109375 0zm44.39142 -22.5625q2.8125 0 4.75 1.1875q1.9375 1.171875 2.765625 3.453125q0.828125 2.265625 0.125 5.609375l-2.4375 12.3125l-6.453125 0l2.359375 -11.859375q0.53125 -2.484375 -0.34375 -3.796875q-0.859375 -1.328125 -3.0 -1.328125q-2.28125 0 -3.765625 1.34375q-1.484375 1.34375 -2.0625 4.234375l-2.28125 11.40625l-6.4375 0l2.359375 -11.859375q0.484375 -2.484375 -0.359375 -3.796875q-0.84375 -1.328125 -3.0 -1.328125q-2.265625 0 -3.765625 1.34375q-1.484375 1.34375 -2.09375 4.3125l-2.234375 11.328125l-6.453125 0l4.421875 -22.234375l6.125 0l-1.15625 5.65625l-1.0 -1.28125q1.53125 -2.390625 3.796875 -3.546875q2.28125 -1.15625 4.84375 -1.15625q2.0625 0 3.71875 0.75q1.65625 0.734375 2.703125 2.203125q1.0625 1.46875 1.21875 3.65625l-2.46875 -0.625q1.640625 -2.921875 4.21875 -4.453125q2.59375 -1.53125 5.90625 -1.53125z" fill-rule="nonzero"/><path fill="#ffffff" d="m116.66072 267.12143q-2.765625 0 -4.921875 -1.109375q-2.140625 -1.125 -3.34375 -3.1875q-1.203125 -2.0625 -1.203125 -4.921875q0 -2.765625 0.90625 -5.109375q0.90625 -2.359375 2.5625 -4.109375q1.65625 -1.765625 3.90625 -2.71875q2.25 -0.953125 4.90625 -0.953125q2.84375 0 4.828125 1.015625q1.984375 1.015625 3.0625 2.9375q1.078125 1.921875 1.078125 4.640625q0 3.9375 -1.453125 7.0q-1.453125 3.046875 -4.09375 4.78125q-2.640625 1.734375 -6.234375 1.734375zm0.609375 -2.59375q2.734375 0 4.859375 -1.296875q2.125 -1.3125 3.34375 -3.625q1.234375 -2.3125 1.234375 -5.25q0 -3.21875 -1.890625 -5.0q-1.875 -1.78125 -5.265625 -1.78125q-2.6875 0 -4.84375 1.328125q-2.140625 1.3125 -3.359375 3.609375q-1.21875 2.296875 -1.21875 5.265625q0 3.1875 1.875 4.96875q1.890625 1.78125 5.265625 1.78125zm7.15625 2.390625l1.234375 -6.234375l1.25 -4.390625l0.40625 -4.546875l1.328125 -6.53125l2.9375 0l-4.34375 21.703125l-2.8125 0zm25.911133 -21.90625q2.9375 0 4.8125 1.140625q1.890625 1.140625 2.609375 3.296875q0.71875 2.140625 0.109375 5.109375l-2.484375 12.359375l-2.9375 0l2.484375 -12.40625q0.65625 -3.21875 -0.6875 -5.03125q-1.34375 -1.828125 -4.734375 -1.828125q-3.46875 0 -5.765625 1.90625q-2.296875 1.90625 -3.078125 5.703125l-2.3125 11.65625l-2.9375 0l4.296875 -21.703125l2.8125 0l-1.234375 6.25l-0.625 -1.078125q1.578125 -2.8125 4.078125 -4.09375q2.5 -1.28125 5.59375 -1.28125zm22.2816 22.109375q-2.765625 0 -4.921875 -1.109375q-2.140625 -1.125 -3.34375 -3.1875q-1.203125 -2.0625 -1.203125 -4.921875q0 -2.765625 0.90625 -5.109375q0.90625 -2.359375 2.5625 -4.109375q1.65625 -1.765625 3.90625 -2.71875q2.25 -0.953125 4.90625 -0.953125q2.84375 0 4.828125 1.015625q1.984375 1.015625 3.0625 2.9375q1.078125 1.921875 1.078125 4.640625q0 2.9375 -0.8125 5.421875q-0.8125 2.484375 -2.390625 4.296875q-1.5625 1.8125 -3.734375 2.8125q-2.15625 0.984375 -4.84375 0.984375zm0.609375 -2.59375q2.734375 0 4.859375 -1.296875q2.125 -1.3125 3.34375 -3.625q1.234375 -2.3125 1.234375 -5.25q0 -3.21875 -1.890625 -5.0q-1.875 -1.78125 -5.265625 -1.78125q-2.6875 0 -4.84375 1.328125q-2.140625 1.3125 -3.359375 3.609375q-1.21875 2.296875 -1.21875 5.265625q0 3.1875 1.875 4.96875q1.890625 1.78125 5.265625 1.78125zm7.15625 2.390625l1.234375 -6.234375l1.25 -4.390625l0.40625 -4.546875l3.109375 -15.5l2.921875 0l-6.109375 30.671875l-2.8125 0zm29.83287 8.21875q-3.015625 0 -5.5 -0.84375q-2.46875 -0.84375 -4.15625 -2.421875l1.734375 -2.21875q1.3125 1.3125 3.4375 2.09375q2.140625 0.796875 4.703125 0.796875q4.125 0 6.390625 -1.90625q2.28125 -1.90625 3.03125 -5.875l1.15625 -5.703125l1.109375 -3.546875l0.453125 -3.71875l1.28125 -6.578125l2.8125 0l-3.796875 19.0625q-1.125 5.734375 -4.21875 8.296875q-3.09375 2.5625 -8.4375 2.5625zm1.453125 -9.046875q-2.84375 0 -5.015625 -1.0625q-2.171875 -1.078125 -3.375 -3.046875q-1.203125 -1.96875 -1.203125 -4.65625q0 -2.640625 0.90625 -4.875q0.921875 -2.234375 2.5625 -3.90625q1.65625 -1.671875 3.921875 -2.59375q2.28125 -0.9375 5.015625 -0.9375q2.609375 0 4.625 0.921875q2.03125 0.90625 3.203125 2.71875q1.171875 1.8125 1.171875 4.625q0.046875 3.5625 -1.40625 6.484375q-1.4375 2.90625 -4.09375 4.625q-2.640625 1.703125 -6.3125 1.703125zm0.578125 -2.609375q2.734375 0 4.859375 -1.234375q2.125 -1.234375 3.359375 -3.40625q1.25 -2.171875 1.25 -4.9375q0 -2.984375 -1.90625 -4.65625q-1.90625 -1.671875 -5.28125 -1.671875q-2.734375 0 -4.890625 1.25q-2.140625 1.234375 -3.359375 3.40625q-1.21875 2.171875 -1.21875 4.9375q0 2.96875 1.890625 4.640625q1.90625 1.671875 5.296875 1.671875zm28.184814 3.640625q-3.09375 0 -5.390625 -1.125q-2.296875 -1.140625 -3.515625 -3.203125q-1.21875 -2.078125 -1.21875 -4.921875q0 -3.71875 1.5625 -6.609375q1.578125 -2.90625 4.296875 -4.578125q2.734375 -1.671875 6.171875 -1.671875q2.890625 0 5.0 1.09375q2.109375 1.09375 3.28125 3.171875q1.171875 2.0625 1.171875 4.953125q0 0.65625 -0.078125 1.34375q-0.078125 0.6875 -0.203125 1.296875l-19.046875 0l0.359375 -2.1875l17.328125 0l-1.203125 0.828125q0.40625 -2.609375 -0.375 -4.375q-0.78125 -1.78125 -2.421875 -2.703125q-1.625 -0.9375 -3.90625 -0.9375q-2.640625 0 -4.703125 1.296875q-2.0625 1.296875 -3.21875 3.59375q-1.15625 2.296875 -1.15625 5.359375q0 3.265625 1.875 5.03125q1.875 1.75 5.640625 1.75q2.1875 0 4.046875 -0.71875q1.859375 -0.734375 3.0625 -2.015625l1.328125 2.109375q-1.53125 1.53125 -3.828125 2.375q-2.296875 0.84375 -4.859375 0.84375zm29.962234 -22.109375q2.9375 0 4.8125 1.140625q1.890625 1.140625 2.609375 3.296875q0.71875 2.140625 0.109375 5.109375l-2.484375 12.359375l-2.9375 0l2.484375 -12.40625q0.65625 -3.21875 -0.6875 -5.03125q-1.34375 -1.828125 -4.734375 -1.828125q-3.46875 0 -5.765625 1.90625q-2.296875 1.90625 -3.078125 5.703125l-2.3125 11.65625l-2.9375 0l4.296875 -21.703125l2.8125 0l-1.234375 6.25l-0.625 -1.078125q1.578125 -2.8125 4.078125 -4.09375q2.5 -1.28125 5.59375 -1.28125zm22.937866 22.109375q-3.09375 0 -5.390625 -1.125q-2.296875 -1.140625 -3.515625 -3.203125q-1.21875 -2.078125 -1.21875 -4.921875q0 -3.71875 1.5625 -6.609375q1.578125 -2.90625 4.296875 -4.578125q2.734375 -1.671875 6.171875 -1.671875q2.890625 0 5.0 1.09375q2.109375 1.09375 3.28125 3.171875q1.171875 2.0625 1.171875 4.953125q0 0.65625 -0.078125 1.34375q-0.078125 0.6875 -0.203125 1.296875l-19.046875 0l0.359375 -2.1875l17.328125 0l-1.203125 0.828125q0.40625 -2.609375 -0.375 -4.375q-0.78125 -1.78125 -2.421875 -2.703125q-1.625 -0.9375 -3.90625 -0.9375q-2.640625 0 -4.703125 1.296875q-2.0625 1.296875 -3.21875 3.59375q-1.15625 2.296875 -1.15625 5.359375q0 3.265625 1.875 5.03125q1.875 1.75 5.640625 1.75q2.1875 0 4.046875 -0.71875q1.859375 -0.734375 3.0625 -2.015625l1.328125 2.109375q-1.53125 1.53125 -3.828125 2.375q-2.296875 0.84375 -4.859375 0.84375zm15.040375 -0.203125l4.296875 -21.703125l2.8125 0l-1.234375 6.40625l-0.328125 -1.109375q1.4375 -2.859375 3.8125 -4.171875q2.375 -1.328125 5.9375 -1.328125l-0.53125 2.859375q-0.21875 0 -0.40625 -0.015625q-0.171875 -0.03125 -0.421875 -0.03125q-3.46875 0 -5.734375 2.015625q-2.25 2.0 -3.078125 6.046875l-2.1875 11.03125l-2.9375 0zm25.300873 0.203125q-2.765625 0 -4.921875 -1.109375q-2.140625 -1.125 -3.34375 -3.1875q-1.203125 -2.0625 -1.203125 -4.921875q0 -2.765625 0.90625 -5.109375q0.90625 -2.359375 2.5625 -4.109375q1.65625 -1.765625 3.90625 -2.71875q2.25 -0.953125 4.90625 -0.953125q2.84375 0 4.828125 1.015625q1.984375 1.015625 3.0625 2.9375q1.078125 1.921875 1.078125 4.640625q0 3.9375 -1.453125 7.0q-1.453125 3.046875 -4.09375 4.78125q-2.640625 1.734375 -6.234375 1.734375zm0.609375 -2.59375q2.734375 0 4.859375 -1.296875q2.125 -1.3125 3.34375 -3.625q1.234375 -2.3125 1.234375 -5.25q0 -3.21875 -1.890625 -5.0q-1.875 -1.78125 -5.265625 -1.78125q-2.6875 0 -4.84375 1.328125q-2.140625 1.3125 -3.359375 3.609375q-1.21875 2.296875 -1.21875 5.265625q0 3.1875 1.875 4.96875q1.890625 1.78125 5.265625 1.78125zm7.15625 2.390625l1.234375 -6.234375l1.25 -4.390625l0.40625 -4.546875l1.328125 -6.53125l2.9375 0l-4.34375 21.703125l-2.8125 0zm17.895508 0.203125q-1.859375 0 -3.1875 -0.796875q-1.3125 -0.8125 -1.828125 -2.296875q-0.515625 -1.484375 -0.109375 -3.5625l3.96875 -20.03125l2.9375 0l-3.96875 19.90625q-0.421875 2.03125 0.296875 3.15625q0.734375 1.109375 2.671875 1.109375q0.90625 0 1.78125 -0.265625q0.875 -0.28125 1.578125 -0.859375l0.6875 2.234375q-1.03125 0.796875 -2.3125 1.109375q-1.28125 0.296875 -2.515625 0.296875zm-6.453125 -19.46875l0.46875 -2.4375l13.421875 0l-0.5 2.4375l-13.390625 0zm16.326141 19.265625l4.296875 -21.703125l2.9375 0l-4.296875 21.703125l-2.9375 0zm7.03125 -26.484375q-0.859375 0 -1.421875 -0.578125q-0.5625 -0.59375 -0.5625 -1.375q0 -0.90625 0.640625 -1.5625q0.640625 -0.671875 1.640625 -0.671875q0.859375 0 1.4375 0.546875q0.59375 0.53125 0.59375 1.359375q0 1.0 -0.671875 1.640625q-0.65625 0.640625 -1.65625 0.640625zm19.007904 4.578125q2.9375 0 4.8125 1.140625q1.890625 1.140625 2.609375 3.296875q0.71875 2.140625 0.109375 5.109375l-2.484375 12.359375l-2.9375 0l2.484375 -12.40625q0.65625 -3.21875 -0.6875 -5.03125q-1.34375 -1.828125 -4.734375 -1.828125q-3.46875 0 -5.765625 1.90625q-2.296875 1.90625 -3.078125 5.703125l-2.3125 11.65625l-2.9375 0l4.296875 -21.703125l2.8125 0l-1.234375 6.25l-0.625 -1.078125q1.578125 -2.8125 4.078125 -4.09375q2.5 -1.28125 5.59375 -1.28125zm21.031586 30.125q-3.015625 0 -5.5 -0.84375q-2.46875 -0.84375 -4.15625 -2.421875l1.734375 -2.21875q1.3125 1.3125 3.4375 2.09375q2.140625 0.796875 4.703125 0.796875q4.125 0 6.390625 -1.90625q2.28125 -1.90625 3.03125 -5.875l1.15625 -5.703125l1.109375 -3.546875l0.453125 -3.71875l1.28125 -6.578125l2.8125 0l-3.796875 19.0625q-1.125 5.734375 -4.21875 8.296875q-3.09375 2.5625 -8.4375 2.5625zm1.453125 -9.046875q-2.84375 0 -5.015625 -1.0625q-2.171875 -1.078125 -3.375 -3.046875q-1.203125 -1.96875 -1.203125 -4.65625q0 -2.640625 0.90625 -4.875q0.921875 -2.234375 2.5625 -3.90625q1.65625 -1.671875 3.921875 -2.59375q2.28125 -0.9375 5.015625 -0.9375q2.609375 0 4.625 0.921875q2.03125 0.90625 3.203125 2.71875q1.171875 1.8125 1.171875 4.625q0.046875 3.5625 -1.40625 6.484375q-1.4375 2.90625 -4.09375 4.625q-2.640625 1.703125 -6.3125 1.703125zm0.578125 -2.609375q2.734375 0 4.859375 -1.234375q2.125 -1.234375 3.359375 -3.40625q1.25 -2.171875 1.25 -4.9375q0 -2.984375 -1.90625 -4.65625q-1.90625 -1.671875 -5.28125 -1.671875q-2.734375 0 -4.890625 1.25q-2.140625 1.234375 -3.359375 3.40625q-1.21875 2.171875 -1.21875 4.9375q0 2.96875 1.890625 4.640625q1.90625 1.671875 5.296875 1.671875z" fill-rule="nonzero"/><path fill="#ffffff" d="m121.66164 294.61206q2.9375 0 4.765625 1.140625q1.84375 1.140625 2.546875 3.296875q0.703125 2.140625 0.078125 5.109375l-2.46875 12.359375l-2.9375 0l2.46875 -12.40625q0.671875 -3.21875 -0.59375 -5.03125q-1.265625 -1.828125 -4.5625 -1.828125q-3.265625 0 -5.484375 1.828125q-2.203125 1.8125 -2.953125 5.453125l-2.390625 11.984375l-2.9375 0l2.484375 -12.40625q0.65625 -3.21875 -0.625 -5.03125q-1.28125 -1.828125 -4.546875 -1.828125q-3.34375 0 -5.546875 1.90625q-2.1875 1.90625 -2.96875 5.703125l-2.3125 11.65625l-2.9375 0l4.296875 -21.703125l2.8125 0l-1.234375 6.25l-0.625 -1.078125q1.578125 -2.8125 3.96875 -4.09375q2.40625 -1.28125 5.421875 -1.28125q2.265625 0 3.890625 0.765625q1.640625 0.765625 2.5625 2.234375q0.9375 1.46875 1.015625 3.484375l-1.515625 -0.328125q1.609375 -3.09375 4.265625 -4.625q2.671875 -1.53125 6.0625 -1.53125zm22.599213 22.109375q-3.015625 0 -5.234375 -1.125q-2.203125 -1.140625 -3.421875 -3.203125q-1.21875 -2.078125 -1.21875 -4.890625q0 -3.71875 1.609375 -6.625q1.609375 -2.921875 4.453125 -4.59375q2.859375 -1.671875 6.5 -1.671875q3.015625 0 5.21875 1.125q2.21875 1.109375 3.4375 3.171875q1.21875 2.0625 1.21875 4.875q0 3.71875 -1.609375 6.640625q-1.609375 2.90625 -4.4375 4.609375q-2.828125 1.6875 -6.515625 1.6875zm0.203125 -2.59375q2.734375 0 4.859375 -1.296875q2.125 -1.3125 3.34375 -3.625q1.234375 -2.3125 1.234375 -5.25q0 -3.21875 -1.890625 -5.0q-1.875 -1.78125 -5.265625 -1.78125q-2.6875 0 -4.84375 1.328125q-2.140625 1.3125 -3.359375 3.609375q-1.21875 2.296875 -1.21875 5.265625q0 3.1875 1.875 4.96875q1.890625 1.78125 5.265625 1.78125zm25.303406 2.59375q-2.765625 0 -4.921875 -1.109375q-2.140625 -1.125 -3.34375 -3.1875q-1.203125 -2.0625 -1.203125 -4.921875q0 -2.765625 0.90625 -5.109375q0.90625 -2.359375 2.5625 -4.109375q1.65625 -1.765625 3.90625 -2.71875q2.25 -0.953125 4.90625 -0.953125q2.84375 0 4.828125 1.015625q1.984375 1.015625 3.0625 2.9375q1.078125 1.921875 1.078125 4.640625q0 2.9375 -0.8125 5.421875q-0.8125 2.484375 -2.390625 4.296875q-1.5625 1.8125 -3.734375 2.8125q-2.15625 0.984375 -4.84375 0.984375zm0.609375 -2.59375q2.734375 0 4.859375 -1.296875q2.125 -1.3125 3.34375 -3.625q1.234375 -2.3125 1.234375 -5.25q0 -3.21875 -1.890625 -5.0q-1.875 -1.78125 -5.265625 -1.78125q-2.6875 0 -4.84375 1.328125q-2.140625 1.3125 -3.359375 3.609375q-1.21875 2.296875 -1.21875 5.265625q0 3.1875 1.875 4.96875q1.890625 1.78125 5.265625 1.78125zm7.15625 2.390625l1.234375 -6.234375l1.25 -4.390625l0.40625 -4.546875l3.109375 -15.5l2.921875 0l-6.109375 30.671875l-2.8125 0zm20.911133 0.203125q-3.09375 0 -5.390625 -1.125q-2.296875 -1.140625 -3.515625 -3.203125q-1.21875 -2.078125 -1.21875 -4.921875q0 -3.71875 1.5625 -6.609375q1.578125 -2.90625 4.296875 -4.578125q2.734375 -1.671875 6.171875 -1.671875q2.890625 0 5.0 1.09375q2.109375 1.09375 3.28125 3.171875q1.171875 2.0625 1.171875 4.953125q0 0.65625 -0.078125 1.34375q-0.078125 0.6875 -0.203125 1.296875l-19.046875 0l0.359375 -2.1875l17.328125 0l-1.203125 0.828125q0.40625 -2.609375 -0.375 -4.375q-0.78125 -1.78125 -2.421875 -2.703125q-1.625 -0.9375 -3.90625 -0.9375q-2.640625 0 -4.703125 1.296875q-2.0625 1.296875 -3.21875 3.59375q-1.15625 2.296875 -1.15625 5.359375q0 3.265625 1.875 5.03125q1.875 1.75 5.640625 1.75q2.1875 0 4.046875 -0.71875q1.859375 -0.734375 3.0625 -2.015625l1.328125 2.109375q-1.53125 1.53125 -3.828125 2.375q-2.296875 0.84375 -4.859375 0.84375zm15.0403595 -0.203125l6.125 -30.671875l2.9375 0l-6.125 30.671875l-2.9375 0zm17.445404 0.203125q-2.640625 0 -5.0 -0.734375q-2.359375 -0.75 -3.640625 -1.90625l1.40625 -2.3125q1.234375 1.109375 3.265625 1.75q2.03125 0.640625 4.265625 0.640625q3.09375 0 4.765625 -1.03125q1.671875 -1.03125 1.671875 -2.84375q0 -1.25 -0.890625 -1.890625q-0.890625 -0.640625 -2.296875 -0.984375q-1.390625 -0.359375 -2.96875 -0.6875q-1.5625 -0.328125 -2.96875 -0.84375q-1.40625 -0.515625 -2.296875 -1.59375q-0.890625 -1.078125 -0.890625 -2.890625q0 -2.0625 1.171875 -3.59375q1.1875 -1.53125 3.28125 -2.359375q2.109375 -0.828125 4.96875 -0.828125q2.0625 0 4.078125 0.546875q2.03125 0.53125 3.28125 1.484375l-1.25 2.359375q-1.28125 -1.0 -2.96875 -1.4375q-1.6875 -0.4375 -3.390625 -0.4375q-3.015625 0 -4.65625 1.109375q-1.625 1.09375 -1.625 2.859375q0 1.25 0.890625 1.90625q0.890625 0.65625 2.296875 1.03125q1.40625 0.375 2.984375 0.6875q1.59375 0.3125 2.984375 0.84375q1.390625 0.53125 2.265625 1.546875q0.890625 1.015625 0.890625 2.828125q0 2.15625 -1.203125 3.671875q-1.1875 1.5 -3.359375 2.3125q-2.171875 0.796875 -5.0625 0.796875z" fill-rule="nonzero"/><path fill="#29caab" d="m254.44167 316.5183l4.4218903 -22.234375l6.40625 0l-4.421875 22.234375l-6.4062653 0zm8.718765 -25.328125q-1.6875 0 -2.734375 -0.96875q-1.03125 -0.984375 -1.03125 -2.390625q0 -1.640625 1.171875 -2.734375q1.1875 -1.109375 3.09375 -1.109375q1.6875 0 2.734375 0.9375q1.0625 0.921875 1.0625 2.296875q0 1.765625 -1.1875 2.875q-1.171875 1.09375 -3.109375 1.09375zm21.039062 2.765625q2.859375 0 4.84375 1.1875q1.984375 1.171875 2.796875 3.453125q0.828125 2.265625 0.171875 5.609375l-2.484375 12.3125l-6.4375 0l2.390625 -11.90625q0.5 -2.4375 -0.390625 -3.75q-0.890625 -1.328125 -3.25 -1.328125q-2.4375 0 -4.078125 1.40625q-1.625 1.40625 -2.234375 4.296875l-2.234375 11.28125l-6.453125 0l4.421875 -22.234375l6.125 0l-1.28125 6.28125l-0.90625 -1.90625q1.609375 -2.4375 3.984375 -3.5625q2.375 -1.140625 5.015625 -1.140625zm12.15155 13.515625l1.03125 -5.171875l11.703125 0l-1.03125 5.171875l-11.703125 0zm32.358948 -13.515625q2.8125 0 4.796875 1.1875q1.984375 1.171875 2.828125 3.453125q0.84375 2.265625 0.1875 5.609375l-2.484375 12.3125l-6.4375 0l2.390625 -11.90625q0.5 -2.4375 -0.390625 -3.75q-0.890625 -1.328125 -3.25 -1.328125q-2.4375 0 -4.078125 1.40625q-1.625 1.40625 -2.234375 4.296875l-2.234375 11.28125l-6.453125 0l6.125 -30.671875l6.4375 0l-2.921875 14.71875l-1.28125 -1.90625q1.609375 -2.4375 3.984375 -3.5625q2.375 -1.140625 5.015625 -1.140625zm22.906067 22.890625q-3.390625 0 -5.921875 -1.234375q-2.515625 -1.25 -3.90625 -3.46875q-1.375 -2.234375 -1.375 -5.25q0 -3.71875 1.734375 -6.625q1.734375 -2.921875 4.765625 -4.609375q3.046875 -1.703125 6.921875 -1.703125q3.4375 0 5.9375 1.25q2.5 1.234375 3.875 3.453125q1.390625 2.203125 1.390625 5.25q0 3.6875 -1.734375 6.625q-1.734375 2.921875 -4.75 4.625q-3.015625 1.6875 -6.9375 1.6875zm0.40625 -5.28125q1.90625 0 3.359375 -0.921875q1.46875 -0.9375 2.296875 -2.59375q0.828125 -1.65625 0.828125 -3.84375q0 -2.234375 -1.328125 -3.59375q-1.3125 -1.375 -3.703125 -1.375q-1.90625 0 -3.375 0.9375q-1.46875 0.921875 -2.3125 2.578125q-0.84375 1.65625 -0.84375 3.84375q0 2.28125 1.3125 3.625q1.328125 1.34375 3.765625 1.34375zm24.513 5.28125q-2.734375 0 -4.71875 -1.171875q-1.984375 -1.1875 -2.8125 -3.453125q-0.828125 -2.28125 -0.15625 -5.625l2.4375 -12.3125l6.4375 0l-2.34375 11.90625q-0.5 2.4375 0.390625 3.765625q0.890625 1.3125 3.15625 1.3125q2.390625 0 4.015625 -1.40625q1.640625 -1.40625 2.1875 -4.296875l2.265625 -11.28125l6.453125 0l-4.421875 22.234375l-6.125 0l1.25 -6.28125l0.90625 1.90625q-1.578125 2.4375 -3.9375 3.578125q-2.34375 1.125 -4.984375 1.125zm26.986237 0q-2.9375 0 -5.53125 -0.65625q-2.578125 -0.65625 -3.984375 -1.65625l2.484375 -4.671875q1.453125 0.953125 3.53125 1.53125q2.09375 0.578125 4.203125 0.578125q2.265625 0 3.296875 -0.578125q1.03125 -0.578125 1.03125 -1.5625q0 -0.796875 -0.875 -1.1875q-0.859375 -0.390625 -2.1875 -0.640625q-1.3125 -0.25 -2.828125 -0.578125q-1.5 -0.328125 -2.84375 -0.921875q-1.34375 -0.609375 -2.1875 -1.734375q-0.84375 -1.140625 -0.84375 -3.0q0 -2.53125 1.421875 -4.265625q1.421875 -1.734375 3.953125 -2.640625q2.546875 -0.90625 5.78125 -0.90625q2.3125 0 4.5 0.5q2.1875 0.484375 3.71875 1.359375l-2.3125 4.703125q-1.578125 -0.984375 -3.296875 -1.328125q-1.703125 -0.359375 -3.28125 -0.359375q-2.265625 0 -3.28125 0.640625q-1.015625 0.640625 -1.015625 1.546875q0 0.78125 0.84375 1.21875q0.859375 0.4375 2.171875 0.703125q1.328125 0.265625 2.859375 0.578125q1.53125 0.3125 2.84375 0.921875q1.328125 0.59375 2.171875 1.6875q0.84375 1.09375 0.84375 2.953125q0 2.515625 -1.46875 4.28125q-1.453125 1.75 -3.984375 2.625q-2.515625 0.859375 -5.734375 0.859375zm25.664032 0q-3.46875 0 -6.015625 -1.234375q-2.546875 -1.25 -3.953125 -3.46875q-1.40625 -2.234375 -1.40625 -5.25q0 -3.71875 1.671875 -6.625q1.6875 -2.921875 4.640625 -4.609375q2.953125 -1.703125 6.796875 -1.703125q3.265625 0 5.609375 1.21875q2.359375 1.21875 3.65625 3.390625q1.3125 2.171875 1.3125 5.1875q0 0.859375 -0.109375 1.734375q-0.09375 0.859375 -0.265625 1.65625l-18.390625 0l0.65625 -3.765625l14.71875 0l-2.640625 1.15625q0.328125 -1.859375 -0.21875 -3.109375q-0.53125 -1.265625 -1.734375 -1.953125q-1.1875 -0.6875 -2.890625 -0.6875q-2.109375 0 -3.578125 1.015625q-1.453125 1.015625 -2.203125 2.796875q-0.75 1.765625 -0.75 4.0q0 2.5625 1.421875 3.828125q1.4375 1.265625 4.328125 1.265625q1.6875 0 3.265625 -0.53125q1.578125 -0.546875 2.6875 -1.546875l2.6875 4.265625q-1.9375 1.53125 -4.359375 2.25q-2.421875 0.71875 -4.9375 0.71875z" fill-rule="nonzero"/><path fill="#ffffff" d="m445.0928 316.72144q-0.90625 0 -1.53125 -0.609375q-0.625 -0.625 -0.625 -1.53125q0 -1.03125 0.703125 -1.6875q0.703125 -0.671875 1.625 -0.671875q0.90625 0 1.5 0.609375q0.59375 0.59375 0.59375 1.53125q0 0.703125 -0.3125 1.234375q-0.296875 0.515625 -0.84375 0.828125q-0.53125 0.296875 -1.109375 0.296875z" fill-rule="nonzero"/></g></svg>